<?xml version="1.0" encoding="utf-8"?>
<svg version="1.1" xmlns:xlink="http://www.w3.org/1999/xlink" width="21px" height="17px" xmlns="http://www.w3.org/2000/svg">
  <defs>
    <pattern id="BGPattern" patternUnits="userSpaceOnUse" alignment="0 0" imageRepeat="None" />
    <mask fill="white" id="Clip358">
      <path d="M 19.5 11.325916230366493  C 20.5 12.052792321116927  21 12.924301919720767  21 13.94044502617801  C 21 14.80824607329843  20.605 15.535122164048865  19.815 16.12107329842932  C 19.025000000000002 16.707024432809774  18.045 17  16.875 17  C 15.525 17  14.35 16.62914485165794  13.35 15.88743455497382  L 1.6950000000000003 7.253926701570681  C 0.5650000000000002 6.400959860383942  0 5.395942408376963  0 4.238874345549738  C 0 3.05955497382199  0.5500000000000002 2.058246073298429  1.6500000000000004 1.2349476439790568  C 2.750000000000001 0.4116492146596862  4.095 0  5.6850000000000005 0  C 7.265 0  8.63 0.41906631762652446  9.78 1.2571989528795808  L 18.855 7.99934554973822  C 18.955000000000002 8.07351657940663  19.005 8.155104712041885  19.005 8.244109947643977  C 19.005 8.362783595113438  18.852500000000003 8.535231239092496  18.5475 8.761452879581151  C 18.2425 8.987674520069808  18.01 9.100785340314136  17.849999999999998 9.100785340314136  C 17.720000000000002 9.100785340314136  17.605 9.06369982547993  17.505 8.98952879581152  L 8.415 2.2362565445026177  C 7.625000000000001 1.6651396160558452  6.7200000000000015 1.3795811518324608  5.699999999999999 1.3795811518324608  C 4.640000000000001 1.3795811518324608  3.745 1.657722513089005  3.015 2.2140052356020936  C 2.2850000000000006 2.770287958115184  1.92 3.4415357766143098  1.92 4.2277486910994755  C 1.92 5.0065445026178015  2.3000000000000007 5.677792321116928  3.06 6.241492146596858  L 14.7 14.886125654450263  C 15.33 15.353403141361257  16.055000000000003 15.587041884816754  16.875 15.587041884816754  C 17.515 15.587041884816754  18.045 15.431282722513089  18.465 15.11976439790576  C 18.884999999999998 14.80824607329843  19.095 14.415139616055846  19.095 13.94044502617801  C 19.095 13.332242582897033  18.779999999999998 12.794502617801047  18.150000000000002 12.327225130890053  L 9.435 5.863219895287958  C 9.175 5.685209424083769  8.875000000000002 5.596204188481677  8.535 5.596204188481677  C 8.245000000000001 5.596204188481677  8.005 5.666666666666665  7.815 5.807591623036649  C 7.625000000000001 5.948516579406632  7.53 6.12652705061082  7.53 6.3416230366492155  C 7.53 6.578970331588131  7.655 6.797774869109948  7.905 6.99803664921466  L 14.055 11.55955497382199  C 14.155000000000001 11.633726003490398  14.205000000000002 11.715314136125654  14.204999999999998 11.80431937172775  C 14.205000000000002 11.922993019197206  14.05 12.097294938917974  13.739999999999998 12.327225130890053  C 13.430000000000001 12.557155322862128  13.195000000000002 12.672120418848166  13.034999999999998 12.672120418848166  C 12.915000000000003 12.672120418848166  12.805000000000001 12.63503490401396  12.705 12.56086387434555  L 6.555000000000001 7.99934554973822  C 5.925 7.546902268760906  5.609999999999999 6.994328097731239  5.609999999999999 6.3416230366492155  C 5.609999999999999 5.733420593368236  5.895 5.217931937172775  6.465000000000001 4.795157068062828  C 7.035 4.37238219895288  7.730000000000001 4.160994764397906  8.55 4.160994764397906  C 9.430000000000001 4.160994764397906  10.175 4.394633507853403  10.785 4.861910994764397  L 19.5 11.325916230366493  Z " fill-rule="evenodd" />
    </mask>
  </defs>
  <g transform="matrix(1 0 0 1 -384 -275 )">
    <path d="M 19.5 11.325916230366493  C 20.5 12.052792321116927  21 12.924301919720767  21 13.94044502617801  C 21 14.80824607329843  20.605 15.535122164048865  19.815 16.12107329842932  C 19.025000000000002 16.707024432809774  18.045 17  16.875 17  C 15.525 17  14.35 16.62914485165794  13.35 15.88743455497382  L 1.6950000000000003 7.253926701570681  C 0.5650000000000002 6.400959860383942  0 5.395942408376963  0 4.238874345549738  C 0 3.05955497382199  0.5500000000000002 2.058246073298429  1.6500000000000004 1.2349476439790568  C 2.750000000000001 0.4116492146596862  4.095 0  5.6850000000000005 0  C 7.265 0  8.63 0.41906631762652446  9.78 1.2571989528795808  L 18.855 7.99934554973822  C 18.955000000000002 8.07351657940663  19.005 8.155104712041885  19.005 8.244109947643977  C 19.005 8.362783595113438  18.852500000000003 8.535231239092496  18.5475 8.761452879581151  C 18.2425 8.987674520069808  18.01 9.100785340314136  17.849999999999998 9.100785340314136  C 17.720000000000002 9.100785340314136  17.605 9.06369982547993  17.505 8.98952879581152  L 8.415 2.2362565445026177  C 7.625000000000001 1.6651396160558452  6.7200000000000015 1.3795811518324608  5.699999999999999 1.3795811518324608  C 4.640000000000001 1.3795811518324608  3.745 1.657722513089005  3.015 2.2140052356020936  C 2.2850000000000006 2.770287958115184  1.92 3.4415357766143098  1.92 4.2277486910994755  C 1.92 5.0065445026178015  2.3000000000000007 5.677792321116928  3.06 6.241492146596858  L 14.7 14.886125654450263  C 15.33 15.353403141361257  16.055000000000003 15.587041884816754  16.875 15.587041884816754  C 17.515 15.587041884816754  18.045 15.431282722513089  18.465 15.11976439790576  C 18.884999999999998 14.80824607329843  19.095 14.415139616055846  19.095 13.94044502617801  C 19.095 13.332242582897033  18.779999999999998 12.794502617801047  18.150000000000002 12.327225130890053  L 9.435 5.863219895287958  C 9.175 5.685209424083769  8.875000000000002 5.596204188481677  8.535 5.596204188481677  C 8.245000000000001 5.596204188481677  8.005 5.666666666666665  7.815 5.807591623036649  C 7.625000000000001 5.948516579406632  7.53 6.12652705061082  7.53 6.3416230366492155  C 7.53 6.578970331588131  7.655 6.797774869109948  7.905 6.99803664921466  L 14.055 11.55955497382199  C 14.155000000000001 11.633726003490398  14.205000000000002 11.715314136125654  14.204999999999998 11.80431937172775  C 14.205000000000002 11.922993019197206  14.05 12.097294938917974  13.739999999999998 12.327225130890053  C 13.430000000000001 12.557155322862128  13.195000000000002 12.672120418848166  13.034999999999998 12.672120418848166  C 12.915000000000003 12.672120418848166  12.805000000000001 12.63503490401396  12.705 12.56086387434555  L 6.555000000000001 7.99934554973822  C 5.925 7.546902268760906  5.609999999999999 6.994328097731239  5.609999999999999 6.3416230366492155  C 5.609999999999999 5.733420593368236  5.895 5.217931937172775  6.465000000000001 4.795157068062828  C 7.035 4.37238219895288  7.730000000000001 4.160994764397906  8.55 4.160994764397906  C 9.430000000000001 4.160994764397906  10.175 4.394633507853403  10.785 4.861910994764397  L 19.5 11.325916230366493  Z " fill-rule="nonzero" fill="rgba(0, 0, 0, 1)" stroke="none" transform="matrix(1 0 0 1 384 275 )" class="fill" />
    <path d="M 19.5 11.325916230366493  C 20.5 12.052792321116927  21 12.924301919720767  21 13.94044502617801  C 21 14.80824607329843  20.605 15.535122164048865  19.815 16.12107329842932  C 19.025000000000002 16.707024432809774  18.045 17  16.875 17  C 15.525 17  14.35 16.62914485165794  13.35 15.88743455497382  L 1.6950000000000003 7.253926701570681  C 0.5650000000000002 6.400959860383942  0 5.395942408376963  0 4.238874345549738  C 0 3.05955497382199  0.5500000000000002 2.058246073298429  1.6500000000000004 1.2349476439790568  C 2.750000000000001 0.4116492146596862  4.095 0  5.6850000000000005 0  C 7.265 0  8.63 0.41906631762652446  9.78 1.2571989528795808  L 18.855 7.99934554973822  C 18.955000000000002 8.07351657940663  19.005 8.155104712041885  19.005 8.244109947643977  C 19.005 8.362783595113438  18.852500000000003 8.535231239092496  18.5475 8.761452879581151  C 18.2425 8.987674520069808  18.01 9.100785340314136  17.849999999999998 9.100785340314136  C 17.720000000000002 9.100785340314136  17.605 9.06369982547993  17.505 8.98952879581152  L 8.415 2.2362565445026177  C 7.625000000000001 1.6651396160558452  6.7200000000000015 1.3795811518324608  5.699999999999999 1.3795811518324608  C 4.640000000000001 1.3795811518324608  3.745 1.657722513089005  3.015 2.2140052356020936  C 2.2850000000000006 2.770287958115184  1.92 3.4415357766143098  1.92 4.2277486910994755  C 1.92 5.0065445026178015  2.3000000000000007 5.677792321116928  3.06 6.241492146596858  L 14.7 14.886125654450263  C 15.33 15.353403141361257  16.055000000000003 15.587041884816754  16.875 15.587041884816754  C 17.515 15.587041884816754  18.045 15.431282722513089  18.465 15.11976439790576  C 18.884999999999998 14.80824607329843  19.095 14.415139616055846  19.095 13.94044502617801  C 19.095 13.332242582897033  18.779999999999998 12.794502617801047  18.150000000000002 12.327225130890053  L 9.435 5.863219895287958  C 9.175 5.685209424083769  8.875000000000002 5.596204188481677  8.535 5.596204188481677  C 8.245000000000001 5.596204188481677  8.005 5.666666666666665  7.815 5.807591623036649  C 7.625000000000001 5.948516579406632  7.53 6.12652705061082  7.53 6.3416230366492155  C 7.53 6.578970331588131  7.655 6.797774869109948  7.905 6.99803664921466  L 14.055 11.55955497382199  C 14.155000000000001 11.633726003490398  14.205000000000002 11.715314136125654  14.204999999999998 11.80431937172775  C 14.205000000000002 11.922993019197206  14.05 12.097294938917974  13.739999999999998 12.327225130890053  C 13.430000000000001 12.557155322862128  13.195000000000002 12.672120418848166  13.034999999999998 12.672120418848166  C 12.915000000000003 12.672120418848166  12.805000000000001 12.63503490401396  12.705 12.56086387434555  L 6.555000000000001 7.99934554973822  C 5.925 7.546902268760906  5.609999999999999 6.994328097731239  5.609999999999999 6.3416230366492155  C 5.609999999999999 5.733420593368236  5.895 5.217931937172775  6.465000000000001 4.795157068062828  C 7.035 4.37238219895288  7.730000000000001 4.160994764397906  8.55 4.160994764397906  C 9.430000000000001 4.160994764397906  10.175 4.394633507853403  10.785 4.861910994764397  L 19.5 11.325916230366493  Z " stroke-width="0" stroke-dasharray="0" stroke="rgba(255, 255, 255, 0)" fill="none" transform="matrix(1 0 0 1 384 275 )" class="stroke" mask="url(#Clip358)" />
  </g>
</svg>