<?xml version="1.0" encoding="utf-8"?>
<svg version="1.1" xmlns:xlink="http://www.w3.org/1999/xlink" width="20px" height="14px" xmlns="http://www.w3.org/2000/svg">
  <defs>
    <pattern id="BGPattern" patternUnits="userSpaceOnUse" alignment="0 0" imageRepeat="None" />
    <mask fill="white" id="Clip359">
      <path d="M 17.30392156862745 10.868872549019608  C 17.53267973856209 10.708741830065359  17.647058823529413 10.517156862745098  17.647058823529413 10.294117647058824  C 17.647058823529413 10.065359477124181  17.53267973856209 9.870915032679738  17.30392156862745 9.71078431372549  L 14.754901960784315 7.9264705882352935  C 14.526143790849675 7.766339869281046  14.248366013071896 7.686274509803923  13.92156862745098 7.686274509803923  C 13.57843137254902 7.686274509803923  13.284313725490195 7.777777777777779  13.03921568627451 7.96078431372549  C 13.063725490196079 7.977941176470588  13.141339869281047 8.030841503267974  13.272058823529411 8.119485294117647  C 13.402777777777779 8.20812908496732  13.4906045751634 8.269607843137255  13.535539215686274 8.303921568627452  C 13.580473856209153 8.338235294117647  13.641748366013074 8.392565359477125  13.719362745098039 8.466911764705882  C 13.796977124183007 8.54125816993464  13.850081699346406 8.614174836601308  13.878676470588236 8.685661764705882  C 13.907271241830069 8.757148692810457  13.92156862745098 8.83578431372549  13.92156862745098 8.92156862745098  C 13.92156862745098 9.15032679738562  13.807189542483663 9.344771241830065  13.57843137254902 9.504901960784315  C 13.34967320261438 9.665032679738562  13.071895424836601 9.745098039215685  12.745098039215685 9.745098039215685  C 12.622549019607842 9.745098039215685  12.510212418300654 9.735089869281046  12.408088235294116 9.715073529411764  C 12.305964052287583 9.695057189542483  12.201797385620916 9.657883986928104  12.095588235294116 9.60355392156863  C 11.989379084967322 9.54922385620915  11.911764705882355 9.506331699346404  11.862745098039216 9.474877450980392  C 11.81372549019608 9.443423202614378  11.725898692810459 9.381944444444443  11.599264705882353 9.290441176470587  C 11.47263071895425 9.198937908496731  11.397058823529411 9.144607843137255  11.372549019607842 9.127450980392156  C 11.102941176470589 9.3047385620915  10.968137254901961 9.513480392156861  10.968137254901961 9.753676470588236  C 10.968137254901961 9.982434640522875  11.082516339869281 10.17687908496732  11.311274509803921 10.337009803921568  L 13.83578431372549 12.112745098039216  C 14.056372549019606 12.267156862745098  14.334150326797385 12.344362745098039  14.669117647058822 12.344362745098039  C 14.995915032679738 12.344362745098039  15.273692810457518 12.270016339869281  15.502450980392158 12.121323529411764  L 17.30392156862745 10.868872549019608  Z M 8.627450980392158 4.872549019607843  C 8.897058823529411 4.695261437908496  9.031862745098039 4.486519607843137  9.031862745098039 4.246323529411765  C 9.031862745098039 4.017565359477124  8.917483660130719 3.8231209150326784  8.688725490196079 3.6629901960784306  L 6.16421568627451 1.8872549019607838  C 5.935457516339869 1.727124183006536  5.657679738562091 1.6470588235294121  5.330882352941177 1.6470588235294121  C 5.012254901960784 1.6470588235294121  4.734477124183007 1.724264705882353  4.497549019607844 1.8786764705882348  L 2.6960784313725488 3.131127450980392  C 2.4673202614379086 3.2912581699346397  2.3529411764705883 3.482843137254902  2.3529411764705883 3.7058823529411757  C 2.3529411764705883 3.9346405228758154  2.4673202614379086 4.129084967320261  2.6960784313725488 4.28921568627451  L 5.245098039215686 6.0735294117647065  C 5.465686274509805 6.227941176470588  5.743464052287583 6.305147058823529  6.078431372549019 6.305147058823529  C 6.421568627450981 6.305147058823529  6.715686274509803 6.216503267973856  6.96078431372549 6.03921568627451  C 6.936274509803921 6.02205882352941  6.858660130718955 5.969158496732026  6.727941176470589 5.880514705882353  C 6.597222222222223 5.79187091503268  6.509395424836603 5.730392156862745  6.464460784313726 5.696078431372549  C 6.419526143790851 5.661764705882353  6.358251633986929 5.607434640522876  6.2806372549019605 5.533088235294118  C 6.203022875816995 5.4587418300653585  6.149918300653595 5.3858251633986916  6.121323529411765 5.314338235294118  C 6.092728758169935 5.242851307189541  6.078431372549019 5.16421568627451  6.078431372549019 5.07843137254902  C 6.078431372549019 4.849673202614379  6.19281045751634 4.655228758169933  6.421568627450981 4.495098039215685  C 6.650326797385622 4.334967320261437  6.9281045751634 4.254901960784315  7.254901960784314 4.254901960784315  C 7.377450980392157 4.254901960784315  7.489787581699348 4.2649101307189525  7.591911764705882 4.284926470588235  C 7.694035947712418 4.304942810457516  7.798202614379085 4.3421160130718945  7.904411764705882 4.3964460784313735  C 8.01062091503268 4.450776143790849  8.088235294117647 4.493668300653594  8.137254901960784 4.525122549019608  C 8.186274509803921 4.5565767973856195  8.274101307189543 4.6180555555555545  8.400735294117647 4.709558823529412  C 8.527369281045752 4.801062091503266  8.602941176470589 4.855392156862745  8.627450980392158 4.872549019607843  Z M 18.970588235294116 8.544117647058824  C 19.65686274509804 9.024509803921568  20 9.607843137254902  20 10.294117647058824  C 20 10.980392156862745  19.65277777777778 11.560866013071896  18.958333333333332 12.035539215686274  L 17.15686274509804 13.28799019607843  C 16.478758169934643 13.76266339869281  15.649509803921568 14  14.669117647058822 14  C 13.680555555555557 14  12.847222222222223 13.756944444444445  12.169117647058822 13.270833333333332  L 9.644607843137255 11.495098039215685  C 8.966503267973858 11.020424836601308  8.627450980392158 10.439950980392156  8.627450980392158 9.753676470588236  C 8.627450980392158 9.050245098039216  8.986928104575163 8.452614379084967  9.705882352941176 7.96078431372549  L 8.627450980392158 7.205882352941176  C 7.92483660130719 7.709150326797387  7.075163398692811 7.96078431372549  6.078431372549019 7.96078431372549  C 5.098039215686274 7.96078431372549  4.264705882352941 7.720588235294118  3.5784313725490198 7.240196078431372  L 1.0294117647058822 5.455882352941176  C 0.3431372549019608 4.975490196078431  0 4.392156862745098  0 3.7058823529411757  C 0 3.019607843137255  0.34722222222222215 2.4391339869281037  1.0416666666666667 1.9644607843137247  L 2.8431372549019605 0.7120098039215692  C 3.52124183006536 0.2373366013071887  4.3504901960784315 0  5.330882352941177 0  C 6.3194444444444455 0  7.152777777777779 0.2430555555555547  7.830882352941177 0.7291666666666672  L 10.355392156862745 2.504901960784314  C 11.033496732026144 2.9795751633986916  11.372549019607842 3.5600490196078427  11.372549019607842 4.246323529411765  C 11.372549019607842 4.949754901960784  11.013071895424837 5.547385620915032  10.294117647058822 6.03921568627451  L 11.372549019607842 6.794117647058824  C 12.075163398692812 6.290849673202613  12.92483660130719 6.039215686274509  13.92156862745098 6.03921568627451  C 14.901960784313726 6.039215686274509  15.735294117647058 6.279411764705882  16.42156862745098 6.7598039215686265  L 18.970588235294116 8.544117647058824  Z " fill-rule="evenodd" />
    </mask>
  </defs>
  <g transform="matrix(1 0 0 1 -272 -275 )">
    <path d="M 17.30392156862745 10.868872549019608  C 17.53267973856209 10.708741830065359  17.647058823529413 10.517156862745098  17.647058823529413 10.294117647058824  C 17.647058823529413 10.065359477124181  17.53267973856209 9.870915032679738  17.30392156862745 9.71078431372549  L 14.754901960784315 7.9264705882352935  C 14.526143790849675 7.766339869281046  14.248366013071896 7.686274509803923  13.92156862745098 7.686274509803923  C 13.57843137254902 7.686274509803923  13.284313725490195 7.777777777777779  13.03921568627451 7.96078431372549  C 13.063725490196079 7.977941176470588  13.141339869281047 8.030841503267974  13.272058823529411 8.119485294117647  C 13.402777777777779 8.20812908496732  13.4906045751634 8.269607843137255  13.535539215686274 8.303921568627452  C 13.580473856209153 8.338235294117647  13.641748366013074 8.392565359477125  13.719362745098039 8.466911764705882  C 13.796977124183007 8.54125816993464  13.850081699346406 8.614174836601308  13.878676470588236 8.685661764705882  C 13.907271241830069 8.757148692810457  13.92156862745098 8.83578431372549  13.92156862745098 8.92156862745098  C 13.92156862745098 9.15032679738562  13.807189542483663 9.344771241830065  13.57843137254902 9.504901960784315  C 13.34967320261438 9.665032679738562  13.071895424836601 9.745098039215685  12.745098039215685 9.745098039215685  C 12.622549019607842 9.745098039215685  12.510212418300654 9.735089869281046  12.408088235294116 9.715073529411764  C 12.305964052287583 9.695057189542483  12.201797385620916 9.657883986928104  12.095588235294116 9.60355392156863  C 11.989379084967322 9.54922385620915  11.911764705882355 9.506331699346404  11.862745098039216 9.474877450980392  C 11.81372549019608 9.443423202614378  11.725898692810459 9.381944444444443  11.599264705882353 9.290441176470587  C 11.47263071895425 9.198937908496731  11.397058823529411 9.144607843137255  11.372549019607842 9.127450980392156  C 11.102941176470589 9.3047385620915  10.968137254901961 9.513480392156861  10.968137254901961 9.753676470588236  C 10.968137254901961 9.982434640522875  11.082516339869281 10.17687908496732  11.311274509803921 10.337009803921568  L 13.83578431372549 12.112745098039216  C 14.056372549019606 12.267156862745098  14.334150326797385 12.344362745098039  14.669117647058822 12.344362745098039  C 14.995915032679738 12.344362745098039  15.273692810457518 12.270016339869281  15.502450980392158 12.121323529411764  L 17.30392156862745 10.868872549019608  Z M 8.627450980392158 4.872549019607843  C 8.897058823529411 4.695261437908496  9.031862745098039 4.486519607843137  9.031862745098039 4.246323529411765  C 9.031862745098039 4.017565359477124  8.917483660130719 3.8231209150326784  8.688725490196079 3.6629901960784306  L 6.16421568627451 1.8872549019607838  C 5.935457516339869 1.727124183006536  5.657679738562091 1.6470588235294121  5.330882352941177 1.6470588235294121  C 5.012254901960784 1.6470588235294121  4.734477124183007 1.724264705882353  4.497549019607844 1.8786764705882348  L 2.6960784313725488 3.131127450980392  C 2.4673202614379086 3.2912581699346397  2.3529411764705883 3.482843137254902  2.3529411764705883 3.7058823529411757  C 2.3529411764705883 3.9346405228758154  2.4673202614379086 4.129084967320261  2.6960784313725488 4.28921568627451  L 5.245098039215686 6.0735294117647065  C 5.465686274509805 6.227941176470588  5.743464052287583 6.305147058823529  6.078431372549019 6.305147058823529  C 6.421568627450981 6.305147058823529  6.715686274509803 6.216503267973856  6.96078431372549 6.03921568627451  C 6.936274509803921 6.02205882352941  6.858660130718955 5.969158496732026  6.727941176470589 5.880514705882353  C 6.597222222222223 5.79187091503268  6.509395424836603 5.730392156862745  6.464460784313726 5.696078431372549  C 6.419526143790851 5.661764705882353  6.358251633986929 5.607434640522876  6.2806372549019605 5.533088235294118  C 6.203022875816995 5.4587418300653585  6.149918300653595 5.3858251633986916  6.121323529411765 5.314338235294118  C 6.092728758169935 5.242851307189541  6.078431372549019 5.16421568627451  6.078431372549019 5.07843137254902  C 6.078431372549019 4.849673202614379  6.19281045751634 4.655228758169933  6.421568627450981 4.495098039215685  C 6.650326797385622 4.334967320261437  6.9281045751634 4.254901960784315  7.254901960784314 4.254901960784315  C 7.377450980392157 4.254901960784315  7.489787581699348 4.2649101307189525  7.591911764705882 4.284926470588235  C 7.694035947712418 4.304942810457516  7.798202614379085 4.3421160130718945  7.904411764705882 4.3964460784313735  C 8.01062091503268 4.450776143790849  8.088235294117647 4.493668300653594  8.137254901960784 4.525122549019608  C 8.186274509803921 4.5565767973856195  8.274101307189543 4.6180555555555545  8.400735294117647 4.709558823529412  C 8.527369281045752 4.801062091503266  8.602941176470589 4.855392156862745  8.627450980392158 4.872549019607843  Z M 18.970588235294116 8.544117647058824  C 19.65686274509804 9.024509803921568  20 9.607843137254902  20 10.294117647058824  C 20 10.980392156862745  19.65277777777778 11.560866013071896  18.958333333333332 12.035539215686274  L 17.15686274509804 13.28799019607843  C 16.478758169934643 13.76266339869281  15.649509803921568 14  14.669117647058822 14  C 13.680555555555557 14  12.847222222222223 13.756944444444445  12.169117647058822 13.270833333333332  L 9.644607843137255 11.495098039215685  C 8.966503267973858 11.020424836601308  8.627450980392158 10.439950980392156  8.627450980392158 9.753676470588236  C 8.627450980392158 9.050245098039216  8.986928104575163 8.452614379084967  9.705882352941176 7.96078431372549  L 8.627450980392158 7.205882352941176  C 7.92483660130719 7.709150326797387  7.075163398692811 7.96078431372549  6.078431372549019 7.96078431372549  C 5.098039215686274 7.96078431372549  4.264705882352941 7.720588235294118  3.5784313725490198 7.240196078431372  L 1.0294117647058822 5.455882352941176  C 0.3431372549019608 4.975490196078431  0 4.392156862745098  0 3.7058823529411757  C 0 3.019607843137255  0.34722222222222215 2.4391339869281037  1.0416666666666667 1.9644607843137247  L 2.8431372549019605 0.7120098039215692  C 3.52124183006536 0.2373366013071887  4.3504901960784315 0  5.330882352941177 0  C 6.3194444444444455 0  7.152777777777779 0.2430555555555547  7.830882352941177 0.7291666666666672  L 10.355392156862745 2.504901960784314  C 11.033496732026144 2.9795751633986916  11.372549019607842 3.5600490196078427  11.372549019607842 4.246323529411765  C 11.372549019607842 4.949754901960784  11.013071895424837 5.547385620915032  10.294117647058822 6.03921568627451  L 11.372549019607842 6.794117647058824  C 12.075163398692812 6.290849673202613  12.92483660130719 6.039215686274509  13.92156862745098 6.03921568627451  C 14.901960784313726 6.039215686274509  15.735294117647058 6.279411764705882  16.42156862745098 6.7598039215686265  L 18.970588235294116 8.544117647058824  Z " fill-rule="nonzero" fill="rgba(0, 0, 0, 1)" stroke="none" transform="matrix(1 0 0 1 272 275 )" class="fill" />
    <path d="M 17.30392156862745 10.868872549019608  C 17.53267973856209 10.708741830065359  17.647058823529413 10.517156862745098  17.647058823529413 10.294117647058824  C 17.647058823529413 10.065359477124181  17.53267973856209 9.870915032679738  17.30392156862745 9.71078431372549  L 14.754901960784315 7.9264705882352935  C 14.526143790849675 7.766339869281046  14.248366013071896 7.686274509803923  13.92156862745098 7.686274509803923  C 13.57843137254902 7.686274509803923  13.284313725490195 7.777777777777779  13.03921568627451 7.96078431372549  C 13.063725490196079 7.977941176470588  13.141339869281047 8.030841503267974  13.272058823529411 8.119485294117647  C 13.402777777777779 8.20812908496732  13.4906045751634 8.269607843137255  13.535539215686274 8.303921568627452  C 13.580473856209153 8.338235294117647  13.641748366013074 8.392565359477125  13.719362745098039 8.466911764705882  C 13.796977124183007 8.54125816993464  13.850081699346406 8.614174836601308  13.878676470588236 8.685661764705882  C 13.907271241830069 8.757148692810457  13.92156862745098 8.83578431372549  13.92156862745098 8.92156862745098  C 13.92156862745098 9.15032679738562  13.807189542483663 9.344771241830065  13.57843137254902 9.504901960784315  C 13.34967320261438 9.665032679738562  13.071895424836601 9.745098039215685  12.745098039215685 9.745098039215685  C 12.622549019607842 9.745098039215685  12.510212418300654 9.735089869281046  12.408088235294116 9.715073529411764  C 12.305964052287583 9.695057189542483  12.201797385620916 9.657883986928104  12.095588235294116 9.60355392156863  C 11.989379084967322 9.54922385620915  11.911764705882355 9.506331699346404  11.862745098039216 9.474877450980392  C 11.81372549019608 9.443423202614378  11.725898692810459 9.381944444444443  11.599264705882353 9.290441176470587  C 11.47263071895425 9.198937908496731  11.397058823529411 9.144607843137255  11.372549019607842 9.127450980392156  C 11.102941176470589 9.3047385620915  10.968137254901961 9.513480392156861  10.968137254901961 9.753676470588236  C 10.968137254901961 9.982434640522875  11.082516339869281 10.17687908496732  11.311274509803921 10.337009803921568  L 13.83578431372549 12.112745098039216  C 14.056372549019606 12.267156862745098  14.334150326797385 12.344362745098039  14.669117647058822 12.344362745098039  C 14.995915032679738 12.344362745098039  15.273692810457518 12.270016339869281  15.502450980392158 12.121323529411764  L 17.30392156862745 10.868872549019608  Z " stroke-width="0" stroke-dasharray="0" stroke="rgba(255, 255, 255, 0)" fill="none" transform="matrix(1 0 0 1 272 275 )" class="stroke" mask="url(#Clip359)" />
    <path d="M 8.627450980392158 4.872549019607843  C 8.897058823529411 4.695261437908496  9.031862745098039 4.486519607843137  9.031862745098039 4.246323529411765  C 9.031862745098039 4.017565359477124  8.917483660130719 3.8231209150326784  8.688725490196079 3.6629901960784306  L 6.16421568627451 1.8872549019607838  C 5.935457516339869 1.727124183006536  5.657679738562091 1.6470588235294121  5.330882352941177 1.6470588235294121  C 5.012254901960784 1.6470588235294121  4.734477124183007 1.724264705882353  4.497549019607844 1.8786764705882348  L 2.6960784313725488 3.131127450980392  C 2.4673202614379086 3.2912581699346397  2.3529411764705883 3.482843137254902  2.3529411764705883 3.7058823529411757  C 2.3529411764705883 3.9346405228758154  2.4673202614379086 4.129084967320261  2.6960784313725488 4.28921568627451  L 5.245098039215686 6.0735294117647065  C 5.465686274509805 6.227941176470588  5.743464052287583 6.305147058823529  6.078431372549019 6.305147058823529  C 6.421568627450981 6.305147058823529  6.715686274509803 6.216503267973856  6.96078431372549 6.03921568627451  C 6.936274509803921 6.02205882352941  6.858660130718955 5.969158496732026  6.727941176470589 5.880514705882353  C 6.597222222222223 5.79187091503268  6.509395424836603 5.730392156862745  6.464460784313726 5.696078431372549  C 6.419526143790851 5.661764705882353  6.358251633986929 5.607434640522876  6.2806372549019605 5.533088235294118  C 6.203022875816995 5.4587418300653585  6.149918300653595 5.3858251633986916  6.121323529411765 5.314338235294118  C 6.092728758169935 5.242851307189541  6.078431372549019 5.16421568627451  6.078431372549019 5.07843137254902  C 6.078431372549019 4.849673202614379  6.19281045751634 4.655228758169933  6.421568627450981 4.495098039215685  C 6.650326797385622 4.334967320261437  6.9281045751634 4.254901960784315  7.254901960784314 4.254901960784315  C 7.377450980392157 4.254901960784315  7.489787581699348 4.2649101307189525  7.591911764705882 4.284926470588235  C 7.694035947712418 4.304942810457516  7.798202614379085 4.3421160130718945  7.904411764705882 4.3964460784313735  C 8.01062091503268 4.450776143790849  8.088235294117647 4.493668300653594  8.137254901960784 4.525122549019608  C 8.186274509803921 4.5565767973856195  8.274101307189543 4.6180555555555545  8.400735294117647 4.709558823529412  C 8.527369281045752 4.801062091503266  8.602941176470589 4.855392156862745  8.627450980392158 4.872549019607843  Z " stroke-width="0" stroke-dasharray="0" stroke="rgba(255, 255, 255, 0)" fill="none" transform="matrix(1 0 0 1 272 275 )" class="stroke" mask="url(#Clip359)" />
    <path d="M 18.970588235294116 8.544117647058824  C 19.65686274509804 9.024509803921568  20 9.607843137254902  20 10.294117647058824  C 20 10.980392156862745  19.65277777777778 11.560866013071896  18.958333333333332 12.035539215686274  L 17.15686274509804 13.28799019607843  C 16.478758169934643 13.76266339869281  15.649509803921568 14  14.669117647058822 14  C 13.680555555555557 14  12.847222222222223 13.756944444444445  12.169117647058822 13.270833333333332  L 9.644607843137255 11.495098039215685  C 8.966503267973858 11.020424836601308  8.627450980392158 10.439950980392156  8.627450980392158 9.753676470588236  C 8.627450980392158 9.050245098039216  8.986928104575163 8.452614379084967  9.705882352941176 7.96078431372549  L 8.627450980392158 7.205882352941176  C 7.92483660130719 7.709150326797387  7.075163398692811 7.96078431372549  6.078431372549019 7.96078431372549  C 5.098039215686274 7.96078431372549  4.264705882352941 7.720588235294118  3.5784313725490198 7.240196078431372  L 1.0294117647058822 5.455882352941176  C 0.3431372549019608 4.975490196078431  0 4.392156862745098  0 3.7058823529411757  C 0 3.019607843137255  0.34722222222222215 2.4391339869281037  1.0416666666666667 1.9644607843137247  L 2.8431372549019605 0.7120098039215692  C 3.52124183006536 0.2373366013071887  4.3504901960784315 0  5.330882352941177 0  C 6.3194444444444455 0  7.152777777777779 0.2430555555555547  7.830882352941177 0.7291666666666672  L 10.355392156862745 2.504901960784314  C 11.033496732026144 2.9795751633986916  11.372549019607842 3.5600490196078427  11.372549019607842 4.246323529411765  C 11.372549019607842 4.949754901960784  11.013071895424837 5.547385620915032  10.294117647058822 6.03921568627451  L 11.372549019607842 6.794117647058824  C 12.075163398692812 6.290849673202613  12.92483660130719 6.039215686274509  13.92156862745098 6.03921568627451  C 14.901960784313726 6.039215686274509  15.735294117647058 6.279411764705882  16.42156862745098 6.7598039215686265  L 18.970588235294116 8.544117647058824  Z " stroke-width="0" stroke-dasharray="0" stroke="rgba(255, 255, 255, 0)" fill="none" transform="matrix(1 0 0 1 272 275 )" class="stroke" mask="url(#Clip359)" />
  </g>
</svg>