<?xml version="1.0" encoding="utf-8"?>
<svg version="1.1" xmlns:xlink="http://www.w3.org/1999/xlink" width="17px" height="14px" xmlns="http://www.w3.org/2000/svg">
  <defs>
    <pattern id="BGPattern" patternUnits="userSpaceOnUse" alignment="0 0" imageRepeat="None" />
    <mask fill="white" id="Clip360">
      <path d="M 16.87769784172662 13.799479166666668  C 16.796163069544363 13.933159722222223  16.67386091127098 14  16.510791366906474 14  C 16.211830535571547 14  15.761690647482016 13.989366319444443  15.16037170263789 13.968098958333332  C 14.559052757793765 13.946831597222223  14.105515587529975 13.936197916666668  13.799760191846522 13.936197916666668  C 13.500799360511593 13.936197916666668  13.052358113509193 13.946831597222223  12.454436450839328 13.968098958333332  C 11.856514788169466 13.989366319444443  11.408073541167068 14  11.109112709832136 14  C 10.946043165467625 14  10.820343725019985 13.93771701388889  10.732014388489208 13.813151041666668  C 10.643685051958434 13.688585069444443  10.599520383693045 13.550347222222223  10.599520383693045 13.3984375  C 10.599520383693045 13.210069444444443  10.657274180655476 13.0703125  10.772781774580334 12.979166666666668  C 10.888289368505198 12.888020833333332  11.02078337330136 12.836371527777777  11.170263788968825 12.82421875  C 11.31974420463629 12.812065972222223  11.493005595523583 12.79079861111111  11.690047961630697 12.760416666666668  C 11.88709032773781 12.730034722222223  12.039968025579538 12.684461805555557  12.148681055155876 12.623697916666668  C 12.372901678657074 12.49609375  12.485011990407674 12.070746527777777  12.485011990407674 11.34765625  L 12.474820143884893 7.783854166666666  C 12.474820143884893 7.65625  12.471422861710632 7.562065972222221  12.46462829736211 7.501302083333334  C 12.376298960831337 7.476996527777779  12.206434852118306 7.46484375  11.95503597122302 7.46484375  L 5.075539568345324 7.46484375  C 4.81734612310152 7.46484375  4.64408473221423 7.476996527777779  4.555755395683454 7.501302083333334  C 4.548960831334933 7.562065972222221  4.545563549160671 7.65625  4.545563549160671 7.783854166666666  L 4.53537170263789 11.165364583333332  C 4.53537170263789 12.028211805555557  4.6610711430855325 12.526475694444443  4.912470023980815 12.66015625  C 5.021183053557155 12.72092013888889  5.184252597921663 12.760416666666668  5.401678657074341 12.778645833333332  C 5.619104716227019 12.796875  5.812749800159872 12.807508680555557  5.982613908872901 12.810546875  C 6.152478017585932 12.813585069444443  6.305355715427659 12.85915798611111  6.4412470023980815 12.947265625  C 6.577138289368505 13.03537326388889  6.6450839328537175 13.17361111111111  6.6450839328537175 13.361979166666668  C 6.6450839328537175 13.519965277777777  6.60261790567546 13.66579861111111  6.517685851318945 13.799479166666668  C 6.432753796962431 13.933159722222223  6.3087529976019185 14  6.145683453237409 14  C 5.826338928856916 14  5.352418065547562 13.989366319444443  4.723920863309353 13.968098958333332  C 4.095423661071143 13.946831597222223  3.6249000799360513 13.936197916666668  3.312350119904077 13.936197916666668  C 3.020183852917666 13.936197916666668  2.58533173461231 13.946831597222223  2.0077937649880098 13.968098958333332  C 1.4302557953637092 13.989366319444443  0.9988009592326139 14  0.7134292565947242 14  C 0.557154276578737 14  0.4365507593924861 13.936197916666668  0.3516187050359712 13.80859375  C 0.26668665067945646 13.680989583333332  0.22422062350119903 13.544270833333332  0.22422062350119903 13.3984375  C 0.22422062350119903 13.216145833333332  0.2768784972022382 13.079427083333332  0.3821942446043165 12.98828125  C 0.487509992006395 12.897135416666668  0.6098121502797762 12.84396701388889  0.7491007194244603 12.828776041666668  C 0.8883892885691449 12.813585069444443  1.0497601918465227 12.79079861111111  1.2332134292565946 12.760416666666668  C 1.416666666666667 12.730034722222223  1.5593525179856118 12.684461805555557  1.6612709832134294 12.623697916666668  C 1.8854916067146286 12.483940972222223  1.9976019184652278 12.049479166666668  1.9976019184652278 11.3203125  L 1.987410071942446 10.80078125  L 1.987410071942446 3.390625  C 1.987410071942446 3.372395833333333  1.9891087130295766 3.293402777777777  1.992505995203837 3.153645833333333  C 1.995903277378098 3.0138888888888875  1.995903277378098 2.902994791666667  1.992505995203837 2.820963541666667  C 1.9891087130295766 2.738932291666667  1.9840127897681856 2.6219618055555545  1.9772182254196642 2.470052083333333  C 1.9704236610711434 2.3181423611111107  1.9585331734612312 2.1905381944444438  1.941546762589928 2.087239583333333  C 1.9245603517186252 1.9839409722222203  1.9024780175859313 1.873046875  1.8752997601918464 1.7545572916666672  C 1.848121502797762 1.6360677083333328  1.8107513988808954 1.5403645833333328  1.763189448441247 1.4674479166666672  C 1.7156274980015993 1.39453125  1.6612709832134296 1.33984375  1.6001199040767387 1.3033854166666672  C 1.4982014388489213 1.2426215277777766  1.3453237410071945 1.2061631944444438  1.1414868105515588 1.1940104166666672  C 0.9376498800959232 1.1818576388888875  0.757593924860112 1.17578125  0.6013189448441247 1.17578125  C 0.4450439648281375 1.17578125  0.3057553956834532 1.1332465277777766  0.18345323741007194 1.0481770833333328  C 0.06115107913669065 0.9631076388888875  0 0.8263888888888875  0 0.6380208333333328  C 0 0.4800347222222203  0.040767386091127095 0.3342013888888875  0.1223021582733813 0.20052083333333282  C 0.2038369304556355 0.06684027777777657  0.32613908872901676 0  0.4892086330935252 0  C 0.8017585931254998 0  1.2722821742605916 0.010633680555554692  1.900779376498801 0.031901041666667185  C 2.5292765787370106 0.05316840277777657  2.9998001598721027 0.06380208333333282  3.312350119904077 0.06380208333333282  C 3.5977218225419674 0.06380208333333282  4.027478017585932 0.05316840277777657  4.601618705035971 0.031901041666667185  C 5.175759392486011 0.010633680555554692  5.605515587529976 0  5.890887290167866 0  C 6.060751398880896 0  6.188149480415668 0.06684027777777657  6.2730815347721816 0.20052083333333282  C 6.3580135891286975 0.3342013888888875  6.400479616306955 0.4800347222222203  6.400479616306955 0.6380208333333328  C 6.400479616306955 0.8203125  6.342725819344525 0.9524739583333328  6.227218225419664 1.0345052083333328  C 6.111710631494804 1.1165364583333328  5.980915267785772 1.1605902777777766  5.834832134292565 1.1666666666666672  C 5.688749000799362 1.1727430555555547  5.520583533173462 1.1848958333333328  5.330335731414868 1.203125  C 5.140087929656276 1.2213541666666672  4.99400479616307 1.2608506944444438  4.892086330935252 1.3216145833333328  C 4.6542765787370115 1.44921875  4.53537170263789 1.935329861111111  4.53537170263789 2.779947916666667  L 4.545563549160671 5.696614583333333  C 4.545563549160671 5.82421875  4.548960831334933 5.921440972222221  4.555755395683454 5.98828125  C 4.64408473221423 6.006510416666667  4.776578737010393 6.015625  4.953237410071943 6.015625  L 12.077338129496404 6.015625  C 12.247202238209432 6.015625  12.376298960831337 6.006510416666667  12.46462829736211 5.98828125  C 12.471422861710632 5.921440972222221  12.474820143884893 5.82421875  12.474820143884893 5.696614583333333  L 12.485011990407674 2.779947916666667  C 12.485011990407674 1.935329861111111  12.366107114308555 1.44921875  12.128297362110311 1.3216145833333328  C 12.005995203836932 1.2547743055555547  11.807254196642686 1.216796875  11.532074340527577 1.2076822916666672  C 11.25689448441247 1.1985677083333328  11.03267386091127 1.1590711805555547  10.859412470023981 1.0891927083333328  C 10.68615107913669 1.019314236111111  10.599520383693045 0.8689236111111109  10.599520383693045 0.6380208333333328  C 10.599520383693045 0.4800347222222203  10.641986410871304 0.3342013888888875  10.726918465227817 0.20052083333333282  C 10.811850519584334 0.06684027777777657  10.939248601119106 0  11.109112709832136 0  C 11.408073541167068 0  11.856514788169466 0.010633680555554692  12.454436450839328 0.031901041666667185  C 13.052358113509193 0.05316840277777657  13.500799360511593 0.06380208333333282  13.799760191846522 0.06380208333333282  C 14.091926458832933 0.06380208333333282  14.530175859312552 0.05316840277777657  15.114508393285373 0.031901041666667185  C 15.698840927258196 0.010633680555554692  16.13709032773781 0  16.42925659472422 0  C 16.59912070343725 0  16.726518784972022 0.06684027777777657  16.811450839328536 0.20052083333333282  C 16.896382893685054 0.3342013888888875  16.93884892086331 0.4800347222222203  16.93884892086331 0.6380208333333328  C 16.93884892086331 0.8203125  16.87939648281375 0.9539930555555547  16.760491606714627 1.0390625  C 16.641586730615508 1.1241319444444438  16.505695443645088 1.1681857638888875  16.352817745803357 1.1712239583333328  C 16.199940047961633 1.1742621527777766  16.02498001598721 1.183376736111111  15.827937649880095 1.1985677083333328  C 15.630895283772983 1.2137586805555547  15.481414868105515 1.251736111111111  15.379496402877699 1.3125  C 15.141686650679455 1.4522569444444438  15.022781774580334 1.94140625  15.022781774580334 2.779947916666667  L 15.032973621103118 11.375  C 15.032973621103118 12.098090277777777  15.14848121502798 12.5234375  15.379496402877699 12.651041666666668  C 15.48820943245404 12.711805555555557  15.644484412470026 12.752821180555557  15.84832134292566 12.774088541666668  C 16.0521582733813 12.795355902777777  16.233912869704238 12.809027777777777  16.393585131894483 12.815104166666668  C 16.553257394084735 12.821180555555557  16.694244604316548 12.868272569444443  16.816546762589926 12.956380208333332  C 16.93884892086331 13.044487847222223  17 13.1796875  17 13.361979166666668  C 17 13.519965277777777  16.959232613908874 13.66579861111111  16.87769784172662 13.799479166666668  Z " fill-rule="evenodd" />
    </mask>
  </defs>
  <g transform="matrix(1 0 0 1 -151 -275 )">
    <path d="M 16.87769784172662 13.799479166666668  C 16.796163069544363 13.933159722222223  16.67386091127098 14  16.510791366906474 14  C 16.211830535571547 14  15.761690647482016 13.989366319444443  15.16037170263789 13.968098958333332  C 14.559052757793765 13.946831597222223  14.105515587529975 13.936197916666668  13.799760191846522 13.936197916666668  C 13.500799360511593 13.936197916666668  13.052358113509193 13.946831597222223  12.454436450839328 13.968098958333332  C 11.856514788169466 13.989366319444443  11.408073541167068 14  11.109112709832136 14  C 10.946043165467625 14  10.820343725019985 13.93771701388889  10.732014388489208 13.813151041666668  C 10.643685051958434 13.688585069444443  10.599520383693045 13.550347222222223  10.599520383693045 13.3984375  C 10.599520383693045 13.210069444444443  10.657274180655476 13.0703125  10.772781774580334 12.979166666666668  C 10.888289368505198 12.888020833333332  11.02078337330136 12.836371527777777  11.170263788968825 12.82421875  C 11.31974420463629 12.812065972222223  11.493005595523583 12.79079861111111  11.690047961630697 12.760416666666668  C 11.88709032773781 12.730034722222223  12.039968025579538 12.684461805555557  12.148681055155876 12.623697916666668  C 12.372901678657074 12.49609375  12.485011990407674 12.070746527777777  12.485011990407674 11.34765625  L 12.474820143884893 7.783854166666666  C 12.474820143884893 7.65625  12.471422861710632 7.562065972222221  12.46462829736211 7.501302083333334  C 12.376298960831337 7.476996527777779  12.206434852118306 7.46484375  11.95503597122302 7.46484375  L 5.075539568345324 7.46484375  C 4.81734612310152 7.46484375  4.64408473221423 7.476996527777779  4.555755395683454 7.501302083333334  C 4.548960831334933 7.562065972222221  4.545563549160671 7.65625  4.545563549160671 7.783854166666666  L 4.53537170263789 11.165364583333332  C 4.53537170263789 12.028211805555557  4.6610711430855325 12.526475694444443  4.912470023980815 12.66015625  C 5.021183053557155 12.72092013888889  5.184252597921663 12.760416666666668  5.401678657074341 12.778645833333332  C 5.619104716227019 12.796875  5.812749800159872 12.807508680555557  5.982613908872901 12.810546875  C 6.152478017585932 12.813585069444443  6.305355715427659 12.85915798611111  6.4412470023980815 12.947265625  C 6.577138289368505 13.03537326388889  6.6450839328537175 13.17361111111111  6.6450839328537175 13.361979166666668  C 6.6450839328537175 13.519965277777777  6.60261790567546 13.66579861111111  6.517685851318945 13.799479166666668  C 6.432753796962431 13.933159722222223  6.3087529976019185 14  6.145683453237409 14  C 5.826338928856916 14  5.352418065547562 13.989366319444443  4.723920863309353 13.968098958333332  C 4.095423661071143 13.946831597222223  3.6249000799360513 13.936197916666668  3.312350119904077 13.936197916666668  C 3.020183852917666 13.936197916666668  2.58533173461231 13.946831597222223  2.0077937649880098 13.968098958333332  C 1.4302557953637092 13.989366319444443  0.9988009592326139 14  0.7134292565947242 14  C 0.557154276578737 14  0.4365507593924861 13.936197916666668  0.3516187050359712 13.80859375  C 0.26668665067945646 13.680989583333332  0.22422062350119903 13.544270833333332  0.22422062350119903 13.3984375  C 0.22422062350119903 13.216145833333332  0.2768784972022382 13.079427083333332  0.3821942446043165 12.98828125  C 0.487509992006395 12.897135416666668  0.6098121502797762 12.84396701388889  0.7491007194244603 12.828776041666668  C 0.8883892885691449 12.813585069444443  1.0497601918465227 12.79079861111111  1.2332134292565946 12.760416666666668  C 1.416666666666667 12.730034722222223  1.5593525179856118 12.684461805555557  1.6612709832134294 12.623697916666668  C 1.8854916067146286 12.483940972222223  1.9976019184652278 12.049479166666668  1.9976019184652278 11.3203125  L 1.987410071942446 10.80078125  L 1.987410071942446 3.390625  C 1.987410071942446 3.372395833333333  1.9891087130295766 3.293402777777777  1.992505995203837 3.153645833333333  C 1.995903277378098 3.0138888888888875  1.995903277378098 2.902994791666667  1.992505995203837 2.820963541666667  C 1.9891087130295766 2.738932291666667  1.9840127897681856 2.6219618055555545  1.9772182254196642 2.470052083333333  C 1.9704236610711434 2.3181423611111107  1.9585331734612312 2.1905381944444438  1.941546762589928 2.087239583333333  C 1.9245603517186252 1.9839409722222203  1.9024780175859313 1.873046875  1.8752997601918464 1.7545572916666672  C 1.848121502797762 1.6360677083333328  1.8107513988808954 1.5403645833333328  1.763189448441247 1.4674479166666672  C 1.7156274980015993 1.39453125  1.6612709832134296 1.33984375  1.6001199040767387 1.3033854166666672  C 1.4982014388489213 1.2426215277777766  1.3453237410071945 1.2061631944444438  1.1414868105515588 1.1940104166666672  C 0.9376498800959232 1.1818576388888875  0.757593924860112 1.17578125  0.6013189448441247 1.17578125  C 0.4450439648281375 1.17578125  0.3057553956834532 1.1332465277777766  0.18345323741007194 1.0481770833333328  C 0.06115107913669065 0.9631076388888875  0 0.8263888888888875  0 0.6380208333333328  C 0 0.4800347222222203  0.040767386091127095 0.3342013888888875  0.1223021582733813 0.20052083333333282  C 0.2038369304556355 0.06684027777777657  0.32613908872901676 0  0.4892086330935252 0  C 0.8017585931254998 0  1.2722821742605916 0.010633680555554692  1.900779376498801 0.031901041666667185  C 2.5292765787370106 0.05316840277777657  2.9998001598721027 0.06380208333333282  3.312350119904077 0.06380208333333282  C 3.5977218225419674 0.06380208333333282  4.027478017585932 0.05316840277777657  4.601618705035971 0.031901041666667185  C 5.175759392486011 0.010633680555554692  5.605515587529976 0  5.890887290167866 0  C 6.060751398880896 0  6.188149480415668 0.06684027777777657  6.2730815347721816 0.20052083333333282  C 6.3580135891286975 0.3342013888888875  6.400479616306955 0.4800347222222203  6.400479616306955 0.6380208333333328  C 6.400479616306955 0.8203125  6.342725819344525 0.9524739583333328  6.227218225419664 1.0345052083333328  C 6.111710631494804 1.1165364583333328  5.980915267785772 1.1605902777777766  5.834832134292565 1.1666666666666672  C 5.688749000799362 1.1727430555555547  5.520583533173462 1.1848958333333328  5.330335731414868 1.203125  C 5.140087929656276 1.2213541666666672  4.99400479616307 1.2608506944444438  4.892086330935252 1.3216145833333328  C 4.6542765787370115 1.44921875  4.53537170263789 1.935329861111111  4.53537170263789 2.779947916666667  L 4.545563549160671 5.696614583333333  C 4.545563549160671 5.82421875  4.548960831334933 5.921440972222221  4.555755395683454 5.98828125  C 4.64408473221423 6.006510416666667  4.776578737010393 6.015625  4.953237410071943 6.015625  L 12.077338129496404 6.015625  C 12.247202238209432 6.015625  12.376298960831337 6.006510416666667  12.46462829736211 5.98828125  C 12.471422861710632 5.921440972222221  12.474820143884893 5.82421875  12.474820143884893 5.696614583333333  L 12.485011990407674 2.779947916666667  C 12.485011990407674 1.935329861111111  12.366107114308555 1.44921875  12.128297362110311 1.3216145833333328  C 12.005995203836932 1.2547743055555547  11.807254196642686 1.216796875  11.532074340527577 1.2076822916666672  C 11.25689448441247 1.1985677083333328  11.03267386091127 1.1590711805555547  10.859412470023981 1.0891927083333328  C 10.68615107913669 1.019314236111111  10.599520383693045 0.8689236111111109  10.599520383693045 0.6380208333333328  C 10.599520383693045 0.4800347222222203  10.641986410871304 0.3342013888888875  10.726918465227817 0.20052083333333282  C 10.811850519584334 0.06684027777777657  10.939248601119106 0  11.109112709832136 0  C 11.408073541167068 0  11.856514788169466 0.010633680555554692  12.454436450839328 0.031901041666667185  C 13.052358113509193 0.05316840277777657  13.500799360511593 0.06380208333333282  13.799760191846522 0.06380208333333282  C 14.091926458832933 0.06380208333333282  14.530175859312552 0.05316840277777657  15.114508393285373 0.031901041666667185  C 15.698840927258196 0.010633680555554692  16.13709032773781 0  16.42925659472422 0  C 16.59912070343725 0  16.726518784972022 0.06684027777777657  16.811450839328536 0.20052083333333282  C 16.896382893685054 0.3342013888888875  16.93884892086331 0.4800347222222203  16.93884892086331 0.6380208333333328  C 16.93884892086331 0.8203125  16.87939648281375 0.9539930555555547  16.760491606714627 1.0390625  C 16.641586730615508 1.1241319444444438  16.505695443645088 1.1681857638888875  16.352817745803357 1.1712239583333328  C 16.199940047961633 1.1742621527777766  16.02498001598721 1.183376736111111  15.827937649880095 1.1985677083333328  C 15.630895283772983 1.2137586805555547  15.481414868105515 1.251736111111111  15.379496402877699 1.3125  C 15.141686650679455 1.4522569444444438  15.022781774580334 1.94140625  15.022781774580334 2.779947916666667  L 15.032973621103118 11.375  C 15.032973621103118 12.098090277777777  15.14848121502798 12.5234375  15.379496402877699 12.651041666666668  C 15.48820943245404 12.711805555555557  15.644484412470026 12.752821180555557  15.84832134292566 12.774088541666668  C 16.0521582733813 12.795355902777777  16.233912869704238 12.809027777777777  16.393585131894483 12.815104166666668  C 16.553257394084735 12.821180555555557  16.694244604316548 12.868272569444443  16.816546762589926 12.956380208333332  C 16.93884892086331 13.044487847222223  17 13.1796875  17 13.361979166666668  C 17 13.519965277777777  16.959232613908874 13.66579861111111  16.87769784172662 13.799479166666668  Z " fill-rule="nonzero" fill="rgba(0, 0, 0, 1)" stroke="none" transform="matrix(1 0 0 1 151 275 )" class="fill" />
    <path d="M 16.87769784172662 13.799479166666668  C 16.796163069544363 13.933159722222223  16.67386091127098 14  16.510791366906474 14  C 16.211830535571547 14  15.761690647482016 13.989366319444443  15.16037170263789 13.968098958333332  C 14.559052757793765 13.946831597222223  14.105515587529975 13.936197916666668  13.799760191846522 13.936197916666668  C 13.500799360511593 13.936197916666668  13.052358113509193 13.946831597222223  12.454436450839328 13.968098958333332  C 11.856514788169466 13.989366319444443  11.408073541167068 14  11.109112709832136 14  C 10.946043165467625 14  10.820343725019985 13.93771701388889  10.732014388489208 13.813151041666668  C 10.643685051958434 13.688585069444443  10.599520383693045 13.550347222222223  10.599520383693045 13.3984375  C 10.599520383693045 13.210069444444443  10.657274180655476 13.0703125  10.772781774580334 12.979166666666668  C 10.888289368505198 12.888020833333332  11.02078337330136 12.836371527777777  11.170263788968825 12.82421875  C 11.31974420463629 12.812065972222223  11.493005595523583 12.79079861111111  11.690047961630697 12.760416666666668  C 11.88709032773781 12.730034722222223  12.039968025579538 12.684461805555557  12.148681055155876 12.623697916666668  C 12.372901678657074 12.49609375  12.485011990407674 12.070746527777777  12.485011990407674 11.34765625  L 12.474820143884893 7.783854166666666  C 12.474820143884893 7.65625  12.471422861710632 7.562065972222221  12.46462829736211 7.501302083333334  C 12.376298960831337 7.476996527777779  12.206434852118306 7.46484375  11.95503597122302 7.46484375  L 5.075539568345324 7.46484375  C 4.81734612310152 7.46484375  4.64408473221423 7.476996527777779  4.555755395683454 7.501302083333334  C 4.548960831334933 7.562065972222221  4.545563549160671 7.65625  4.545563549160671 7.783854166666666  L 4.53537170263789 11.165364583333332  C 4.53537170263789 12.028211805555557  4.6610711430855325 12.526475694444443  4.912470023980815 12.66015625  C 5.021183053557155 12.72092013888889  5.184252597921663 12.760416666666668  5.401678657074341 12.778645833333332  C 5.619104716227019 12.796875  5.812749800159872 12.807508680555557  5.982613908872901 12.810546875  C 6.152478017585932 12.813585069444443  6.305355715427659 12.85915798611111  6.4412470023980815 12.947265625  C 6.577138289368505 13.03537326388889  6.6450839328537175 13.17361111111111  6.6450839328537175 13.361979166666668  C 6.6450839328537175 13.519965277777777  6.60261790567546 13.66579861111111  6.517685851318945 13.799479166666668  C 6.432753796962431 13.933159722222223  6.3087529976019185 14  6.145683453237409 14  C 5.826338928856916 14  5.352418065547562 13.989366319444443  4.723920863309353 13.968098958333332  C 4.095423661071143 13.946831597222223  3.6249000799360513 13.936197916666668  3.312350119904077 13.936197916666668  C 3.020183852917666 13.936197916666668  2.58533173461231 13.946831597222223  2.0077937649880098 13.968098958333332  C 1.4302557953637092 13.989366319444443  0.9988009592326139 14  0.7134292565947242 14  C 0.557154276578737 14  0.4365507593924861 13.936197916666668  0.3516187050359712 13.80859375  C 0.26668665067945646 13.680989583333332  0.22422062350119903 13.544270833333332  0.22422062350119903 13.3984375  C 0.22422062350119903 13.216145833333332  0.2768784972022382 13.079427083333332  0.3821942446043165 12.98828125  C 0.487509992006395 12.897135416666668  0.6098121502797762 12.84396701388889  0.7491007194244603 12.828776041666668  C 0.8883892885691449 12.813585069444443  1.0497601918465227 12.79079861111111  1.2332134292565946 12.760416666666668  C 1.416666666666667 12.730034722222223  1.5593525179856118 12.684461805555557  1.6612709832134294 12.623697916666668  C 1.8854916067146286 12.483940972222223  1.9976019184652278 12.049479166666668  1.9976019184652278 11.3203125  L 1.987410071942446 10.80078125  L 1.987410071942446 3.390625  C 1.987410071942446 3.372395833333333  1.9891087130295766 3.293402777777777  1.992505995203837 3.153645833333333  C 1.995903277378098 3.0138888888888875  1.995903277378098 2.902994791666667  1.992505995203837 2.820963541666667  C 1.9891087130295766 2.738932291666667  1.9840127897681856 2.6219618055555545  1.9772182254196642 2.470052083333333  C 1.9704236610711434 2.3181423611111107  1.9585331734612312 2.1905381944444438  1.941546762589928 2.087239583333333  C 1.9245603517186252 1.9839409722222203  1.9024780175859313 1.873046875  1.8752997601918464 1.7545572916666672  C 1.848121502797762 1.6360677083333328  1.8107513988808954 1.5403645833333328  1.763189448441247 1.4674479166666672  C 1.7156274980015993 1.39453125  1.6612709832134296 1.33984375  1.6001199040767387 1.3033854166666672  C 1.4982014388489213 1.2426215277777766  1.3453237410071945 1.2061631944444438  1.1414868105515588 1.1940104166666672  C 0.9376498800959232 1.1818576388888875  0.757593924860112 1.17578125  0.6013189448441247 1.17578125  C 0.4450439648281375 1.17578125  0.3057553956834532 1.1332465277777766  0.18345323741007194 1.0481770833333328  C 0.06115107913669065 0.9631076388888875  0 0.8263888888888875  0 0.6380208333333328  C 0 0.4800347222222203  0.040767386091127095 0.3342013888888875  0.1223021582733813 0.20052083333333282  C 0.2038369304556355 0.06684027777777657  0.32613908872901676 0  0.4892086330935252 0  C 0.8017585931254998 0  1.2722821742605916 0.010633680555554692  1.900779376498801 0.031901041666667185  C 2.5292765787370106 0.05316840277777657  2.9998001598721027 0.06380208333333282  3.312350119904077 0.06380208333333282  C 3.5977218225419674 0.06380208333333282  4.027478017585932 0.05316840277777657  4.601618705035971 0.031901041666667185  C 5.175759392486011 0.010633680555554692  5.605515587529976 0  5.890887290167866 0  C 6.060751398880896 0  6.188149480415668 0.06684027777777657  6.2730815347721816 0.20052083333333282  C 6.3580135891286975 0.3342013888888875  6.400479616306955 0.4800347222222203  6.400479616306955 0.6380208333333328  C 6.400479616306955 0.8203125  6.342725819344525 0.9524739583333328  6.227218225419664 1.0345052083333328  C 6.111710631494804 1.1165364583333328  5.980915267785772 1.1605902777777766  5.834832134292565 1.1666666666666672  C 5.688749000799362 1.1727430555555547  5.520583533173462 1.1848958333333328  5.330335731414868 1.203125  C 5.140087929656276 1.2213541666666672  4.99400479616307 1.2608506944444438  4.892086330935252 1.3216145833333328  C 4.6542765787370115 1.44921875  4.53537170263789 1.935329861111111  4.53537170263789 2.779947916666667  L 4.545563549160671 5.696614583333333  C 4.545563549160671 5.82421875  4.548960831334933 5.921440972222221  4.555755395683454 5.98828125  C 4.64408473221423 6.006510416666667  4.776578737010393 6.015625  4.953237410071943 6.015625  L 12.077338129496404 6.015625  C 12.247202238209432 6.015625  12.376298960831337 6.006510416666667  12.46462829736211 5.98828125  C 12.471422861710632 5.921440972222221  12.474820143884893 5.82421875  12.474820143884893 5.696614583333333  L 12.485011990407674 2.779947916666667  C 12.485011990407674 1.935329861111111  12.366107114308555 1.44921875  12.128297362110311 1.3216145833333328  C 12.005995203836932 1.2547743055555547  11.807254196642686 1.216796875  11.532074340527577 1.2076822916666672  C 11.25689448441247 1.1985677083333328  11.03267386091127 1.1590711805555547  10.859412470023981 1.0891927083333328  C 10.68615107913669 1.019314236111111  10.599520383693045 0.8689236111111109  10.599520383693045 0.6380208333333328  C 10.599520383693045 0.4800347222222203  10.641986410871304 0.3342013888888875  10.726918465227817 0.20052083333333282  C 10.811850519584334 0.06684027777777657  10.939248601119106 0  11.109112709832136 0  C 11.408073541167068 0  11.856514788169466 0.010633680555554692  12.454436450839328 0.031901041666667185  C 13.052358113509193 0.05316840277777657  13.500799360511593 0.06380208333333282  13.799760191846522 0.06380208333333282  C 14.091926458832933 0.06380208333333282  14.530175859312552 0.05316840277777657  15.114508393285373 0.031901041666667185  C 15.698840927258196 0.010633680555554692  16.13709032773781 0  16.42925659472422 0  C 16.59912070343725 0  16.726518784972022 0.06684027777777657  16.811450839328536 0.20052083333333282  C 16.896382893685054 0.3342013888888875  16.93884892086331 0.4800347222222203  16.93884892086331 0.6380208333333328  C 16.93884892086331 0.8203125  16.87939648281375 0.9539930555555547  16.760491606714627 1.0390625  C 16.641586730615508 1.1241319444444438  16.505695443645088 1.1681857638888875  16.352817745803357 1.1712239583333328  C 16.199940047961633 1.1742621527777766  16.02498001598721 1.183376736111111  15.827937649880095 1.1985677083333328  C 15.630895283772983 1.2137586805555547  15.481414868105515 1.251736111111111  15.379496402877699 1.3125  C 15.141686650679455 1.4522569444444438  15.022781774580334 1.94140625  15.022781774580334 2.779947916666667  L 15.032973621103118 11.375  C 15.032973621103118 12.098090277777777  15.14848121502798 12.5234375  15.379496402877699 12.651041666666668  C 15.48820943245404 12.711805555555557  15.644484412470026 12.752821180555557  15.84832134292566 12.774088541666668  C 16.0521582733813 12.795355902777777  16.233912869704238 12.809027777777777  16.393585131894483 12.815104166666668  C 16.553257394084735 12.821180555555557  16.694244604316548 12.868272569444443  16.816546762589926 12.956380208333332  C 16.93884892086331 13.044487847222223  17 13.1796875  17 13.361979166666668  C 17 13.519965277777777  16.959232613908874 13.66579861111111  16.87769784172662 13.799479166666668  Z " stroke-width="0" stroke-dasharray="0" stroke="rgba(255, 255, 255, 0)" fill="none" transform="matrix(1 0 0 1 151 275 )" class="stroke" mask="url(#Clip360)" />
  </g>
</svg>