<?xml version="1.0" encoding="utf-8"?>
<svg version="1.1" xmlns:xlink="http://www.w3.org/1999/xlink" width="13px" height="14px" xmlns="http://www.w3.org/2000/svg">
  <defs>
    <pattern id="BGPattern" patternUnits="userSpaceOnUse" alignment="0 0" imageRepeat="None" />
    <mask fill="white" id="Clip361">
      <path d="M 1.5361328125 13.881510416666668  C 0.7574869791666666 13.936197916666668  0.24544270833333337 13.969618055555557  0 13.981770833333332  L 0.2158203125 13.20703125  C 0.40201822916666674 13.164496527777777  0.6622721354166667 13.114366319444443  0.99658203125 13.056640625  C 1.3308919270833335 12.998914930555557  1.6355794270833335 12.94118923611111  1.91064453125 12.883463541666668  C 2.185709635416667 12.825737847222223  2.4375 12.754340277777777  2.666015625 12.669270833333332  C 2.902994791666667 12.456597222222223  3.0764973958333335 12.149739583333332  3.1865234375 11.748697916666668  C 3.194986979166667 11.706163194444443  3.457356770833334 10.828125  3.9736328125 9.114583333333334  C 4.489908854166667 7.401041666666666  4.972330729166667 5.749782986111111  5.4208984375 4.160807291666667  C 5.869466145833334 2.5718315972222205  6.089518229166668 1.6710069444444438  6.0810546875 1.4583333333333328  L 6.0810546875 1.23046875  C 5.8779296875 1.1514756944444438  5.647298177083334 1.0952690972222203  5.38916015625 1.0618489583333328  C 5.131022135416667 1.0284288194444438  4.8369140625 1.0041232638888875  4.5068359375 0.9889322916666672  C 4.1767578125 0.9737413194444438  3.931315104166667 0.95703125  3.7705078125 0.9388020833333328  L 4.01171875 0  C 4.291015625 0.012152777777776569  4.798828125 0.031901041666667185  5.53515625 0.059244791666667185  C 6.271484375 0.08658854166666718  6.904134114583334 0.10785590277777657  7.43310546875 0.123046875  C 7.962076822916668 0.13823784722222032  8.472005208333334 0.14583333333333282  8.962890625 0.14583333333333282  C 9.369140625 0.14583333333333282  9.785970052083334 0.13823784722222032  10.21337890625 0.123046875  C 10.640787760416668 0.10785590277777657  11.152832031250002 0.08658854166666718  11.74951171875 0.059244791666667185  C 12.346191406250002 0.031901041666667185  12.763020833333336 0.012152777777776569  13 0  C 12.957682291666668 0.23697916666666718  12.877278645833334 0.5073784722222203  12.7587890625 0.8111979166666672  C 12.504882812500002 0.8719618055555547  12.075358072916668 0.9585503472222203  11.47021484375 1.0709635416666672  C 10.865071614583334 1.183376736111111  10.405924479166668 1.28515625  10.0927734375 1.3763020833333328  C 10.025065104166668 1.4917534722222203  9.9658203125 1.620876736111111  9.9150390625 1.763671875  C 9.8642578125 1.9064670138888875  9.826171875 2.027994791666667  9.80078125 2.128255208333333  C 9.775390625 2.228515625  9.74365234375 2.3667534722222205  9.70556640625 2.54296875  C 9.66748046875 2.719184027777777  9.639973958333334 2.8467881944444438  9.623046875 2.92578125  C 9.39453125 3.8250868055555545  9.024251302083334 5.099609374999998  8.51220703125 6.749348958333333  C 8.000162760416668 8.399088541666666  7.672200520833334 9.479166666666666  7.5283203125 9.989583333333334  C 7.511393229166668 10.044270833333334  7.456380208333334 10.220486111111109  7.36328125 10.518229166666668  C 7.270182291666668 10.815972222222223  7.185546875 11.089409722222223  7.109375 11.338541666666668  C 7.033203125 11.58767361111111  6.965494791666668 11.841362847222223  6.90625 12.099609375  C 6.847005208333334 12.357855902777777  6.821614583333334 12.532552083333332  6.830078125 12.623697916666668  L 6.8427734375 12.787760416666668  C 6.986653645833334 12.812065972222223  7.76953125 12.90625  9.19140625 13.0703125  C 9.166015625 13.33767361111111  9.098307291666668 13.63845486111111  8.98828125 13.97265625  C 8.895182291666668 13.97265625  8.757649739583334 13.977213541666668  8.57568359375 13.986328125  C 8.393717447916668 13.995442708333332  8.256184895833334 14  8.1630859375 14  C 7.917643229166668 14  7.549479166666668 13.969618055555557  7.05859375 13.908854166666668  C 6.567708333333334 13.848090277777777  6.203776041666668 13.817708333333332  5.966796875 13.817708333333332  C 4.798828125 13.805555555555557  3.927083333333334 13.799479166666668  3.3515625 13.799479166666668  C 2.9199218750000004 13.799479166666668  2.314778645833334 13.826822916666668  1.5361328125 13.881510416666668  Z " fill-rule="evenodd" />
    </mask>
  </defs>
  <g transform="matrix(1 0 0 1 -211 -275 )">
    <path d="M 1.5361328125 13.881510416666668  C 0.7574869791666666 13.936197916666668  0.24544270833333337 13.969618055555557  0 13.981770833333332  L 0.2158203125 13.20703125  C 0.40201822916666674 13.164496527777777  0.6622721354166667 13.114366319444443  0.99658203125 13.056640625  C 1.3308919270833335 12.998914930555557  1.6355794270833335 12.94118923611111  1.91064453125 12.883463541666668  C 2.185709635416667 12.825737847222223  2.4375 12.754340277777777  2.666015625 12.669270833333332  C 2.902994791666667 12.456597222222223  3.0764973958333335 12.149739583333332  3.1865234375 11.748697916666668  C 3.194986979166667 11.706163194444443  3.457356770833334 10.828125  3.9736328125 9.114583333333334  C 4.489908854166667 7.401041666666666  4.972330729166667 5.749782986111111  5.4208984375 4.160807291666667  C 5.869466145833334 2.5718315972222205  6.089518229166668 1.6710069444444438  6.0810546875 1.4583333333333328  L 6.0810546875 1.23046875  C 5.8779296875 1.1514756944444438  5.647298177083334 1.0952690972222203  5.38916015625 1.0618489583333328  C 5.131022135416667 1.0284288194444438  4.8369140625 1.0041232638888875  4.5068359375 0.9889322916666672  C 4.1767578125 0.9737413194444438  3.931315104166667 0.95703125  3.7705078125 0.9388020833333328  L 4.01171875 0  C 4.291015625 0.012152777777776569  4.798828125 0.031901041666667185  5.53515625 0.059244791666667185  C 6.271484375 0.08658854166666718  6.904134114583334 0.10785590277777657  7.43310546875 0.123046875  C 7.962076822916668 0.13823784722222032  8.472005208333334 0.14583333333333282  8.962890625 0.14583333333333282  C 9.369140625 0.14583333333333282  9.785970052083334 0.13823784722222032  10.21337890625 0.123046875  C 10.640787760416668 0.10785590277777657  11.152832031250002 0.08658854166666718  11.74951171875 0.059244791666667185  C 12.346191406250002 0.031901041666667185  12.763020833333336 0.012152777777776569  13 0  C 12.957682291666668 0.23697916666666718  12.877278645833334 0.5073784722222203  12.7587890625 0.8111979166666672  C 12.504882812500002 0.8719618055555547  12.075358072916668 0.9585503472222203  11.47021484375 1.0709635416666672  C 10.865071614583334 1.183376736111111  10.405924479166668 1.28515625  10.0927734375 1.3763020833333328  C 10.025065104166668 1.4917534722222203  9.9658203125 1.620876736111111  9.9150390625 1.763671875  C 9.8642578125 1.9064670138888875  9.826171875 2.027994791666667  9.80078125 2.128255208333333  C 9.775390625 2.228515625  9.74365234375 2.3667534722222205  9.70556640625 2.54296875  C 9.66748046875 2.719184027777777  9.639973958333334 2.8467881944444438  9.623046875 2.92578125  C 9.39453125 3.8250868055555545  9.024251302083334 5.099609374999998  8.51220703125 6.749348958333333  C 8.000162760416668 8.399088541666666  7.672200520833334 9.479166666666666  7.5283203125 9.989583333333334  C 7.511393229166668 10.044270833333334  7.456380208333334 10.220486111111109  7.36328125 10.518229166666668  C 7.270182291666668 10.815972222222223  7.185546875 11.089409722222223  7.109375 11.338541666666668  C 7.033203125 11.58767361111111  6.965494791666668 11.841362847222223  6.90625 12.099609375  C 6.847005208333334 12.357855902777777  6.821614583333334 12.532552083333332  6.830078125 12.623697916666668  L 6.8427734375 12.787760416666668  C 6.986653645833334 12.812065972222223  7.76953125 12.90625  9.19140625 13.0703125  C 9.166015625 13.33767361111111  9.098307291666668 13.63845486111111  8.98828125 13.97265625  C 8.895182291666668 13.97265625  8.757649739583334 13.977213541666668  8.57568359375 13.986328125  C 8.393717447916668 13.995442708333332  8.256184895833334 14  8.1630859375 14  C 7.917643229166668 14  7.549479166666668 13.969618055555557  7.05859375 13.908854166666668  C 6.567708333333334 13.848090277777777  6.203776041666668 13.817708333333332  5.966796875 13.817708333333332  C 4.798828125 13.805555555555557  3.927083333333334 13.799479166666668  3.3515625 13.799479166666668  C 2.9199218750000004 13.799479166666668  2.314778645833334 13.826822916666668  1.5361328125 13.881510416666668  Z " fill-rule="nonzero" fill="rgba(0, 0, 0, 1)" stroke="none" transform="matrix(1 0 0 1 211 275 )" class="fill" />
    <path d="M 1.5361328125 13.881510416666668  C 0.7574869791666666 13.936197916666668  0.24544270833333337 13.969618055555557  0 13.981770833333332  L 0.2158203125 13.20703125  C 0.40201822916666674 13.164496527777777  0.6622721354166667 13.114366319444443  0.99658203125 13.056640625  C 1.3308919270833335 12.998914930555557  1.6355794270833335 12.94118923611111  1.91064453125 12.883463541666668  C 2.185709635416667 12.825737847222223  2.4375 12.754340277777777  2.666015625 12.669270833333332  C 2.902994791666667 12.456597222222223  3.0764973958333335 12.149739583333332  3.1865234375 11.748697916666668  C 3.194986979166667 11.706163194444443  3.457356770833334 10.828125  3.9736328125 9.114583333333334  C 4.489908854166667 7.401041666666666  4.972330729166667 5.749782986111111  5.4208984375 4.160807291666667  C 5.869466145833334 2.5718315972222205  6.089518229166668 1.6710069444444438  6.0810546875 1.4583333333333328  L 6.0810546875 1.23046875  C 5.8779296875 1.1514756944444438  5.647298177083334 1.0952690972222203  5.38916015625 1.0618489583333328  C 5.131022135416667 1.0284288194444438  4.8369140625 1.0041232638888875  4.5068359375 0.9889322916666672  C 4.1767578125 0.9737413194444438  3.931315104166667 0.95703125  3.7705078125 0.9388020833333328  L 4.01171875 0  C 4.291015625 0.012152777777776569  4.798828125 0.031901041666667185  5.53515625 0.059244791666667185  C 6.271484375 0.08658854166666718  6.904134114583334 0.10785590277777657  7.43310546875 0.123046875  C 7.962076822916668 0.13823784722222032  8.472005208333334 0.14583333333333282  8.962890625 0.14583333333333282  C 9.369140625 0.14583333333333282  9.785970052083334 0.13823784722222032  10.21337890625 0.123046875  C 10.640787760416668 0.10785590277777657  11.152832031250002 0.08658854166666718  11.74951171875 0.059244791666667185  C 12.346191406250002 0.031901041666667185  12.763020833333336 0.012152777777776569  13 0  C 12.957682291666668 0.23697916666666718  12.877278645833334 0.5073784722222203  12.7587890625 0.8111979166666672  C 12.504882812500002 0.8719618055555547  12.075358072916668 0.9585503472222203  11.47021484375 1.0709635416666672  C 10.865071614583334 1.183376736111111  10.405924479166668 1.28515625  10.0927734375 1.3763020833333328  C 10.025065104166668 1.4917534722222203  9.9658203125 1.620876736111111  9.9150390625 1.763671875  C 9.8642578125 1.9064670138888875  9.826171875 2.027994791666667  9.80078125 2.128255208333333  C 9.775390625 2.228515625  9.74365234375 2.3667534722222205  9.70556640625 2.54296875  C 9.66748046875 2.719184027777777  9.639973958333334 2.8467881944444438  9.623046875 2.92578125  C 9.39453125 3.8250868055555545  9.024251302083334 5.099609374999998  8.51220703125 6.749348958333333  C 8.000162760416668 8.399088541666666  7.672200520833334 9.479166666666666  7.5283203125 9.989583333333334  C 7.511393229166668 10.044270833333334  7.456380208333334 10.220486111111109  7.36328125 10.518229166666668  C 7.270182291666668 10.815972222222223  7.185546875 11.089409722222223  7.109375 11.338541666666668  C 7.033203125 11.58767361111111  6.965494791666668 11.841362847222223  6.90625 12.099609375  C 6.847005208333334 12.357855902777777  6.821614583333334 12.532552083333332  6.830078125 12.623697916666668  L 6.8427734375 12.787760416666668  C 6.986653645833334 12.812065972222223  7.76953125 12.90625  9.19140625 13.0703125  C 9.166015625 13.33767361111111  9.098307291666668 13.63845486111111  8.98828125 13.97265625  C 8.895182291666668 13.97265625  8.757649739583334 13.977213541666668  8.57568359375 13.986328125  C 8.393717447916668 13.995442708333332  8.256184895833334 14  8.1630859375 14  C 7.917643229166668 14  7.549479166666668 13.969618055555557  7.05859375 13.908854166666668  C 6.567708333333334 13.848090277777777  6.203776041666668 13.817708333333332  5.966796875 13.817708333333332  C 4.798828125 13.805555555555557  3.927083333333334 13.799479166666668  3.3515625 13.799479166666668  C 2.9199218750000004 13.799479166666668  2.314778645833334 13.826822916666668  1.5361328125 13.881510416666668  Z " stroke-width="0" stroke-dasharray="0" stroke="rgba(255, 255, 255, 0)" fill="none" transform="matrix(1 0 0 1 211 275 )" class="stroke" mask="url(#Clip361)" />
  </g>
</svg>