<?xml version="1.0" encoding="utf-8"?>
<svg version="1.1" xmlns:xlink="http://www.w3.org/1999/xlink" width="14px" height="14px" xmlns="http://www.w3.org/2000/svg">
  <defs>
    <pattern id="BGPattern" patternUnits="userSpaceOnUse" alignment="0 0" imageRepeat="None" />
    <mask fill="white" id="Clip362">
      <path d="M 5.3991477272727275 12.090494791666668  C 5.42566287878788 12.373046875  5.465435606060606 12.575086805555557  5.518465909090909 12.696614583333332  C 6.008996212121213 12.891059027777777  6.473011363636363 12.98828125  6.910511363636363 12.98828125  C 9.402935606060607 12.98828125  10.649147727272727 11.97048611111111  10.649147727272727 9.934895833333334  C 10.649147727272727 9.2421875  10.513257575757578 8.6953125  10.241477272727273 8.294270833333334  C 10.0625 8.026909722222221  9.858664772727273 7.802083333333334  9.629971590909092 7.619791666666666  C 9.401278409090908 7.4375  9.177556818181818 7.296223958333334  8.958806818181818 7.195963541666666  C 8.740056818181818 7.095703125  8.473248106060607 7.0197482638888875  8.158380681818182 6.968098958333333  C 7.843513257575758 6.916449652777777  7.565104166666667 6.884548611111111  7.323153409090909 6.872395833333333  C 7.081202651515152 6.8602430555555545  6.767992424242425 6.854166666666667  6.3835227272727275 6.854166666666667  C 5.899621212121213 6.854166666666667  5.564867424242425 6.884548611111111  5.379261363636363 6.9453125  C 5.379261363636363 7.267361111111109  5.377604166666667 7.750434027777779  5.3742897727272725 8.39453125  C 5.37097537878788 9.038628472222221  5.369318181818182 9.518663194444443  5.369318181818182 9.834635416666666  C 5.369318181818182 9.883246527777779  5.366003787878789 10.088324652777779  5.359375 10.449869791666666  C 5.352746212121213 10.811414930555557  5.351089015151516 11.104600694444443  5.354403409090909 11.329427083333332  C 5.357717803030304 11.554253472222223  5.372632575757576 11.807942708333332  5.3991477272727275 12.090494791666668  Z M 5.369318181818182 5.268229166666667  C 5.369318181818182 5.5477430555555545  5.372632575757576 5.757378472222221  5.379261363636363 5.897135416666667  C 5.657670454545454 5.939670138888889  6.0189393939393945 5.9609375  6.463068181818182 5.9609375  C 7.006628787878788 5.9609375  7.480587121212121 5.921440972222221  7.884943181818182 5.842447916666667  C 8.289299242424244 5.763454861111111  8.653882575757576 5.628255208333333  8.978693181818182 5.436848958333333  C 9.303503787878789 5.245442708333333  9.550426136363637 4.9735243055555545  9.719460227272727 4.62109375  C 9.888494318181818 4.268663194444444  9.973011363636363 3.837239583333333  9.973011363636363 3.326822916666667  C 9.973011363636363 2.9014756944444438  9.876893939393941 2.529296875  9.684659090909092 2.210286458333333  C 9.492424242424244 1.8912760416666672  9.230587121212123 1.6421440972222203  8.899147727272727 1.462890625  C 8.567708333333334 1.2836371527777766  8.209753787878789 1.1514756944444438  7.825284090909091 1.06640625  C 7.4408143939393945 0.9813368055555547  7.029829545454545 0.9388020833333328  6.592329545454546 0.9388020833333328  C 6.260890151515152 0.9388020833333328  5.8300189393939394 0.9782986111111109  5.299715909090909 1.0572916666666672  C 5.299715909090909 1.361111111111111  5.312973484848485 1.8198784722222203  5.339488636363637 2.43359375  C 5.366003787878789 3.047309027777777  5.379261363636363 3.509114583333333  5.379261363636363 3.819010416666667  C 5.379261363636363 3.983072916666667  5.377604166666667 4.2261284722222205  5.3742897727272725 4.548177083333333  C 5.37097537878788 4.870225694444444  5.369318181818182 5.1102430555555545  5.369318181818182 5.268229166666667  Z M 2.296875 13.890625  C 0.9644886363636364 13.957465277777777  0.1988636363636364 13.99392361111111  0 14  L 0.019886363636363636 13.143229166666668  C 0.11931818181818181 13.11892361111111  0.4010416666666667 13.0703125  0.8650568181818182 12.997395833333332  C 1.32907196969697 12.924479166666668  1.6803977272727273 12.842447916666668  1.919034090909091 12.751302083333332  C 1.9654356060606064 12.678385416666668  2.0068655303030303 12.596354166666668  2.0433238636363638 12.505208333333332  C 2.0797821969696972 12.4140625  2.1079545454545454 12.31228298611111  2.127840909090909 12.199869791666668  C 2.147727272727273 12.087456597222223  2.1659564393939394 11.988715277777777  2.182528409090909 11.903645833333332  C 2.199100378787879 11.81857638888889  2.209043560606061 11.704644097222223  2.2123579545454546 11.561848958333332  C 2.2156723484848486 11.419053819444443  2.2173295454545454 11.315755208333332  2.2173295454545454 11.251953125  L 2.2173295454545454 10.928385416666668  L 2.2173295454545454 10.654947916666668  C 2.2173295454545454 4.687934027777777  2.144412878787879 1.5737847222222203  1.9985795454545454 1.3125  C 1.972064393939394 1.2638888888888875  1.8991477272727273 1.2198350694444438  1.7798295454545454 1.1803385416666672  C 1.6605113636363635 1.1408420138888875  1.5130208333333335 1.107421875  1.3373579545454546 1.080078125  C 1.161695075757576 1.052734375  0.9976325757575759 1.0314670138888875  0.8451704545454546 1.0162760416666672  C 0.6927083333333334 1.0010850694444438  0.5319602272727273 0.9874131944444438  0.36292613636363635 0.9752604166666672  C 0.19389204545454544 0.9631076388888875  0.0928030303030303 0.9539930555555547  0.059659090909090905 0.9479166666666672  L 0.019886363636363636 0.19140625  C 0.6695075757575758 0.17925347222222032  1.7964015151515154 0.14431423611111094  3.4005681818181817 0.08658854166666718  C 5.004734848484849 0.028862847222220323  6.241003787878789 0  7.109375 0  C 7.261837121212121 0  7.487215909090909 0.0015190972222203225  7.785511363636364 0.004557291666667185  C 8.08380681818182 0.007595486111110938  8.309185606060607 0.009114583333332815  8.461647727272727 0.009114583333332815  C 8.925662878787879 0.009114583333332815  9.378077651515152 0.04861111111111094  9.818892045454545 0.12760416666666718  C 10.259706439393941 0.20659722222222032  10.68560606060606 0.3342013888888875  11.096590909090908 0.5104166666666672  C 11.50757575757576 0.6866319444444438  11.865530303030305 0.90234375  12.170454545454545 1.1575520833333328  C 12.475378787878789 1.4127604166666672  12.720643939393941 1.730251736111111  12.90625 2.110026041666667  C 13.09185606060606 2.4898003472222205  13.184659090909092 2.907552083333333  13.184659090909092 3.36328125  C 13.184659090909092 3.6792534722222205  13.129971590909092 3.969401041666667  13.020596590909092 4.233723958333333  C 12.911221590909092 4.498046875  12.781960227272727 4.716796874999998  12.6328125 4.889973958333333  C 12.483664772727273 5.063151041666666  12.269886363636363 5.2378472222222205  11.991477272727273 5.4140625  C 11.713068181818182 5.590277777777777  11.471117424242426 5.726996527777777  11.265625 5.82421875  C 11.060132575757578 5.921440972222221  10.781723484848486 6.04296875  10.430397727272727 6.188802083333333  C 11.45123106060606 6.401475694444444  12.301373106060607 6.80859375  12.980823863636363 7.41015625  C 13.660274621212123 8.01171875  14 8.765190972222221  14 9.670572916666666  C 14 10.278211805555554  13.883996212121213 10.823567708333332  13.651988636363637 11.306640625  C 13.41998106060606 11.789713541666668  13.110085227272727 12.186197916666668  12.722301136363637 12.49609375  C 12.334517045454545 12.805989583333332  11.877130681818182 13.065755208333332  11.350142045454545 13.275390625  C 10.823153409090908 13.485026041666668  10.28125 13.632378472222223  9.724431818181818 13.717447916666668  C 9.167613636363637 13.80251736111111  8.584280303030305 13.845052083333332  7.974431818181818 13.845052083333332  C 7.682765151515152 13.845052083333332  7.245265151515152 13.8359375  6.661931818181818 13.817708333333332  C 6.078598484848485 13.799479166666668  5.641098484848485 13.790364583333332  5.349431818181818 13.790364583333332  C 4.646780303030304 13.790364583333332  3.629261363636364 13.823784722222223  2.296875 13.890625  Z " fill-rule="evenodd" />
    </mask>
  </defs>
  <g transform="matrix(1 0 0 1 -182 -275 )">
    <path d="M 5.3991477272727275 12.090494791666668  C 5.42566287878788 12.373046875  5.465435606060606 12.575086805555557  5.518465909090909 12.696614583333332  C 6.008996212121213 12.891059027777777  6.473011363636363 12.98828125  6.910511363636363 12.98828125  C 9.402935606060607 12.98828125  10.649147727272727 11.97048611111111  10.649147727272727 9.934895833333334  C 10.649147727272727 9.2421875  10.513257575757578 8.6953125  10.241477272727273 8.294270833333334  C 10.0625 8.026909722222221  9.858664772727273 7.802083333333334  9.629971590909092 7.619791666666666  C 9.401278409090908 7.4375  9.177556818181818 7.296223958333334  8.958806818181818 7.195963541666666  C 8.740056818181818 7.095703125  8.473248106060607 7.0197482638888875  8.158380681818182 6.968098958333333  C 7.843513257575758 6.916449652777777  7.565104166666667 6.884548611111111  7.323153409090909 6.872395833333333  C 7.081202651515152 6.8602430555555545  6.767992424242425 6.854166666666667  6.3835227272727275 6.854166666666667  C 5.899621212121213 6.854166666666667  5.564867424242425 6.884548611111111  5.379261363636363 6.9453125  C 5.379261363636363 7.267361111111109  5.377604166666667 7.750434027777779  5.3742897727272725 8.39453125  C 5.37097537878788 9.038628472222221  5.369318181818182 9.518663194444443  5.369318181818182 9.834635416666666  C 5.369318181818182 9.883246527777779  5.366003787878789 10.088324652777779  5.359375 10.449869791666666  C 5.352746212121213 10.811414930555557  5.351089015151516 11.104600694444443  5.354403409090909 11.329427083333332  C 5.357717803030304 11.554253472222223  5.372632575757576 11.807942708333332  5.3991477272727275 12.090494791666668  Z M 5.369318181818182 5.268229166666667  C 5.369318181818182 5.5477430555555545  5.372632575757576 5.757378472222221  5.379261363636363 5.897135416666667  C 5.657670454545454 5.939670138888889  6.0189393939393945 5.9609375  6.463068181818182 5.9609375  C 7.006628787878788 5.9609375  7.480587121212121 5.921440972222221  7.884943181818182 5.842447916666667  C 8.289299242424244 5.763454861111111  8.653882575757576 5.628255208333333  8.978693181818182 5.436848958333333  C 9.303503787878789 5.245442708333333  9.550426136363637 4.9735243055555545  9.719460227272727 4.62109375  C 9.888494318181818 4.268663194444444  9.973011363636363 3.837239583333333  9.973011363636363 3.326822916666667  C 9.973011363636363 2.9014756944444438  9.876893939393941 2.529296875  9.684659090909092 2.210286458333333  C 9.492424242424244 1.8912760416666672  9.230587121212123 1.6421440972222203  8.899147727272727 1.462890625  C 8.567708333333334 1.2836371527777766  8.209753787878789 1.1514756944444438  7.825284090909091 1.06640625  C 7.4408143939393945 0.9813368055555547  7.029829545454545 0.9388020833333328  6.592329545454546 0.9388020833333328  C 6.260890151515152 0.9388020833333328  5.8300189393939394 0.9782986111111109  5.299715909090909 1.0572916666666672  C 5.299715909090909 1.361111111111111  5.312973484848485 1.8198784722222203  5.339488636363637 2.43359375  C 5.366003787878789 3.047309027777777  5.379261363636363 3.509114583333333  5.379261363636363 3.819010416666667  C 5.379261363636363 3.983072916666667  5.377604166666667 4.2261284722222205  5.3742897727272725 4.548177083333333  C 5.37097537878788 4.870225694444444  5.369318181818182 5.1102430555555545  5.369318181818182 5.268229166666667  Z M 2.296875 13.890625  C 0.9644886363636364 13.957465277777777  0.1988636363636364 13.99392361111111  0 14  L 0.019886363636363636 13.143229166666668  C 0.11931818181818181 13.11892361111111  0.4010416666666667 13.0703125  0.8650568181818182 12.997395833333332  C 1.32907196969697 12.924479166666668  1.6803977272727273 12.842447916666668  1.919034090909091 12.751302083333332  C 1.9654356060606064 12.678385416666668  2.0068655303030303 12.596354166666668  2.0433238636363638 12.505208333333332  C 2.0797821969696972 12.4140625  2.1079545454545454 12.31228298611111  2.127840909090909 12.199869791666668  C 2.147727272727273 12.087456597222223  2.1659564393939394 11.988715277777777  2.182528409090909 11.903645833333332  C 2.199100378787879 11.81857638888889  2.209043560606061 11.704644097222223  2.2123579545454546 11.561848958333332  C 2.2156723484848486 11.419053819444443  2.2173295454545454 11.315755208333332  2.2173295454545454 11.251953125  L 2.2173295454545454 10.928385416666668  L 2.2173295454545454 10.654947916666668  C 2.2173295454545454 4.687934027777777  2.144412878787879 1.5737847222222203  1.9985795454545454 1.3125  C 1.972064393939394 1.2638888888888875  1.8991477272727273 1.2198350694444438  1.7798295454545454 1.1803385416666672  C 1.6605113636363635 1.1408420138888875  1.5130208333333335 1.107421875  1.3373579545454546 1.080078125  C 1.161695075757576 1.052734375  0.9976325757575759 1.0314670138888875  0.8451704545454546 1.0162760416666672  C 0.6927083333333334 1.0010850694444438  0.5319602272727273 0.9874131944444438  0.36292613636363635 0.9752604166666672  C 0.19389204545454544 0.9631076388888875  0.0928030303030303 0.9539930555555547  0.059659090909090905 0.9479166666666672  L 0.019886363636363636 0.19140625  C 0.6695075757575758 0.17925347222222032  1.7964015151515154 0.14431423611111094  3.4005681818181817 0.08658854166666718  C 5.004734848484849 0.028862847222220323  6.241003787878789 0  7.109375 0  C 7.261837121212121 0  7.487215909090909 0.0015190972222203225  7.785511363636364 0.004557291666667185  C 8.08380681818182 0.007595486111110938  8.309185606060607 0.009114583333332815  8.461647727272727 0.009114583333332815  C 8.925662878787879 0.009114583333332815  9.378077651515152 0.04861111111111094  9.818892045454545 0.12760416666666718  C 10.259706439393941 0.20659722222222032  10.68560606060606 0.3342013888888875  11.096590909090908 0.5104166666666672  C 11.50757575757576 0.6866319444444438  11.865530303030305 0.90234375  12.170454545454545 1.1575520833333328  C 12.475378787878789 1.4127604166666672  12.720643939393941 1.730251736111111  12.90625 2.110026041666667  C 13.09185606060606 2.4898003472222205  13.184659090909092 2.907552083333333  13.184659090909092 3.36328125  C 13.184659090909092 3.6792534722222205  13.129971590909092 3.969401041666667  13.020596590909092 4.233723958333333  C 12.911221590909092 4.498046875  12.781960227272727 4.716796874999998  12.6328125 4.889973958333333  C 12.483664772727273 5.063151041666666  12.269886363636363 5.2378472222222205  11.991477272727273 5.4140625  C 11.713068181818182 5.590277777777777  11.471117424242426 5.726996527777777  11.265625 5.82421875  C 11.060132575757578 5.921440972222221  10.781723484848486 6.04296875  10.430397727272727 6.188802083333333  C 11.45123106060606 6.401475694444444  12.301373106060607 6.80859375  12.980823863636363 7.41015625  C 13.660274621212123 8.01171875  14 8.765190972222221  14 9.670572916666666  C 14 10.278211805555554  13.883996212121213 10.823567708333332  13.651988636363637 11.306640625  C 13.41998106060606 11.789713541666668  13.110085227272727 12.186197916666668  12.722301136363637 12.49609375  C 12.334517045454545 12.805989583333332  11.877130681818182 13.065755208333332  11.350142045454545 13.275390625  C 10.823153409090908 13.485026041666668  10.28125 13.632378472222223  9.724431818181818 13.717447916666668  C 9.167613636363637 13.80251736111111  8.584280303030305 13.845052083333332  7.974431818181818 13.845052083333332  C 7.682765151515152 13.845052083333332  7.245265151515152 13.8359375  6.661931818181818 13.817708333333332  C 6.078598484848485 13.799479166666668  5.641098484848485 13.790364583333332  5.349431818181818 13.790364583333332  C 4.646780303030304 13.790364583333332  3.629261363636364 13.823784722222223  2.296875 13.890625  Z " fill-rule="nonzero" fill="rgba(0, 0, 0, 1)" stroke="none" transform="matrix(1 0 0 1 182 275 )" class="fill" />
    <path d="M 5.3991477272727275 12.090494791666668  C 5.42566287878788 12.373046875  5.465435606060606 12.575086805555557  5.518465909090909 12.696614583333332  C 6.008996212121213 12.891059027777777  6.473011363636363 12.98828125  6.910511363636363 12.98828125  C 9.402935606060607 12.98828125  10.649147727272727 11.97048611111111  10.649147727272727 9.934895833333334  C 10.649147727272727 9.2421875  10.513257575757578 8.6953125  10.241477272727273 8.294270833333334  C 10.0625 8.026909722222221  9.858664772727273 7.802083333333334  9.629971590909092 7.619791666666666  C 9.401278409090908 7.4375  9.177556818181818 7.296223958333334  8.958806818181818 7.195963541666666  C 8.740056818181818 7.095703125  8.473248106060607 7.0197482638888875  8.158380681818182 6.968098958333333  C 7.843513257575758 6.916449652777777  7.565104166666667 6.884548611111111  7.323153409090909 6.872395833333333  C 7.081202651515152 6.8602430555555545  6.767992424242425 6.854166666666667  6.3835227272727275 6.854166666666667  C 5.899621212121213 6.854166666666667  5.564867424242425 6.884548611111111  5.379261363636363 6.9453125  C 5.379261363636363 7.267361111111109  5.377604166666667 7.750434027777779  5.3742897727272725 8.39453125  C 5.37097537878788 9.038628472222221  5.369318181818182 9.518663194444443  5.369318181818182 9.834635416666666  C 5.369318181818182 9.883246527777779  5.366003787878789 10.088324652777779  5.359375 10.449869791666666  C 5.352746212121213 10.811414930555557  5.351089015151516 11.104600694444443  5.354403409090909 11.329427083333332  C 5.357717803030304 11.554253472222223  5.372632575757576 11.807942708333332  5.3991477272727275 12.090494791666668  Z " stroke-width="0" stroke-dasharray="0" stroke="rgba(255, 255, 255, 0)" fill="none" transform="matrix(1 0 0 1 182 275 )" class="stroke" mask="url(#Clip362)" />
    <path d="M 5.369318181818182 5.268229166666667  C 5.369318181818182 5.5477430555555545  5.372632575757576 5.757378472222221  5.379261363636363 5.897135416666667  C 5.657670454545454 5.939670138888889  6.0189393939393945 5.9609375  6.463068181818182 5.9609375  C 7.006628787878788 5.9609375  7.480587121212121 5.921440972222221  7.884943181818182 5.842447916666667  C 8.289299242424244 5.763454861111111  8.653882575757576 5.628255208333333  8.978693181818182 5.436848958333333  C 9.303503787878789 5.245442708333333  9.550426136363637 4.9735243055555545  9.719460227272727 4.62109375  C 9.888494318181818 4.268663194444444  9.973011363636363 3.837239583333333  9.973011363636363 3.326822916666667  C 9.973011363636363 2.9014756944444438  9.876893939393941 2.529296875  9.684659090909092 2.210286458333333  C 9.492424242424244 1.8912760416666672  9.230587121212123 1.6421440972222203  8.899147727272727 1.462890625  C 8.567708333333334 1.2836371527777766  8.209753787878789 1.1514756944444438  7.825284090909091 1.06640625  C 7.4408143939393945 0.9813368055555547  7.029829545454545 0.9388020833333328  6.592329545454546 0.9388020833333328  C 6.260890151515152 0.9388020833333328  5.8300189393939394 0.9782986111111109  5.299715909090909 1.0572916666666672  C 5.299715909090909 1.361111111111111  5.312973484848485 1.8198784722222203  5.339488636363637 2.43359375  C 5.366003787878789 3.047309027777777  5.379261363636363 3.509114583333333  5.379261363636363 3.819010416666667  C 5.379261363636363 3.983072916666667  5.377604166666667 4.2261284722222205  5.3742897727272725 4.548177083333333  C 5.37097537878788 4.870225694444444  5.369318181818182 5.1102430555555545  5.369318181818182 5.268229166666667  Z " stroke-width="0" stroke-dasharray="0" stroke="rgba(255, 255, 255, 0)" fill="none" transform="matrix(1 0 0 1 182 275 )" class="stroke" mask="url(#Clip362)" />
    <path d="M 2.296875 13.890625  C 0.9644886363636364 13.957465277777777  0.1988636363636364 13.99392361111111  0 14  L 0.019886363636363636 13.143229166666668  C 0.11931818181818181 13.11892361111111  0.4010416666666667 13.0703125  0.8650568181818182 12.997395833333332  C 1.32907196969697 12.924479166666668  1.6803977272727273 12.842447916666668  1.919034090909091 12.751302083333332  C 1.9654356060606064 12.678385416666668  2.0068655303030303 12.596354166666668  2.0433238636363638 12.505208333333332  C 2.0797821969696972 12.4140625  2.1079545454545454 12.31228298611111  2.127840909090909 12.199869791666668  C 2.147727272727273 12.087456597222223  2.1659564393939394 11.988715277777777  2.182528409090909 11.903645833333332  C 2.199100378787879 11.81857638888889  2.209043560606061 11.704644097222223  2.2123579545454546 11.561848958333332  C 2.2156723484848486 11.419053819444443  2.2173295454545454 11.315755208333332  2.2173295454545454 11.251953125  L 2.2173295454545454 10.928385416666668  L 2.2173295454545454 10.654947916666668  C 2.2173295454545454 4.687934027777777  2.144412878787879 1.5737847222222203  1.9985795454545454 1.3125  C 1.972064393939394 1.2638888888888875  1.8991477272727273 1.2198350694444438  1.7798295454545454 1.1803385416666672  C 1.6605113636363635 1.1408420138888875  1.5130208333333335 1.107421875  1.3373579545454546 1.080078125  C 1.161695075757576 1.052734375  0.9976325757575759 1.0314670138888875  0.8451704545454546 1.0162760416666672  C 0.6927083333333334 1.0010850694444438  0.5319602272727273 0.9874131944444438  0.36292613636363635 0.9752604166666672  C 0.19389204545454544 0.9631076388888875  0.0928030303030303 0.9539930555555547  0.059659090909090905 0.9479166666666672  L 0.019886363636363636 0.19140625  C 0.6695075757575758 0.17925347222222032  1.7964015151515154 0.14431423611111094  3.4005681818181817 0.08658854166666718  C 5.004734848484849 0.028862847222220323  6.241003787878789 0  7.109375 0  C 7.261837121212121 0  7.487215909090909 0.0015190972222203225  7.785511363636364 0.004557291666667185  C 8.08380681818182 0.007595486111110938  8.309185606060607 0.009114583333332815  8.461647727272727 0.009114583333332815  C 8.925662878787879 0.009114583333332815  9.378077651515152 0.04861111111111094  9.818892045454545 0.12760416666666718  C 10.259706439393941 0.20659722222222032  10.68560606060606 0.3342013888888875  11.096590909090908 0.5104166666666672  C 11.50757575757576 0.6866319444444438  11.865530303030305 0.90234375  12.170454545454545 1.1575520833333328  C 12.475378787878789 1.4127604166666672  12.720643939393941 1.730251736111111  12.90625 2.110026041666667  C 13.09185606060606 2.4898003472222205  13.184659090909092 2.907552083333333  13.184659090909092 3.36328125  C 13.184659090909092 3.6792534722222205  13.129971590909092 3.969401041666667  13.020596590909092 4.233723958333333  C 12.911221590909092 4.498046875  12.781960227272727 4.716796874999998  12.6328125 4.889973958333333  C 12.483664772727273 5.063151041666666  12.269886363636363 5.2378472222222205  11.991477272727273 5.4140625  C 11.713068181818182 5.590277777777777  11.471117424242426 5.726996527777777  11.265625 5.82421875  C 11.060132575757578 5.921440972222221  10.781723484848486 6.04296875  10.430397727272727 6.188802083333333  C 11.45123106060606 6.401475694444444  12.301373106060607 6.80859375  12.980823863636363 7.41015625  C 13.660274621212123 8.01171875  14 8.765190972222221  14 9.670572916666666  C 14 10.278211805555554  13.883996212121213 10.823567708333332  13.651988636363637 11.306640625  C 13.41998106060606 11.789713541666668  13.110085227272727 12.186197916666668  12.722301136363637 12.49609375  C 12.334517045454545 12.805989583333332  11.877130681818182 13.065755208333332  11.350142045454545 13.275390625  C 10.823153409090908 13.485026041666668  10.28125 13.632378472222223  9.724431818181818 13.717447916666668  C 9.167613636363637 13.80251736111111  8.584280303030305 13.845052083333332  7.974431818181818 13.845052083333332  C 7.682765151515152 13.845052083333332  7.245265151515152 13.8359375  6.661931818181818 13.817708333333332  C 6.078598484848485 13.799479166666668  5.641098484848485 13.790364583333332  5.349431818181818 13.790364583333332  C 4.646780303030304 13.790364583333332  3.629261363636364 13.823784722222223  2.296875 13.890625  Z " stroke-width="0" stroke-dasharray="0" stroke="rgba(255, 255, 255, 0)" fill="none" transform="matrix(1 0 0 1 182 275 )" class="stroke" mask="url(#Clip362)" />
  </g>
</svg>