<?xml version="1.0" encoding="utf-8"?>
<svg version="1.1" xmlns:xlink="http://www.w3.org/1999/xlink" width="19px" height="14px" xmlns="http://www.w3.org/2000/svg">
  <defs>
    <pattern id="BGPattern" patternUnits="userSpaceOnUse" alignment="0 0" imageRepeat="None" />
    <mask fill="white" id="Clip363">
      <path d="M 0.33928571428571425 7  L 18.660714285714285 7  C 18.75967261904762 7  18.840959821428573 7.02734375  18.904575892857142 7.08203125  C 18.968191964285715 7.13671875  19 7.206597222222221  19 7.291666666666666  L 19 7.875  C 19 7.960069444444444  18.968191964285715 8.029947916666666  18.904575892857142 8.084635416666666  C 18.840959821428573 8.139322916666666  18.75967261904762 8.166666666666666  18.660714285714285 8  L 0.33928571428571425 8  C 0.24032738095238096 8.166666666666666  0.1590401785714286 8.139322916666666  0.09542410714285715 8.084635416666666  C 0.03180803571428571 8.029947916666666  0 7.960069444444444  0 7.875  L 0 7.291666666666666  C 0 7.206597222222221  0.03180803571428571 7.13671875  0.09542410714285715 7.08203125  C 0.1590401785714286 7.02734375  0.24032738095238096 7  0.33928571428571425 7  Z M 12.998883928571429 6.416666666666667  L 5.12109375 6.416666666666667  C 4.923177083333334 6.2039930555555545  4.742931547619048 5.9609375  4.580357142857143 5.6875  C 4.241071428571429 5.0920138888888875  4.071428571428571 4.520833333333333  4.071428571428571 3.973958333333333  C 4.071428571428571 2.8741319444444438  4.5450148809523805 1.935329861111111  5.4921875 1.1575520833333328  C 6.432291666666667 0.38585069444444375  7.82124255952381 0  9.659040178571429 0  C 10.012462797619047 0  10.602678571428571 0.057725694444443754  11.4296875 0.17317708333333282  C 11.896205357142856 0.24609375  12.521763392857144 0.3919270833333328  13.306361607142856 0.6106770833333328  C 13.377046130952381 0.8415798611111109  13.451264880952381 1.2000868055555547  13.529017857142856 1.6861979166666672  C 13.627976190476193 2.43359375  13.677455357142856 2.989583333333333  13.677455357142856 3.354166666666667  C 13.677455357142856 3.463541666666667  13.659784226190478 3.600260416666667  13.624441964285715 3.764322916666667  L 13.497209821428571 3.791666666666667  L 12.606584821428571 3.736979166666667  L 12.458147321428571 3.71875  C 12.104724702380953 2.8133680555555545  11.740699404761905 2.1905381944444438  11.366071428571429 1.8502604166666672  C 10.74404761904762 1.2973090277777766  10.00186011904762 1.0208333333333328  9.139508928571429 1.0208333333333328  C 8.333705357142858 1.0208333333333328  7.690476190476191 1.2000868055555547  7.209821428571428 1.55859375  C 6.7362351190476195 1.9110243055555547  6.499441964285714 2.3546006944444438  6.499441964285714 2.889322916666667  C 6.499441964285714 3.3328993055555545  6.732700892857142 3.758246527777777  7.19921875 4.165364583333333  C 7.665736607142858 4.5724826388888875  8.651785714285714 4.964409722222221  10.157366071428571 5.341145833333333  C 10.645089285714285 5.462673611111111  11.256510416666668 5.663194444444444  11.991629464285715 5.942708333333333  C 12.401599702380953 6.112847222222221  12.737351190476193 6.270833333333333  12.998883928571429 6.416666666666667  Z M 11.94921875 9.397135416666666  C 11.70889136904762 9.220920138888888  11.224702380952381 9.005208333333334  10.496651785714285 8.75  L 14.854352678571429 8.75  C 14.903831845238097 8.986979166666666  14.928571428571429 9.266493055555554  14.928571428571429 9.588541666666666  C 14.928571428571429 10.263020833333334  14.783668154761905 10.907118055555557  14.493861607142856 11.520833333333332  C 14.331287202380953 11.86111111111111  14.080357142857144 12.177083333333332  13.741071428571429 12.46875  C 13.479538690476193 12.68142361111111  13.094308035714285 12.92751736111111  12.585379464285715 13.20703125  C 12.019903273809526 13.498697916666668  11.479166666666668 13.69921875  10.963169642857144 13.80859375  C 10.397693452380953 13.936197916666668  9.680245535714286 14  8.810825892857142 14  C 8.005022321428571 14  7.315848214285714 13.930121527777777  6.743303571428572 13.790364583333332  L 5.258928571428572 13.42578125  C 4.856026785714286 13.328559027777777  4.6015625 13.243489583333332  4.495535714285714 13.170572916666668  C 4.438988095238095 13.121961805555557  4.410714285714286 13.055121527777777  4.410714285714286 12.970052083333332  L 4.410714285714286 12.8515625  C 4.410714285714286 12.1953125  4.403645833333334 11.721354166666668  4.389508928571429 11.4296875  C 4.382440476190476 11.247395833333332  4.382440476190476 11.04079861111111  4.389508928571429 10.809895833333332  L 4.410714285714286 10.47265625  L 4.410714285714286 10.071614583333334  L 5.4921875 10.053385416666666  C 5.598214285714286 10.259982638888888  5.704241071428572 10.475694444444443  5.810267857142858 10.700520833333332  C 5.916294642857142 10.925347222222223  5.995814732142858 11.09548611111111  6.048828125 11.2109375  C 6.101841517857142 11.32638888888889  6.146019345238097 11.40842013888889  6.181361607142858 11.45703125  C 6.428757440476191 11.803385416666668  6.711495535714286 12.088975694444443  7.029575892857142 12.313802083333332  C 7.333519345238097 12.532552083333332  7.704613095238097 12.705729166666668  8.142857142857142 12.833333333333332  C 8.559895833333334 12.96701388888889  9.02641369047619 13.033854166666668  9.542410714285715 13.033854166666668  C 9.994791666666668 13.033854166666668  10.486049107142856 12.951822916666668  11.016183035714285 12.787760416666668  C 11.56045386904762 12.629774305555557  11.991629464285715 12.368489583333332  12.309709821428571 12.00390625  C 12.641927083333334 11.633246527777777  12.808035714285715 11.241319444444443  12.808035714285715 10.828125  C 12.808035714285715 10.317708333333334  12.521763392857144 9.840711805555554  11.94921875 9.397135416666666  Z " fill-rule="evenodd" />
    </mask>
  </defs>
  <g transform="matrix(1 0 0 1 -238 -275 )">
    <path d="M 0.33928571428571425 7  L 18.660714285714285 7  C 18.75967261904762 7  18.840959821428573 7.02734375  18.904575892857142 7.08203125  C 18.968191964285715 7.13671875  19 7.206597222222221  19 7.291666666666666  L 19 7.875  C 19 7.960069444444444  18.968191964285715 8.029947916666666  18.904575892857142 8.084635416666666  C 18.840959821428573 8.139322916666666  18.75967261904762 8.166666666666666  18.660714285714285 8  L 0.33928571428571425 8  C 0.24032738095238096 8.166666666666666  0.1590401785714286 8.139322916666666  0.09542410714285715 8.084635416666666  C 0.03180803571428571 8.029947916666666  0 7.960069444444444  0 7.875  L 0 7.291666666666666  C 0 7.206597222222221  0.03180803571428571 7.13671875  0.09542410714285715 7.08203125  C 0.1590401785714286 7.02734375  0.24032738095238096 7  0.33928571428571425 7  Z M 12.998883928571429 6.416666666666667  L 5.12109375 6.416666666666667  C 4.923177083333334 6.2039930555555545  4.742931547619048 5.9609375  4.580357142857143 5.6875  C 4.241071428571429 5.0920138888888875  4.071428571428571 4.520833333333333  4.071428571428571 3.973958333333333  C 4.071428571428571 2.8741319444444438  4.5450148809523805 1.935329861111111  5.4921875 1.1575520833333328  C 6.432291666666667 0.38585069444444375  7.82124255952381 0  9.659040178571429 0  C 10.012462797619047 0  10.602678571428571 0.057725694444443754  11.4296875 0.17317708333333282  C 11.896205357142856 0.24609375  12.521763392857144 0.3919270833333328  13.306361607142856 0.6106770833333328  C 13.377046130952381 0.8415798611111109  13.451264880952381 1.2000868055555547  13.529017857142856 1.6861979166666672  C 13.627976190476193 2.43359375  13.677455357142856 2.989583333333333  13.677455357142856 3.354166666666667  C 13.677455357142856 3.463541666666667  13.659784226190478 3.600260416666667  13.624441964285715 3.764322916666667  L 13.497209821428571 3.791666666666667  L 12.606584821428571 3.736979166666667  L 12.458147321428571 3.71875  C 12.104724702380953 2.8133680555555545  11.740699404761905 2.1905381944444438  11.366071428571429 1.8502604166666672  C 10.74404761904762 1.2973090277777766  10.00186011904762 1.0208333333333328  9.139508928571429 1.0208333333333328  C 8.333705357142858 1.0208333333333328  7.690476190476191 1.2000868055555547  7.209821428571428 1.55859375  C 6.7362351190476195 1.9110243055555547  6.499441964285714 2.3546006944444438  6.499441964285714 2.889322916666667  C 6.499441964285714 3.3328993055555545  6.732700892857142 3.758246527777777  7.19921875 4.165364583333333  C 7.665736607142858 4.5724826388888875  8.651785714285714 4.964409722222221  10.157366071428571 5.341145833333333  C 10.645089285714285 5.462673611111111  11.256510416666668 5.663194444444444  11.991629464285715 5.942708333333333  C 12.401599702380953 6.112847222222221  12.737351190476193 6.270833333333333  12.998883928571429 6.416666666666667  Z M 11.94921875 9.397135416666666  C 11.70889136904762 9.220920138888888  11.224702380952381 9.005208333333334  10.496651785714285 8.75  L 14.854352678571429 8.75  C 14.903831845238097 8.986979166666666  14.928571428571429 9.266493055555554  14.928571428571429 9.588541666666666  C 14.928571428571429 10.263020833333334  14.783668154761905 10.907118055555557  14.493861607142856 11.520833333333332  C 14.331287202380953 11.86111111111111  14.080357142857144 12.177083333333332  13.741071428571429 12.46875  C 13.479538690476193 12.68142361111111  13.094308035714285 12.92751736111111  12.585379464285715 13.20703125  C 12.019903273809526 13.498697916666668  11.479166666666668 13.69921875  10.963169642857144 13.80859375  C 10.397693452380953 13.936197916666668  9.680245535714286 14  8.810825892857142 14  C 8.005022321428571 14  7.315848214285714 13.930121527777777  6.743303571428572 13.790364583333332  L 5.258928571428572 13.42578125  C 4.856026785714286 13.328559027777777  4.6015625 13.243489583333332  4.495535714285714 13.170572916666668  C 4.438988095238095 13.121961805555557  4.410714285714286 13.055121527777777  4.410714285714286 12.970052083333332  L 4.410714285714286 12.8515625  C 4.410714285714286 12.1953125  4.403645833333334 11.721354166666668  4.389508928571429 11.4296875  C 4.382440476190476 11.247395833333332  4.382440476190476 11.04079861111111  4.389508928571429 10.809895833333332  L 4.410714285714286 10.47265625  L 4.410714285714286 10.071614583333334  L 5.4921875 10.053385416666666  C 5.598214285714286 10.259982638888888  5.704241071428572 10.475694444444443  5.810267857142858 10.700520833333332  C 5.916294642857142 10.925347222222223  5.995814732142858 11.09548611111111  6.048828125 11.2109375  C 6.101841517857142 11.32638888888889  6.146019345238097 11.40842013888889  6.181361607142858 11.45703125  C 6.428757440476191 11.803385416666668  6.711495535714286 12.088975694444443  7.029575892857142 12.313802083333332  C 7.333519345238097 12.532552083333332  7.704613095238097 12.705729166666668  8.142857142857142 12.833333333333332  C 8.559895833333334 12.96701388888889  9.02641369047619 13.033854166666668  9.542410714285715 13.033854166666668  C 9.994791666666668 13.033854166666668  10.486049107142856 12.951822916666668  11.016183035714285 12.787760416666668  C 11.56045386904762 12.629774305555557  11.991629464285715 12.368489583333332  12.309709821428571 12.00390625  C 12.641927083333334 11.633246527777777  12.808035714285715 11.241319444444443  12.808035714285715 10.828125  C 12.808035714285715 10.317708333333334  12.521763392857144 9.840711805555554  11.94921875 9.397135416666666  Z " fill-rule="nonzero" fill="rgba(0, 0, 0, 1)" stroke="none" transform="matrix(1 0 0 1 238 275 )" class="fill" />
    <path d="M 0.33928571428571425 7  L 18.660714285714285 7  C 18.75967261904762 7  18.840959821428573 7.02734375  18.904575892857142 7.08203125  C 18.968191964285715 7.13671875  19 7.206597222222221  19 7.291666666666666  L 19 7.875  C 19 7.960069444444444  18.968191964285715 8.029947916666666  18.904575892857142 8.084635416666666  C 18.840959821428573 8.139322916666666  18.75967261904762 8.166666666666666  18.660714285714285 8  L 0.33928571428571425 8  C 0.24032738095238096 8.166666666666666  0.1590401785714286 8.139322916666666  0.09542410714285715 8.084635416666666  C 0.03180803571428571 8.029947916666666  0 7.960069444444444  0 7.875  L 0 7.291666666666666  C 0 7.206597222222221  0.03180803571428571 7.13671875  0.09542410714285715 7.08203125  C 0.1590401785714286 7.02734375  0.24032738095238096 7  0.33928571428571425 7  Z " stroke-width="0" stroke-dasharray="0" stroke="rgba(255, 255, 255, 0)" fill="none" transform="matrix(1 0 0 1 238 275 )" class="stroke" mask="url(#Clip363)" />
    <path d="M 12.998883928571429 6.416666666666667  L 5.12109375 6.416666666666667  C 4.923177083333334 6.2039930555555545  4.742931547619048 5.9609375  4.580357142857143 5.6875  C 4.241071428571429 5.0920138888888875  4.071428571428571 4.520833333333333  4.071428571428571 3.973958333333333  C 4.071428571428571 2.8741319444444438  4.5450148809523805 1.935329861111111  5.4921875 1.1575520833333328  C 6.432291666666667 0.38585069444444375  7.82124255952381 0  9.659040178571429 0  C 10.012462797619047 0  10.602678571428571 0.057725694444443754  11.4296875 0.17317708333333282  C 11.896205357142856 0.24609375  12.521763392857144 0.3919270833333328  13.306361607142856 0.6106770833333328  C 13.377046130952381 0.8415798611111109  13.451264880952381 1.2000868055555547  13.529017857142856 1.6861979166666672  C 13.627976190476193 2.43359375  13.677455357142856 2.989583333333333  13.677455357142856 3.354166666666667  C 13.677455357142856 3.463541666666667  13.659784226190478 3.600260416666667  13.624441964285715 3.764322916666667  L 13.497209821428571 3.791666666666667  L 12.606584821428571 3.736979166666667  L 12.458147321428571 3.71875  C 12.104724702380953 2.8133680555555545  11.740699404761905 2.1905381944444438  11.366071428571429 1.8502604166666672  C 10.74404761904762 1.2973090277777766  10.00186011904762 1.0208333333333328  9.139508928571429 1.0208333333333328  C 8.333705357142858 1.0208333333333328  7.690476190476191 1.2000868055555547  7.209821428571428 1.55859375  C 6.7362351190476195 1.9110243055555547  6.499441964285714 2.3546006944444438  6.499441964285714 2.889322916666667  C 6.499441964285714 3.3328993055555545  6.732700892857142 3.758246527777777  7.19921875 4.165364583333333  C 7.665736607142858 4.5724826388888875  8.651785714285714 4.964409722222221  10.157366071428571 5.341145833333333  C 10.645089285714285 5.462673611111111  11.256510416666668 5.663194444444444  11.991629464285715 5.942708333333333  C 12.401599702380953 6.112847222222221  12.737351190476193 6.270833333333333  12.998883928571429 6.416666666666667  Z " stroke-width="0" stroke-dasharray="0" stroke="rgba(255, 255, 255, 0)" fill="none" transform="matrix(1 0 0 1 238 275 )" class="stroke" mask="url(#Clip363)" />
    <path d="M 11.94921875 9.397135416666666  C 11.70889136904762 9.220920138888888  11.224702380952381 9.005208333333334  10.496651785714285 8.75  L 14.854352678571429 8.75  C 14.903831845238097 8.986979166666666  14.928571428571429 9.266493055555554  14.928571428571429 9.588541666666666  C 14.928571428571429 10.263020833333334  14.783668154761905 10.907118055555557  14.493861607142856 11.520833333333332  C 14.331287202380953 11.86111111111111  14.080357142857144 12.177083333333332  13.741071428571429 12.46875  C 13.479538690476193 12.68142361111111  13.094308035714285 12.92751736111111  12.585379464285715 13.20703125  C 12.019903273809526 13.498697916666668  11.479166666666668 13.69921875  10.963169642857144 13.80859375  C 10.397693452380953 13.936197916666668  9.680245535714286 14  8.810825892857142 14  C 8.005022321428571 14  7.315848214285714 13.930121527777777  6.743303571428572 13.790364583333332  L 5.258928571428572 13.42578125  C 4.856026785714286 13.328559027777777  4.6015625 13.243489583333332  4.495535714285714 13.170572916666668  C 4.438988095238095 13.121961805555557  4.410714285714286 13.055121527777777  4.410714285714286 12.970052083333332  L 4.410714285714286 12.8515625  C 4.410714285714286 12.1953125  4.403645833333334 11.721354166666668  4.389508928571429 11.4296875  C 4.382440476190476 11.247395833333332  4.382440476190476 11.04079861111111  4.389508928571429 10.809895833333332  L 4.410714285714286 10.47265625  L 4.410714285714286 10.071614583333334  L 5.4921875 10.053385416666666  C 5.598214285714286 10.259982638888888  5.704241071428572 10.475694444444443  5.810267857142858 10.700520833333332  C 5.916294642857142 10.925347222222223  5.995814732142858 11.09548611111111  6.048828125 11.2109375  C 6.101841517857142 11.32638888888889  6.146019345238097 11.40842013888889  6.181361607142858 11.45703125  C 6.428757440476191 11.803385416666668  6.711495535714286 12.088975694444443  7.029575892857142 12.313802083333332  C 7.333519345238097 12.532552083333332  7.704613095238097 12.705729166666668  8.142857142857142 12.833333333333332  C 8.559895833333334 12.96701388888889  9.02641369047619 13.033854166666668  9.542410714285715 13.033854166666668  C 9.994791666666668 13.033854166666668  10.486049107142856 12.951822916666668  11.016183035714285 12.787760416666668  C 11.56045386904762 12.629774305555557  11.991629464285715 12.368489583333332  12.309709821428571 12.00390625  C 12.641927083333334 11.633246527777777  12.808035714285715 11.241319444444443  12.808035714285715 10.828125  C 12.808035714285715 10.317708333333334  12.521763392857144 9.840711805555554  11.94921875 9.397135416666666  Z " stroke-width="0" stroke-dasharray="0" stroke="rgba(255, 255, 255, 0)" fill="none" transform="matrix(1 0 0 1 238 275 )" class="stroke" mask="url(#Clip363)" />
  </g>
</svg>