<?xml version="1.0" encoding="utf-8"?>
<svg version="1.1" xmlns:xlink="http://www.w3.org/1999/xlink" width="23px" height="16px" xmlns="http://www.w3.org/2000/svg">
  <defs>
    <pattern id="BGPattern" patternUnits="userSpaceOnUse" alignment="0 0" imageRepeat="None" />
    <mask fill="white" id="Clip364">
      <path d="M 4.209821428571428 12.272727272727273  C 4.688988095238095 12.696969696969695  4.928571428571428 13.212121212121213  4.928571428571428 13.818181818181818  C 4.928571428571428 14.424242424242424  4.688988095238095 14.939393939393941  4.209821428571428 15.363636363636363  C 3.730654761904762 15.787878787878787  3.148809523809524 16  2.464285714285714 16  C 1.779761904761905 16  1.1979166666666667 15.787878787878787  0.71875 15.363636363636363  C 0.23958333333333331 14.939393939393941  0 14.424242424242424  0 13.818181818181818  C 0 13.212121212121213  0.23958333333333331 12.696969696969695  0.71875 12.272727272727273  C 1.1979166666666667 11.848484848484848  1.779761904761905 11.636363636363637  2.464285714285714 11.636363636363637  C 3.148809523809524 11.636363636363637  3.730654761904762 11.848484848484848  4.209821428571428 12.272727272727273  Z M 4.209821428571428 6.454545454545455  C 4.688988095238095 6.878787878787877  4.928571428571428 7.393939393939393  4.928571428571428 8  C 4.928571428571428 8.606060606060606  4.688988095238095 9.121212121212121  4.209821428571428 9.545454545454547  C 3.730654761904762 9.969696969696969  3.148809523809524 10.181818181818182  2.464285714285714 10.181818181818182  C 1.779761904761905 10.181818181818182  1.1979166666666667 9.969696969696969  0.71875 9.545454545454547  C 0.23958333333333331 9.121212121212121  0 8.606060606060606  0 8  C 0 7.393939393939393  0.23958333333333331 6.878787878787877  0.71875 6.454545454545455  C 1.1979166666666667 6.030303030303029  1.779761904761905 5.818181818181818  2.464285714285714 5.818181818181818  C 3.148809523809524 5.818181818181818  3.730654761904762 6.030303030303029  4.209821428571428 6.454545454545455  Z M 22.87806919642857 12.47159090909091  C 22.959356398809526 12.543560606060606  23 12.628787878787879  23 12.727272727272727  L 23 14.90909090909091  C 23 15.007575757575758  22.959356398809526 15.092803030303031  22.87806919642857 15.164772727272727  C 22.79678199404762 15.236742424242424  22.70052083333334 15.272727272727273  22.58928571428571 15  L 6.982142857142857 15  C 6.870907738095239 15.272727272727273  6.774646577380953 15.236742424242424  6.693359375 15.164772727272727  C 6.612072172619048 15.092803030303031  6.571428571428571 15.007575757575758  6.571428571428571 14.90909090909091  L 6.571428571428571 12.727272727272727  C 6.571428571428571 12.628787878787879  6.612072172619048 12.543560606060606  6.693359375 12.47159090909091  C 6.774646577380953 12.399621212121213  6.870907738095239 12.363636363636363  6.982142857142857 12.363636363636363  L 22.58928571428571 12.363636363636363  C 22.70052083333334 12.363636363636363  22.79678199404762 12.399621212121213  22.87806919642857 12.47159090909091  Z M 4.209821428571428 0.6363636363636367  C 4.688988095238095 1.0606060606060606  4.928571428571428 1.5757575757575744  4.928571428571428 2.1818181818181817  C 4.928571428571428 2.787878787878787  4.688988095238095 3.303030303030301  4.209821428571428 3.7272727272727266  C 3.730654761904762 4.1515151515151505  3.148809523809524 4.363636363636363  2.464285714285714 4.363636363636363  C 1.779761904761905 4.363636363636363  1.1979166666666667 4.1515151515151505  0.71875 3.7272727272727266  C 0.23958333333333331 3.303030303030301  0 2.787878787878787  0 2.1818181818181817  C 0 1.5757575757575744  0.23958333333333331 1.0606060606060606  0.71875 0.6363636363636367  C 1.1979166666666667 0.21212121212121104  1.779761904761905 0  2.464285714285714 0  C 3.148809523809524 0  3.730654761904762 0.21212121212121104  4.209821428571428 0.6363636363636367  Z M 22.87806919642857 6.653409090909092  C 22.959356398809526 6.725378787878787  23 6.8106060606060606  23 6.909090909090908  L 23 9.09090909090909  C 23 9.189393939393938  22.959356398809526 9.274621212121211  22.87806919642857 9.34659090909091  C 22.79678199404762 9.418560606060606  22.70052083333334 9.454545454545453  22.58928571428571 9.454545454545453  L 6.982142857142857 9.454545454545453  C 6.870907738095239 9.454545454545453  6.774646577380953 9.418560606060606  6.693359375 9.34659090909091  C 6.612072172619048 9.274621212121211  6.571428571428571 9.189393939393938  6.571428571428571 9.09090909090909  L 6.571428571428571 6.909090909090908  C 6.571428571428571 6.8106060606060606  6.612072172619048 6.725378787878787  6.693359375 6.653409090909092  C 6.774646577380953 6.5814393939393945  6.870907738095239 6.545454545454545  6.982142857142857 6.545454545454545  L 22.58928571428571 6.545454545454545  C 22.70052083333334 6.545454545454545  22.79678199404762 6.5814393939393945  22.87806919642857 6.653409090909092  Z M 22.87806919642857 0.8352272727272734  C 22.959356398809526 0.9071969696969688  23 0.9924242424242422  23 1.0909090909090917  L 23 3.2727272727272734  C 23 3.3712121212121193  22.959356398809526 3.4564393939393927  22.87806919642857 3.5284090909090917  C 22.79678199404762 3.600378787878787  22.70052083333334 3.6363636363636367  22.58928571428571 3.6363636363636367  L 6.982142857142857 3.6363636363636367  C 6.870907738095239 3.6363636363636367  6.774646577380953 3.600378787878787  6.693359375 3.5284090909090917  C 6.612072172619048 3.4564393939393927  6.571428571428571 3.3712121212121193  6.571428571428571 3.2727272727272734  L 6.571428571428571 1.0909090909090917  C 6.571428571428571 0.9924242424242422  6.612072172619048 0.9071969696969688  6.693359375 0.8352272727272734  C 6.774646577380953 0.7632575757575744  6.870907738095239 0.7272727272727266  6.982142857142857 1  L 22.58928571428571 1  C 22.70052083333334 0.7272727272727266  22.79678199404762 0.7632575757575744  22.87806919642857 0.8352272727272734  Z " fill-rule="evenodd" />
    </mask>
  </defs>
  <g transform="matrix(1 0 0 1 -306 -275 )">
    <path d="M 4.209821428571428 12.272727272727273  C 4.688988095238095 12.696969696969695  4.928571428571428 13.212121212121213  4.928571428571428 13.818181818181818  C 4.928571428571428 14.424242424242424  4.688988095238095 14.939393939393941  4.209821428571428 15.363636363636363  C 3.730654761904762 15.787878787878787  3.148809523809524 16  2.464285714285714 16  C 1.779761904761905 16  1.1979166666666667 15.787878787878787  0.71875 15.363636363636363  C 0.23958333333333331 14.939393939393941  0 14.424242424242424  0 13.818181818181818  C 0 13.212121212121213  0.23958333333333331 12.696969696969695  0.71875 12.272727272727273  C 1.1979166666666667 11.848484848484848  1.779761904761905 11.636363636363637  2.464285714285714 11.636363636363637  C 3.148809523809524 11.636363636363637  3.730654761904762 11.848484848484848  4.209821428571428 12.272727272727273  Z M 4.209821428571428 6.454545454545455  C 4.688988095238095 6.878787878787877  4.928571428571428 7.393939393939393  4.928571428571428 8  C 4.928571428571428 8.606060606060606  4.688988095238095 9.121212121212121  4.209821428571428 9.545454545454547  C 3.730654761904762 9.969696969696969  3.148809523809524 10.181818181818182  2.464285714285714 10.181818181818182  C 1.779761904761905 10.181818181818182  1.1979166666666667 9.969696969696969  0.71875 9.545454545454547  C 0.23958333333333331 9.121212121212121  0 8.606060606060606  0 8  C 0 7.393939393939393  0.23958333333333331 6.878787878787877  0.71875 6.454545454545455  C 1.1979166666666667 6.030303030303029  1.779761904761905 5.818181818181818  2.464285714285714 5.818181818181818  C 3.148809523809524 5.818181818181818  3.730654761904762 6.030303030303029  4.209821428571428 6.454545454545455  Z M 22.87806919642857 12.47159090909091  C 22.959356398809526 12.543560606060606  23 12.628787878787879  23 12.727272727272727  L 23 14.90909090909091  C 23 15.007575757575758  22.959356398809526 15.092803030303031  22.87806919642857 15.164772727272727  C 22.79678199404762 15.236742424242424  22.70052083333334 15.272727272727273  22.58928571428571 15  L 6.982142857142857 15  C 6.870907738095239 15.272727272727273  6.774646577380953 15.236742424242424  6.693359375 15.164772727272727  C 6.612072172619048 15.092803030303031  6.571428571428571 15.007575757575758  6.571428571428571 14.90909090909091  L 6.571428571428571 12.727272727272727  C 6.571428571428571 12.628787878787879  6.612072172619048 12.543560606060606  6.693359375 12.47159090909091  C 6.774646577380953 12.399621212121213  6.870907738095239 12.363636363636363  6.982142857142857 12.363636363636363  L 22.58928571428571 12.363636363636363  C 22.70052083333334 12.363636363636363  22.79678199404762 12.399621212121213  22.87806919642857 12.47159090909091  Z M 4.209821428571428 0.6363636363636367  C 4.688988095238095 1.0606060606060606  4.928571428571428 1.5757575757575744  4.928571428571428 2.1818181818181817  C 4.928571428571428 2.787878787878787  4.688988095238095 3.303030303030301  4.209821428571428 3.7272727272727266  C 3.730654761904762 4.1515151515151505  3.148809523809524 4.363636363636363  2.464285714285714 4.363636363636363  C 1.779761904761905 4.363636363636363  1.1979166666666667 4.1515151515151505  0.71875 3.7272727272727266  C 0.23958333333333331 3.303030303030301  0 2.787878787878787  0 2.1818181818181817  C 0 1.5757575757575744  0.23958333333333331 1.0606060606060606  0.71875 0.6363636363636367  C 1.1979166666666667 0.21212121212121104  1.779761904761905 0  2.464285714285714 0  C 3.148809523809524 0  3.730654761904762 0.21212121212121104  4.209821428571428 0.6363636363636367  Z M 22.87806919642857 6.653409090909092  C 22.959356398809526 6.725378787878787  23 6.8106060606060606  23 6.909090909090908  L 23 9.09090909090909  C 23 9.189393939393938  22.959356398809526 9.274621212121211  22.87806919642857 9.34659090909091  C 22.79678199404762 9.418560606060606  22.70052083333334 9.454545454545453  22.58928571428571 9.454545454545453  L 6.982142857142857 9.454545454545453  C 6.870907738095239 9.454545454545453  6.774646577380953 9.418560606060606  6.693359375 9.34659090909091  C 6.612072172619048 9.274621212121211  6.571428571428571 9.189393939393938  6.571428571428571 9.09090909090909  L 6.571428571428571 6.909090909090908  C 6.571428571428571 6.8106060606060606  6.612072172619048 6.725378787878787  6.693359375 6.653409090909092  C 6.774646577380953 6.5814393939393945  6.870907738095239 6.545454545454545  6.982142857142857 6.545454545454545  L 22.58928571428571 6.545454545454545  C 22.70052083333334 6.545454545454545  22.79678199404762 6.5814393939393945  22.87806919642857 6.653409090909092  Z M 22.87806919642857 0.8352272727272734  C 22.959356398809526 0.9071969696969688  23 0.9924242424242422  23 1.0909090909090917  L 23 3.2727272727272734  C 23 3.3712121212121193  22.959356398809526 3.4564393939393927  22.87806919642857 3.5284090909090917  C 22.79678199404762 3.600378787878787  22.70052083333334 3.6363636363636367  22.58928571428571 3.6363636363636367  L 6.982142857142857 3.6363636363636367  C 6.870907738095239 3.6363636363636367  6.774646577380953 3.600378787878787  6.693359375 3.5284090909090917  C 6.612072172619048 3.4564393939393927  6.571428571428571 3.3712121212121193  6.571428571428571 3.2727272727272734  L 6.571428571428571 1.0909090909090917  C 6.571428571428571 0.9924242424242422  6.612072172619048 0.9071969696969688  6.693359375 0.8352272727272734  C 6.774646577380953 0.7632575757575744  6.870907738095239 0.7272727272727266  6.982142857142857 1  L 22.58928571428571 1  C 22.70052083333334 0.7272727272727266  22.79678199404762 0.7632575757575744  22.87806919642857 0.8352272727272734  Z " fill-rule="nonzero" fill="rgba(0, 0, 0, 1)" stroke="none" transform="matrix(1 0 0 1 306 275 )" class="fill" />
    <path d="M 4.209821428571428 12.272727272727273  C 4.688988095238095 12.696969696969695  4.928571428571428 13.212121212121213  4.928571428571428 13.818181818181818  C 4.928571428571428 14.424242424242424  4.688988095238095 14.939393939393941  4.209821428571428 15.363636363636363  C 3.730654761904762 15.787878787878787  3.148809523809524 16  2.464285714285714 16  C 1.779761904761905 16  1.1979166666666667 15.787878787878787  0.71875 15.363636363636363  C 0.23958333333333331 14.939393939393941  0 14.424242424242424  0 13.818181818181818  C 0 13.212121212121213  0.23958333333333331 12.696969696969695  0.71875 12.272727272727273  C 1.1979166666666667 11.848484848484848  1.779761904761905 11.636363636363637  2.464285714285714 11.636363636363637  C 3.148809523809524 11.636363636363637  3.730654761904762 11.848484848484848  4.209821428571428 12.272727272727273  Z " stroke-width="0" stroke-dasharray="0" stroke="rgba(255, 255, 255, 0)" fill="none" transform="matrix(1 0 0 1 306 275 )" class="stroke" mask="url(#Clip364)" />
    <path d="M 4.209821428571428 6.454545454545455  C 4.688988095238095 6.878787878787877  4.928571428571428 7.393939393939393  4.928571428571428 8  C 4.928571428571428 8.606060606060606  4.688988095238095 9.121212121212121  4.209821428571428 9.545454545454547  C 3.730654761904762 9.969696969696969  3.148809523809524 10.181818181818182  2.464285714285714 10.181818181818182  C 1.779761904761905 10.181818181818182  1.1979166666666667 9.969696969696969  0.71875 9.545454545454547  C 0.23958333333333331 9.121212121212121  0 8.606060606060606  0 8  C 0 7.393939393939393  0.23958333333333331 6.878787878787877  0.71875 6.454545454545455  C 1.1979166666666667 6.030303030303029  1.779761904761905 5.818181818181818  2.464285714285714 5.818181818181818  C 3.148809523809524 5.818181818181818  3.730654761904762 6.030303030303029  4.209821428571428 6.454545454545455  Z " stroke-width="0" stroke-dasharray="0" stroke="rgba(255, 255, 255, 0)" fill="none" transform="matrix(1 0 0 1 306 275 )" class="stroke" mask="url(#Clip364)" />
    <path d="M 22.87806919642857 12.47159090909091  C 22.959356398809526 12.543560606060606  23 12.628787878787879  23 12.727272727272727  L 23 14.90909090909091  C 23 15.007575757575758  22.959356398809526 15.092803030303031  22.87806919642857 15.164772727272727  C 22.79678199404762 15.236742424242424  22.70052083333334 15.272727272727273  22.58928571428571 15  L 6.982142857142857 15  C 6.870907738095239 15.272727272727273  6.774646577380953 15.236742424242424  6.693359375 15.164772727272727  C 6.612072172619048 15.092803030303031  6.571428571428571 15.007575757575758  6.571428571428571 14.90909090909091  L 6.571428571428571 12.727272727272727  C 6.571428571428571 12.628787878787879  6.612072172619048 12.543560606060606  6.693359375 12.47159090909091  C 6.774646577380953 12.399621212121213  6.870907738095239 12.363636363636363  6.982142857142857 12.363636363636363  L 22.58928571428571 12.363636363636363  C 22.70052083333334 12.363636363636363  22.79678199404762 12.399621212121213  22.87806919642857 12.47159090909091  Z " stroke-width="0" stroke-dasharray="0" stroke="rgba(255, 255, 255, 0)" fill="none" transform="matrix(1 0 0 1 306 275 )" class="stroke" mask="url(#Clip364)" />
    <path d="M 4.209821428571428 0.6363636363636367  C 4.688988095238095 1.0606060606060606  4.928571428571428 1.5757575757575744  4.928571428571428 2.1818181818181817  C 4.928571428571428 2.787878787878787  4.688988095238095 3.303030303030301  4.209821428571428 3.7272727272727266  C 3.730654761904762 4.1515151515151505  3.148809523809524 4.363636363636363  2.464285714285714 4.363636363636363  C 1.779761904761905 4.363636363636363  1.1979166666666667 4.1515151515151505  0.71875 3.7272727272727266  C 0.23958333333333331 3.303030303030301  0 2.787878787878787  0 2.1818181818181817  C 0 1.5757575757575744  0.23958333333333331 1.0606060606060606  0.71875 0.6363636363636367  C 1.1979166666666667 0.21212121212121104  1.779761904761905 0  2.464285714285714 0  C 3.148809523809524 0  3.730654761904762 0.21212121212121104  4.209821428571428 0.6363636363636367  Z " stroke-width="0" stroke-dasharray="0" stroke="rgba(255, 255, 255, 0)" fill="none" transform="matrix(1 0 0 1 306 275 )" class="stroke" mask="url(#Clip364)" />
    <path d="M 22.87806919642857 6.653409090909092  C 22.959356398809526 6.725378787878787  23 6.8106060606060606  23 6.909090909090908  L 23 9.09090909090909  C 23 9.189393939393938  22.959356398809526 9.274621212121211  22.87806919642857 9.34659090909091  C 22.79678199404762 9.418560606060606  22.70052083333334 9.454545454545453  22.58928571428571 9.454545454545453  L 6.982142857142857 9.454545454545453  C 6.870907738095239 9.454545454545453  6.774646577380953 9.418560606060606  6.693359375 9.34659090909091  C 6.612072172619048 9.274621212121211  6.571428571428571 9.189393939393938  6.571428571428571 9.09090909090909  L 6.571428571428571 6.909090909090908  C 6.571428571428571 6.8106060606060606  6.612072172619048 6.725378787878787  6.693359375 6.653409090909092  C 6.774646577380953 6.5814393939393945  6.870907738095239 6.545454545454545  6.982142857142857 6.545454545454545  L 22.58928571428571 6.545454545454545  C 22.70052083333334 6.545454545454545  22.79678199404762 6.5814393939393945  22.87806919642857 6.653409090909092  Z " stroke-width="0" stroke-dasharray="0" stroke="rgba(255, 255, 255, 0)" fill="none" transform="matrix(1 0 0 1 306 275 )" class="stroke" mask="url(#Clip364)" />
    <path d="M 22.87806919642857 0.8352272727272734  C 22.959356398809526 0.9071969696969688  23 0.9924242424242422  23 1.0909090909090917  L 23 3.2727272727272734  C 23 3.3712121212121193  22.959356398809526 3.4564393939393927  22.87806919642857 3.5284090909090917  C 22.79678199404762 3.600378787878787  22.70052083333334 3.6363636363636367  22.58928571428571 3.6363636363636367  L 6.982142857142857 3.6363636363636367  C 6.870907738095239 3.6363636363636367  6.774646577380953 3.600378787878787  6.693359375 3.5284090909090917  C 6.612072172619048 3.4564393939393927  6.571428571428571 3.3712121212121193  6.571428571428571 3.2727272727272734  L 6.571428571428571 1.0909090909090917  C 6.571428571428571 0.9924242424242422  6.612072172619048 0.9071969696969688  6.693359375 0.8352272727272734  C 6.774646577380953 0.7632575757575744  6.870907738095239 0.7272727272727266  6.982142857142857 1  L 22.58928571428571 1  C 22.70052083333334 0.7272727272727266  22.79678199404762 0.7632575757575744  22.87806919642857 0.8352272727272734  Z " stroke-width="0" stroke-dasharray="0" stroke="rgba(255, 255, 255, 0)" fill="none" transform="matrix(1 0 0 1 306 275 )" class="stroke" mask="url(#Clip364)" />
  </g>
</svg>