<?xml version="1.0" encoding="utf-8"?>
<svg version="1.1" xmlns:xlink="http://www.w3.org/1999/xlink" width="26px" height="17px" xmlns="http://www.w3.org/2000/svg">
  <defs>
    <pattern id="BGPattern" patternUnits="userSpaceOnUse" alignment="0 0" imageRepeat="None" />
    <mask fill="white" id="Clip365">
      <path d="M 4.916150815981992 14.52103196859226  C 5.208778840742825 14.756216115161713  5.355092853123241 15.03589455973079  5.355092853123241 15.360067302299495  C 5.355092853123241 15.868573565152364  5.089289063965485 16.269022247149  4.557681485649971 16.5614133482894  C 4.026073907334459 16.853804449429802  3.365222284749578 17  2.575126617895329 17  C 1.5411742637403865 17  0.702307259425999 16.79024116657319  0.058525604952166674 16.370723499719574  L 0.8925154755205404 15.53168816601234  C 1.370474582629901 15.817722938867078  1.887450759707372 15.960740325294447  2.443444006752954 15.960740325294447  C 2.7263177640217595 15.960740325294447  2.9726130181954606 15.914656945223408  3.1823297692740575 15.822490185081323  C 3.3920465203526544 15.730323424939241  3.496904895891953 15.595251448868947  3.496904895891953 15.417274256870444  C 3.496904895891953 15.010469246588146  2.9848058525604952 14.832492054589643  1.96060776589758 14.883342680874929  L 1.5801913337084974 14.349411104879417  C 1.6582254736447195 14.285847822022808  1.816732320390171 14.147597681809684  2.0557118739448508 13.934660684240045  C 2.294691427499531 13.721723686670405  2.501969611705121 13.550102822957562  2.6775464265616207 13.419798093101514  C 2.8531232414181207 13.289493363245466  3.0335771900206345 13.167134043746495  3.2189082723691613 13.052720134604598  L 3.2189082723691613 13.043185642176109  C 3.062839992496718 13.043185642176109  2.8262990058150446 13.046363806318936  2.509285312324142 13.052720134604598  C 2.1922716188332396 13.05907646289026  1.9557306321515666 13.06225462703309  1.7996623522791222 13.06225462703309  L 1.7996623522791222 13.567582725743131  L 0.24873382104670805 13.567582725743131  L 0.24873382104670805 12.118339876612449  L 5.120990433314575 12.118339876612449  L 5.120990433314575 12.957375210319684  L 3.731007315700619 14.053841839596187  C 4.2284749577940355 14.130117779024118  4.623522791221159 14.285847822022808  4.916150815981992 14.52103196859226  Z M 3.848058525604952 9.381940549635445  L 5.384355655599324 9.381940549635445  L 5.384355655599324 10.897924845765562  L 0.08778840742824996 10.897924845765562  C 0.02926280247608339 10.669097027481772  0 10.497476163768928  0 10.383062254627033  C 0 10.058889512058327  0.11461264303132634 9.763320246775098  0.34383792909397876 9.49635445877734  C 0.5730632151566312 9.229388670779585  0.8486212718064154 9.013273509067114  1.1705120990433313 8.848008973639931  C 1.4924029262802476 8.68274443821275  1.8142937535171637 8.531781641428303  2.13618458075408 8.395120583286594  C 2.458075407990996 8.258459525144886  2.7336334646407807 8.120209384931762  2.9628587507034325 7.980370162647223  C 3.1920840367660857 7.840530940362685  3.306696679797411 7.697513553935314  3.306696679797411 7.551318003365115  C 3.306696679797411 7.392409796223592  3.2359782404802107 7.270050476724621  3.0945413618458075 7.184240044868199  C 2.953104483211405 7.098429613011778  2.760457700243857 7.055524397083567  2.5166010129431626 7.055524397083567  C 2.067904708309886 7.055524397083567  1.6728568748827612 7.239857917367733  1.3314575126617896 7.608524957936063  L 0.08778840742824996 7.045989904655076  C 0.32189082723691625 6.721817162086371  0.6706058900769089 6.469153112731351  1.1339335959482275 6.287997756590016  C 1.5972613018195463 6.106842400448682  2.1117989120240104 6.016264722378014  2.6775464265616207 6.016264722378014  C 3.389607953479648 6.016264722378014  3.9894954042393547 6.148158534305477  4.477208778840743 6.411946158160404  C 4.9649221534421315 6.675733782015328  5.208778840742825 7.0332772480837535  5.208778840742825 7.484576556365676  C 5.208778840742825 7.80239297064872  5.042956293378353 8.093194989717702  4.711311198649409 8.35698261357263  C 4.379666103920465 8.620770237427555  4.013881072969425 8.82576182464012  3.6139561057962855 8.97195737521032  C 3.214031138623148 9.118152925780517  2.8458075407991 9.278650214993457  2.509285312324142 9.453449242849132  C 2.172763083849184 9.628248270704805  1.9996248358656914 9.795101888203401  1.9898705683736633 9.954010095344925  L 3.848058525604952 9.954010095344925  L 3.848058525604952 9.381940549635445  Z M 25.861001688238602 12.208917554683117  C 25.953667229412872 12.269302673396895  26 12.340811366610582  26 12.423443634324173  L 26 14.254066180594505  C 26 14.336698448308097  25.953667229412872 14.40820714152178  25.861001688238602 14.468592260235557  C 25.768336147064343 14.528977378949335  25.65860063777903 14.559169938306225  25.531795160382668 14.559169938306225  L 7.740011254924029 14.559169938306225  C 7.613205777527668 14.559169938306225  7.503470268242357 14.528977378949335  7.410804727068092 14.468592260235557  C 7.318139185893829 14.40820714152178  7.271806415306696 14.336698448308097  7.271806415306696 14.254066180594505  L 7.271806415306696 12.423443634324173  C 7.271806415306696 12.33445503832492  7.315700619020822 12.261357263039821  7.403489026449071 12.204150308468872  C 7.491277433877322 12.146943353897925  7.603451510035642 12.118339876612449  7.740011254924029 12  L 25.531795160382668 12  C 25.65860063777903 12.118339876612449  25.768336147064343 12.14853243596934  25.861001688238602 12.208917554683117  Z M 3.818795723128869 3.851934941110489  L 5.398987056837367 3.851934941110489  L 5.398987056837367 4.795849691531127  L 0.497467642093416 4.795849691531127  L 0.497467642093416 3.851934941110489  L 2.0630275745638715 3.851934941110489  C 2.0630275745638715 3.59132548139839  2.065466141436879 3.2051785380444935  2.0703432751828927 2.6934941110487935  C 2.0752204089289066 2.1818096840530936  2.0776589758019135 1.795662740699195  2.0776589758019135 1.5350532809871003  L 2.0776589758019135 1.4206393718452055  L 2.04839617332583 1.4206393718452055  C 1.9703620333896084 1.5286969527014391  1.726505346088914 1.700317816414282  1.316826111423748 1.9355019629837362  L 0.2779966235227913 1.2108805384183958  L 2.267867191896455 0  L 3.818795723128869 0  L 3.818795723128869 3.851934941110489  Z M 25.861001688238602 7.327257431295569  C 25.953667229412872 7.387642550009346  26 7.459151243223031  26 7.541783510936624  L 26 9.372406057206955  C 26 9.455038324920547  25.953667229412872 9.52654701813423  25.861001688238602 9.586932136848008  C 25.768336147064343 9.647317255561786  25.65860063777903 9.677509814918677  25.531795160382668 9.677509814918677  L 7.740011254924029 9.677509814918677  C 7.613205777527668 9.677509814918677  7.503470268242357 9.647317255561786  7.410804727068092 9.586932136848008  C 7.318139185893829 9.52654701813423  7.271806415306696 9.455038324920547  7.271806415306696 9.372406057206955  L 7.271806415306696 7.541783510936624  C 7.271806415306696 7.452794914937371  7.315700619020822 7.379697139652271  7.403489026449071 7.322490185081323  C 7.491277433877322 7.265283230510375  7.603451510035642 7.236679753224902  7.740011254924029 7.236679753224902  L 25.531795160382668 7.236679753224902  C 25.65860063777903 7.236679753224902  25.768336147064343 7.266872312581792  25.861001688238602 7.327257431295569  Z M 25.861001688238602 2.445597307908021  C 25.953667229412872 2.505982426621798  26 2.5774911198354817  26 2.6601233875490746  L 26 4.490745933819406  C 26 4.573378201532995  25.953667229412872 4.644886894746681  25.861001688238602 4.705272013460459  C 25.768336147064343 4.765657132174239  25.65860063777903 4.795849691531127  25.531795160382668 5  L 7.740011254924029 5  C 7.613205777527668 4.795849691531127  7.503470268242357 4.765657132174239  7.410804727068092 4.705272013460459  C 7.318139185893829 4.644886894746681  7.271806415306696 4.573378201532995  7.271806415306696 4.490745933819406  L 7.271806415306696 2.6601233875490746  C 7.271806415306696 2.5774911198354817  7.318139185893829 2.505982426621798  7.410804727068092 2.445597307908021  C 7.503470268242357 2.38521218919424  7.613205777527668 2.3550196298373534  7.740011254924029 2.3550196298373534  L 25.531795160382668 2.3550196298373534  C 25.65860063777903 2.3550196298373534  25.768336147064343 2.38521218919424  25.861001688238602 2.445597307908021  Z " fill-rule="evenodd" />
    </mask>
  </defs>
  <g transform="matrix(1 0 0 1 -344 -275 )">
    <path d="M 4.916150815981992 14.52103196859226  C 5.208778840742825 14.756216115161713  5.355092853123241 15.03589455973079  5.355092853123241 15.360067302299495  C 5.355092853123241 15.868573565152364  5.089289063965485 16.269022247149  4.557681485649971 16.5614133482894  C 4.026073907334459 16.853804449429802  3.365222284749578 17  2.575126617895329 17  C 1.5411742637403865 17  0.702307259425999 16.79024116657319  0.058525604952166674 16.370723499719574  L 0.8925154755205404 15.53168816601234  C 1.370474582629901 15.817722938867078  1.887450759707372 15.960740325294447  2.443444006752954 15.960740325294447  C 2.7263177640217595 15.960740325294447  2.9726130181954606 15.914656945223408  3.1823297692740575 15.822490185081323  C 3.3920465203526544 15.730323424939241  3.496904895891953 15.595251448868947  3.496904895891953 15.417274256870444  C 3.496904895891953 15.010469246588146  2.9848058525604952 14.832492054589643  1.96060776589758 14.883342680874929  L 1.5801913337084974 14.349411104879417  C 1.6582254736447195 14.285847822022808  1.816732320390171 14.147597681809684  2.0557118739448508 13.934660684240045  C 2.294691427499531 13.721723686670405  2.501969611705121 13.550102822957562  2.6775464265616207 13.419798093101514  C 2.8531232414181207 13.289493363245466  3.0335771900206345 13.167134043746495  3.2189082723691613 13.052720134604598  L 3.2189082723691613 13.043185642176109  C 3.062839992496718 13.043185642176109  2.8262990058150446 13.046363806318936  2.509285312324142 13.052720134604598  C 2.1922716188332396 13.05907646289026  1.9557306321515666 13.06225462703309  1.7996623522791222 13.06225462703309  L 1.7996623522791222 13.567582725743131  L 0.24873382104670805 13.567582725743131  L 0.24873382104670805 12.118339876612449  L 5.120990433314575 12.118339876612449  L 5.120990433314575 12.957375210319684  L 3.731007315700619 14.053841839596187  C 4.2284749577940355 14.130117779024118  4.623522791221159 14.285847822022808  4.916150815981992 14.52103196859226  Z M 3.848058525604952 9.381940549635445  L 5.384355655599324 9.381940549635445  L 5.384355655599324 10.897924845765562  L 0.08778840742824996 10.897924845765562  C 0.02926280247608339 10.669097027481772  0 10.497476163768928  0 10.383062254627033  C 0 10.058889512058327  0.11461264303132634 9.763320246775098  0.34383792909397876 9.49635445877734  C 0.5730632151566312 9.229388670779585  0.8486212718064154 9.013273509067114  1.1705120990433313 8.848008973639931  C 1.4924029262802476 8.68274443821275  1.8142937535171637 8.531781641428303  2.13618458075408 8.395120583286594  C 2.458075407990996 8.258459525144886  2.7336334646407807 8.120209384931762  2.9628587507034325 7.980370162647223  C 3.1920840367660857 7.840530940362685  3.306696679797411 7.697513553935314  3.306696679797411 7.551318003365115  C 3.306696679797411 7.392409796223592  3.2359782404802107 7.270050476724621  3.0945413618458075 7.184240044868199  C 2.953104483211405 7.098429613011778  2.760457700243857 7.055524397083567  2.5166010129431626 7.055524397083567  C 2.067904708309886 7.055524397083567  1.6728568748827612 7.239857917367733  1.3314575126617896 7.608524957936063  L 0.08778840742824996 7.045989904655076  C 0.32189082723691625 6.721817162086371  0.6706058900769089 6.469153112731351  1.1339335959482275 6.287997756590016  C 1.5972613018195463 6.106842400448682  2.1117989120240104 6.016264722378014  2.6775464265616207 6.016264722378014  C 3.389607953479648 6.016264722378014  3.9894954042393547 6.148158534305477  4.477208778840743 6.411946158160404  C 4.9649221534421315 6.675733782015328  5.208778840742825 7.0332772480837535  5.208778840742825 7.484576556365676  C 5.208778840742825 7.80239297064872  5.042956293378353 8.093194989717702  4.711311198649409 8.35698261357263  C 4.379666103920465 8.620770237427555  4.013881072969425 8.82576182464012  3.6139561057962855 8.97195737521032  C 3.214031138623148 9.118152925780517  2.8458075407991 9.278650214993457  2.509285312324142 9.453449242849132  C 2.172763083849184 9.628248270704805  1.9996248358656914 9.795101888203401  1.9898705683736633 9.954010095344925  L 3.848058525604952 9.954010095344925  L 3.848058525604952 9.381940549635445  Z M 25.861001688238602 12.208917554683117  C 25.953667229412872 12.269302673396895  26 12.340811366610582  26 12.423443634324173  L 26 14.254066180594505  C 26 14.336698448308097  25.953667229412872 14.40820714152178  25.861001688238602 14.468592260235557  C 25.768336147064343 14.528977378949335  25.65860063777903 14.559169938306225  25.531795160382668 14.559169938306225  L 7.740011254924029 14.559169938306225  C 7.613205777527668 14.559169938306225  7.503470268242357 14.528977378949335  7.410804727068092 14.468592260235557  C 7.318139185893829 14.40820714152178  7.271806415306696 14.336698448308097  7.271806415306696 14.254066180594505  L 7.271806415306696 12.423443634324173  C 7.271806415306696 12.33445503832492  7.315700619020822 12.261357263039821  7.403489026449071 12.204150308468872  C 7.491277433877322 12.146943353897925  7.603451510035642 12.118339876612449  7.740011254924029 12  L 25.531795160382668 12  C 25.65860063777903 12.118339876612449  25.768336147064343 12.14853243596934  25.861001688238602 12.208917554683117  Z M 3.818795723128869 3.851934941110489  L 5.398987056837367 3.851934941110489  L 5.398987056837367 4.795849691531127  L 0.497467642093416 4.795849691531127  L 0.497467642093416 3.851934941110489  L 2.0630275745638715 3.851934941110489  C 2.0630275745638715 3.59132548139839  2.065466141436879 3.2051785380444935  2.0703432751828927 2.6934941110487935  C 2.0752204089289066 2.1818096840530936  2.0776589758019135 1.795662740699195  2.0776589758019135 1.5350532809871003  L 2.0776589758019135 1.4206393718452055  L 2.04839617332583 1.4206393718452055  C 1.9703620333896084 1.5286969527014391  1.726505346088914 1.700317816414282  1.316826111423748 1.9355019629837362  L 0.2779966235227913 1.2108805384183958  L 2.267867191896455 0  L 3.818795723128869 0  L 3.818795723128869 3.851934941110489  Z M 25.861001688238602 7.327257431295569  C 25.953667229412872 7.387642550009346  26 7.459151243223031  26 7.541783510936624  L 26 9.372406057206955  C 26 9.455038324920547  25.953667229412872 9.52654701813423  25.861001688238602 9.586932136848008  C 25.768336147064343 9.647317255561786  25.65860063777903 9.677509814918677  25.531795160382668 9.677509814918677  L 7.740011254924029 9.677509814918677  C 7.613205777527668 9.677509814918677  7.503470268242357 9.647317255561786  7.410804727068092 9.586932136848008  C 7.318139185893829 9.52654701813423  7.271806415306696 9.455038324920547  7.271806415306696 9.372406057206955  L 7.271806415306696 7.541783510936624  C 7.271806415306696 7.452794914937371  7.315700619020822 7.379697139652271  7.403489026449071 7.322490185081323  C 7.491277433877322 7.265283230510375  7.603451510035642 7.236679753224902  7.740011254924029 7.236679753224902  L 25.531795160382668 7.236679753224902  C 25.65860063777903 7.236679753224902  25.768336147064343 7.266872312581792  25.861001688238602 7.327257431295569  Z M 25.861001688238602 2.445597307908021  C 25.953667229412872 2.505982426621798  26 2.5774911198354817  26 2.6601233875490746  L 26 4.490745933819406  C 26 4.573378201532995  25.953667229412872 4.644886894746681  25.861001688238602 4.705272013460459  C 25.768336147064343 4.765657132174239  25.65860063777903 4.795849691531127  25.531795160382668 5  L 7.740011254924029 5  C 7.613205777527668 4.795849691531127  7.503470268242357 4.765657132174239  7.410804727068092 4.705272013460459  C 7.318139185893829 4.644886894746681  7.271806415306696 4.573378201532995  7.271806415306696 4.490745933819406  L 7.271806415306696 2.6601233875490746  C 7.271806415306696 2.5774911198354817  7.318139185893829 2.505982426621798  7.410804727068092 2.445597307908021  C 7.503470268242357 2.38521218919424  7.613205777527668 2.3550196298373534  7.740011254924029 2.3550196298373534  L 25.531795160382668 2.3550196298373534  C 25.65860063777903 2.3550196298373534  25.768336147064343 2.38521218919424  25.861001688238602 2.445597307908021  Z " fill-rule="nonzero" fill="rgba(0, 0, 0, 1)" stroke="none" transform="matrix(1 0 0 1 344 275 )" class="fill" />
    <path d="M 4.916150815981992 14.52103196859226  C 5.208778840742825 14.756216115161713  5.355092853123241 15.03589455973079  5.355092853123241 15.360067302299495  C 5.355092853123241 15.868573565152364  5.089289063965485 16.269022247149  4.557681485649971 16.5614133482894  C 4.026073907334459 16.853804449429802  3.365222284749578 17  2.575126617895329 17  C 1.5411742637403865 17  0.702307259425999 16.79024116657319  0.058525604952166674 16.370723499719574  L 0.8925154755205404 15.53168816601234  C 1.370474582629901 15.817722938867078  1.887450759707372 15.960740325294447  2.443444006752954 15.960740325294447  C 2.7263177640217595 15.960740325294447  2.9726130181954606 15.914656945223408  3.1823297692740575 15.822490185081323  C 3.3920465203526544 15.730323424939241  3.496904895891953 15.595251448868947  3.496904895891953 15.417274256870444  C 3.496904895891953 15.010469246588146  2.9848058525604952 14.832492054589643  1.96060776589758 14.883342680874929  L 1.5801913337084974 14.349411104879417  C 1.6582254736447195 14.285847822022808  1.816732320390171 14.147597681809684  2.0557118739448508 13.934660684240045  C 2.294691427499531 13.721723686670405  2.501969611705121 13.550102822957562  2.6775464265616207 13.419798093101514  C 2.8531232414181207 13.289493363245466  3.0335771900206345 13.167134043746495  3.2189082723691613 13.052720134604598  L 3.2189082723691613 13.043185642176109  C 3.062839992496718 13.043185642176109  2.8262990058150446 13.046363806318936  2.509285312324142 13.052720134604598  C 2.1922716188332396 13.05907646289026  1.9557306321515666 13.06225462703309  1.7996623522791222 13.06225462703309  L 1.7996623522791222 13.567582725743131  L 0.24873382104670805 13.567582725743131  L 0.24873382104670805 12.118339876612449  L 5.120990433314575 12.118339876612449  L 5.120990433314575 12.957375210319684  L 3.731007315700619 14.053841839596187  C 4.2284749577940355 14.130117779024118  4.623522791221159 14.285847822022808  4.916150815981992 14.52103196859226  Z " stroke-width="0" stroke-dasharray="0" stroke="rgba(255, 255, 255, 0)" fill="none" transform="matrix(1 0 0 1 344 275 )" class="stroke" mask="url(#Clip365)" />
    <path d="M 3.848058525604952 9.381940549635445  L 5.384355655599324 9.381940549635445  L 5.384355655599324 10.897924845765562  L 0.08778840742824996 10.897924845765562  C 0.02926280247608339 10.669097027481772  0 10.497476163768928  0 10.383062254627033  C 0 10.058889512058327  0.11461264303132634 9.763320246775098  0.34383792909397876 9.49635445877734  C 0.5730632151566312 9.229388670779585  0.8486212718064154 9.013273509067114  1.1705120990433313 8.848008973639931  C 1.4924029262802476 8.68274443821275  1.8142937535171637 8.531781641428303  2.13618458075408 8.395120583286594  C 2.458075407990996 8.258459525144886  2.7336334646407807 8.120209384931762  2.9628587507034325 7.980370162647223  C 3.1920840367660857 7.840530940362685  3.306696679797411 7.697513553935314  3.306696679797411 7.551318003365115  C 3.306696679797411 7.392409796223592  3.2359782404802107 7.270050476724621  3.0945413618458075 7.184240044868199  C 2.953104483211405 7.098429613011778  2.760457700243857 7.055524397083567  2.5166010129431626 7.055524397083567  C 2.067904708309886 7.055524397083567  1.6728568748827612 7.239857917367733  1.3314575126617896 7.608524957936063  L 0.08778840742824996 7.045989904655076  C 0.32189082723691625 6.721817162086371  0.6706058900769089 6.469153112731351  1.1339335959482275 6.287997756590016  C 1.5972613018195463 6.106842400448682  2.1117989120240104 6.016264722378014  2.6775464265616207 6.016264722378014  C 3.389607953479648 6.016264722378014  3.9894954042393547 6.148158534305477  4.477208778840743 6.411946158160404  C 4.9649221534421315 6.675733782015328  5.208778840742825 7.0332772480837535  5.208778840742825 7.484576556365676  C 5.208778840742825 7.80239297064872  5.042956293378353 8.093194989717702  4.711311198649409 8.35698261357263  C 4.379666103920465 8.620770237427555  4.013881072969425 8.82576182464012  3.6139561057962855 8.97195737521032  C 3.214031138623148 9.118152925780517  2.8458075407991 9.278650214993457  2.509285312324142 9.453449242849132  C 2.172763083849184 9.628248270704805  1.9996248358656914 9.795101888203401  1.9898705683736633 9.954010095344925  L 3.848058525604952 9.954010095344925  L 3.848058525604952 9.381940549635445  Z " stroke-width="0" stroke-dasharray="0" stroke="rgba(255, 255, 255, 0)" fill="none" transform="matrix(1 0 0 1 344 275 )" class="stroke" mask="url(#Clip365)" />
    <path d="M 25.861001688238602 12.208917554683117  C 25.953667229412872 12.269302673396895  26 12.340811366610582  26 12.423443634324173  L 26 14.254066180594505  C 26 14.336698448308097  25.953667229412872 14.40820714152178  25.861001688238602 14.468592260235557  C 25.768336147064343 14.528977378949335  25.65860063777903 14.559169938306225  25.531795160382668 14.559169938306225  L 7.740011254924029 14.559169938306225  C 7.613205777527668 14.559169938306225  7.503470268242357 14.528977378949335  7.410804727068092 14.468592260235557  C 7.318139185893829 14.40820714152178  7.271806415306696 14.336698448308097  7.271806415306696 14.254066180594505  L 7.271806415306696 12.423443634324173  C 7.271806415306696 12.33445503832492  7.315700619020822 12.261357263039821  7.403489026449071 12.204150308468872  C 7.491277433877322 12.146943353897925  7.603451510035642 12.118339876612449  7.740011254924029 12  L 25.531795160382668 12  C 25.65860063777903 12.118339876612449  25.768336147064343 12.14853243596934  25.861001688238602 12.208917554683117  Z " stroke-width="0" stroke-dasharray="0" stroke="rgba(255, 255, 255, 0)" fill="none" transform="matrix(1 0 0 1 344 275 )" class="stroke" mask="url(#Clip365)" />
    <path d="M 3.818795723128869 3.851934941110489  L 5.398987056837367 3.851934941110489  L 5.398987056837367 4.795849691531127  L 0.497467642093416 4.795849691531127  L 0.497467642093416 3.851934941110489  L 2.0630275745638715 3.851934941110489  C 2.0630275745638715 3.59132548139839  2.065466141436879 3.2051785380444935  2.0703432751828927 2.6934941110487935  C 2.0752204089289066 2.1818096840530936  2.0776589758019135 1.795662740699195  2.0776589758019135 1.5350532809871003  L 2.0776589758019135 1.4206393718452055  L 2.04839617332583 1.4206393718452055  C 1.9703620333896084 1.5286969527014391  1.726505346088914 1.700317816414282  1.316826111423748 1.9355019629837362  L 0.2779966235227913 1.2108805384183958  L 2.267867191896455 0  L 3.818795723128869 0  L 3.818795723128869 3.851934941110489  Z " stroke-width="0" stroke-dasharray="0" stroke="rgba(255, 255, 255, 0)" fill="none" transform="matrix(1 0 0 1 344 275 )" class="stroke" mask="url(#Clip365)" />
    <path d="M 25.861001688238602 7.327257431295569  C 25.953667229412872 7.387642550009346  26 7.459151243223031  26 7.541783510936624  L 26 9.372406057206955  C 26 9.455038324920547  25.953667229412872 9.52654701813423  25.861001688238602 9.586932136848008  C 25.768336147064343 9.647317255561786  25.65860063777903 9.677509814918677  25.531795160382668 9.677509814918677  L 7.740011254924029 9.677509814918677  C 7.613205777527668 9.677509814918677  7.503470268242357 9.647317255561786  7.410804727068092 9.586932136848008  C 7.318139185893829 9.52654701813423  7.271806415306696 9.455038324920547  7.271806415306696 9.372406057206955  L 7.271806415306696 7.541783510936624  C 7.271806415306696 7.452794914937371  7.315700619020822 7.379697139652271  7.403489026449071 7.322490185081323  C 7.491277433877322 7.265283230510375  7.603451510035642 7.236679753224902  7.740011254924029 7.236679753224902  L 25.531795160382668 7.236679753224902  C 25.65860063777903 7.236679753224902  25.768336147064343 7.266872312581792  25.861001688238602 7.327257431295569  Z " stroke-width="0" stroke-dasharray="0" stroke="rgba(255, 255, 255, 0)" fill="none" transform="matrix(1 0 0 1 344 275 )" class="stroke" mask="url(#Clip365)" />
    <path d="M 25.861001688238602 2.445597307908021  C 25.953667229412872 2.505982426621798  26 2.5774911198354817  26 2.6601233875490746  L 26 4.490745933819406  C 26 4.573378201532995  25.953667229412872 4.644886894746681  25.861001688238602 4.705272013460459  C 25.768336147064343 4.765657132174239  25.65860063777903 4.795849691531127  25.531795160382668 5  L 7.740011254924029 5  C 7.613205777527668 4.795849691531127  7.503470268242357 4.765657132174239  7.410804727068092 4.705272013460459  C 7.318139185893829 4.644886894746681  7.271806415306696 4.573378201532995  7.271806415306696 4.490745933819406  L 7.271806415306696 2.6601233875490746  C 7.271806415306696 2.5774911198354817  7.318139185893829 2.505982426621798  7.410804727068092 2.445597307908021  C 7.503470268242357 2.38521218919424  7.613205777527668 2.3550196298373534  7.740011254924029 2.3550196298373534  L 25.531795160382668 2.3550196298373534  C 25.65860063777903 2.3550196298373534  25.768336147064343 2.38521218919424  25.861001688238602 2.445597307908021  Z " stroke-width="0" stroke-dasharray="0" stroke="rgba(255, 255, 255, 0)" fill="none" transform="matrix(1 0 0 1 344 275 )" class="stroke" mask="url(#Clip365)" />
  </g>
</svg>