<?xml version="1.0" encoding="utf-8"?>
<svg version="1.1" xmlns:xlink="http://www.w3.org/1999/xlink" width="18px" height="18px" viewBox="397 611 18 18" xmlns="http://www.w3.org/2000/svg">
  <path d="M 397 613  A 2 2 0 0 1 399 611 L 413 611  A 2 2 0 0 1 415 613 L 415 627  A 2 2 0 0 1 413 629 L 399 629  A 2 2 0 0 1 397 627 L 397 613  Z " fill-rule="nonzero" fill="rgba(116, 131, 209, 1)" stroke="none" class="fill" />
  <path d="M 397 613  A 2 2 0 0 1 399 611 L 413 611  A 2 2 0 0 1 415 613 L 415 627  A 2 2 0 0 1 413 629 L 399 629  A 2 2 0 0 1 397 627 L 397 613  Z " stroke-width="0" stroke-dasharray="0" stroke="rgba(255, 255, 255, 1)" fill="none" class="stroke" />
  <path d="M 400.85714285714283 620  L 404.7142857142857 623.8571428571428  L 411.14285714285717 614.8571428571429  " stroke-width="3.8571428571428577" stroke-dasharray="0" stroke="rgba(255, 255, 255, 1)" fill="none" class="stroke btn_check" />
</svg>