<?xml version="1.0" encoding="utf-8"?>
<svg version="1.1" xmlns:xlink="http://www.w3.org/1999/xlink" width="18px" height="18px" viewBox="397 651 18 18" xmlns="http://www.w3.org/2000/svg">
  <path d="M 397 653  A 2 2 0 0 1 399 651 L 413 651  A 2 2 0 0 1 415 653 L 415 667  A 2 2 0 0 1 413 669 L 399 669  A 2 2 0 0 1 397 667 L 397 653  Z " fill-rule="nonzero" fill="rgba(255, 255, 255, 0)" stroke="none" class="fill" />
  <path d="M 398 653  A 1 1 0 0 1 399 652 L 413 652  A 1 1 0 0 1 414 653 L 414 667  A 1 1 0 0 1 413 668 L 399 668  A 1 1 0 0 1 398 667 L 398 653  Z " stroke-width="2" stroke-dasharray="0" stroke="rgba(116, 131, 209, 1)" fill="none" class="stroke" />
  <path d="M 400.85714285714283 660  L 404.7142857142857 663.8571428571428  L 411.14285714285717 654.8571428571429  " stroke-width="3.8571428571428577" stroke-dasharray="0" stroke="rgba(116, 131, 209, 1)" fill="none" class="stroke btn_check" />
</svg>