<?xml version="1.0" encoding="utf-8"?>
<svg version="1.1" xmlns:xlink="http://www.w3.org/1999/xlink" width="24px" height="25px" xmlns="http://www.w3.org/2000/svg">
  <defs>
    <pattern id="BGPattern" patternUnits="userSpaceOnUse" alignment="0 0" imageRepeat="None" />
    <mask fill="white" id="Clip356">
      <path d="M 2.175 0  L 21.825000000000003 0  C 22.112500000000004 0  22.387500000000003 0.04957038995373475  22.65 0.14871116986120425  C 23.0625 0.2919145186164318  23.390625 0.5177351839612238  23.634375 0.8261731658955718  C 23.878124999999997 1.134611147829917  24 1.4760960564000865  24 1.8506278916060799  L 24 23.14937210839392  C 24 23.523903943599915  23.878124999999997 23.86538885217008  23.634375 24.17382683410443  C 23.390625 24.482264816038775  23.0625 24.708085481383563  22.65 24.851288830138795  C 22.4125 24.939413967834323  22.137500000000003 24.98347653668209  21.825000000000003 24.98347653668209  C 21.225 24.98347653668209  20.706250000000004 24.80722626129103  20.268749999999997 24.454725710508924  L 12 17.448777263714472  L 3.7312499999999997 24.454725710508924  C 3.28125 24.818241903502976  2.7625 25  2.175 25  C 1.8875 25  1.6124999999999998 24.950429610046264  1.35 24.851288830138795  C 0.9375 24.708085481383563  0.609375 24.482264816038775  0.365625 24.17382683410443  C 0.12187500000000001 23.86538885217008  0 23.523903943599915  0 23.14937210839392  L 0 1.8506278916060799  C 0 1.4760960564000865  0.12187500000000001 1.134611147829917  0.365625 0.8261731658955718  C 0.609375 0.5177351839612238  0.9375 0.2919145186164318  1.35 0.14871116986120425  C 1.6124999999999998 0.04957038995373475  1.8875 0  2.175 0  Z " fill-rule="evenodd" />
    </mask>
  </defs>
  <g transform="matrix(1 0 0 1 -284 -847 )">
    <path d="M 2.175 0  L 21.825000000000003 0  C 22.112500000000004 0  22.387500000000003 0.04957038995373475  22.65 0.14871116986120425  C 23.0625 0.2919145186164318  23.390625 0.5177351839612238  23.634375 0.8261731658955718  C 23.878124999999997 1.134611147829917  24 1.4760960564000865  24 1.8506278916060799  L 24 23.14937210839392  C 24 23.523903943599915  23.878124999999997 23.86538885217008  23.634375 24.17382683410443  C 23.390625 24.482264816038775  23.0625 24.708085481383563  22.65 24.851288830138795  C 22.4125 24.939413967834323  22.137500000000003 24.98347653668209  21.825000000000003 24.98347653668209  C 21.225 24.98347653668209  20.706250000000004 24.80722626129103  20.268749999999997 24.454725710508924  L 12 17.448777263714472  L 3.7312499999999997 24.454725710508924  C 3.28125 24.818241903502976  2.7625 25  2.175 25  C 1.8875 25  1.6124999999999998 24.950429610046264  1.35 24.851288830138795  C 0.9375 24.708085481383563  0.609375 24.482264816038775  0.365625 24.17382683410443  C 0.12187500000000001 23.86538885217008  0 23.523903943599915  0 23.14937210839392  L 0 1.8506278916060799  C 0 1.4760960564000865  0.12187500000000001 1.134611147829917  0.365625 0.8261731658955718  C 0.609375 0.5177351839612238  0.9375 0.2919145186164318  1.35 0.14871116986120425  C 1.6124999999999998 0.04957038995373475  1.8875 0  2.175 0  Z " fill-rule="nonzero" fill="rgba(0, 0, 0, 1)" stroke="none" transform="matrix(1 0 0 1 284 847 )" class="fill" />
    <path d="M 2.175 0  L 21.825000000000003 0  C 22.112500000000004 0  22.387500000000003 0.04957038995373475  22.65 0.14871116986120425  C 23.0625 0.2919145186164318  23.390625 0.5177351839612238  23.634375 0.8261731658955718  C 23.878124999999997 1.134611147829917  24 1.4760960564000865  24 1.8506278916060799  L 24 23.14937210839392  C 24 23.523903943599915  23.878124999999997 23.86538885217008  23.634375 24.17382683410443  C 23.390625 24.482264816038775  23.0625 24.708085481383563  22.65 24.851288830138795  C 22.4125 24.939413967834323  22.137500000000003 24.98347653668209  21.825000000000003 24.98347653668209  C 21.225 24.98347653668209  20.706250000000004 24.80722626129103  20.268749999999997 24.454725710508924  L 12 17.448777263714472  L 3.7312499999999997 24.454725710508924  C 3.28125 24.818241903502976  2.7625 25  2.175 25  C 1.8875 25  1.6124999999999998 24.950429610046264  1.35 24.851288830138795  C 0.9375 24.708085481383563  0.609375 24.482264816038775  0.365625 24.17382683410443  C 0.12187500000000001 23.86538885217008  0 23.523903943599915  0 23.14937210839392  L 0 1.8506278916060799  C 0 1.4760960564000865  0.12187500000000001 1.134611147829917  0.365625 0.8261731658955718  C 0.609375 0.5177351839612238  0.9375 0.2919145186164318  1.35 0.14871116986120425  C 1.6124999999999998 0.04957038995373475  1.8875 0  2.175 0  Z " stroke-width="2" stroke-dasharray="0" stroke="rgba(255, 255, 255, 0)" fill="none" transform="matrix(1 0 0 1 284 847 )" class="stroke" mask="url(#Clip356)" />
  </g>
</svg>