<?xml version="1.0" encoding="utf-8"?>
<svg version="1.1" xmlns:xlink="http://www.w3.org/1999/xlink" width="36px" height="35px" xmlns="http://www.w3.org/2000/svg">
  <defs>
    <pattern id="BGPattern" patternUnits="userSpaceOnUse" alignment="0 0" imageRepeat="None" />
    <mask fill="white" id="Clip338">
      <path d="M 28.0546875 19.983723958333336  C 28.3515625 19.69509548611111  28.5 19.35329861111111  28.5 18.958333333333336  L 28.5 16.041666666666668  C 28.5 15.646701388888888  28.3515625 15.304904513888888  28.0546875 15.016276041666668  C 27.757812500000004 14.727647569444445  27.406250000000004 14.583333333333332  27 14.583333333333332  L 21 14.583333333333332  L 21 8.75  C 21 8.355034722222218  20.851562500000004 8.013237847222218  20.5546875 7.724609375  C 20.257812500000004 7.435980902777778  19.906250000000004 7.291666666666668  19.5 7.291666666666668  L 16.5 7.291666666666668  C 16.09375 7.291666666666668  15.742187500000002 7.435980902777778  15.4453125 7.724609375  C 15.1484375 8.013237847222218  15 8.355034722222218  15 8.75  L 15 14.583333333333332  L 9 14.583333333333332  C 8.59375 14.583333333333332  8.2421875 14.727647569444445  7.9453125 15.016276041666668  C 7.648437500000001 15.304904513888888  7.5 15.646701388888888  7.5 16.041666666666668  L 7.5 18.958333333333336  C 7.5 19.35329861111111  7.648437500000001 19.69509548611111  7.9453125 19.983723958333336  C 8.2421875 20.272352430555554  8.59375 20.416666666666664  9 20.416666666666664  L 15 20.416666666666664  L 15 26.25  C 15 26.64496527777778  15.1484375 26.98676215277778  15.4453125 27.275390625  C 15.742187500000002 27.56401909722222  16.09375 27.708333333333332  16.5 27.708333333333332  L 19.5 27.708333333333332  C 19.906250000000004 27.708333333333332  20.257812500000004 27.56401909722222  20.5546875 27.275390625  C 20.851562500000004 26.98676215277778  21 26.64496527777778  21 26.25  L 21 20.416666666666664  L 27 20.416666666666664  C 27.406250000000004 20.416666666666664  27.757812500000004 20.272352430555554  28.0546875 19.983723958333336  Z M 33.5859375 8.7158203125  C 35.19531249999999 11.397026909722218  36 14.32508680555555  36 17.5  C 36 20.674913194444446  35.19531249999999 23.602973090277775  33.5859375 26.2841796875  C 31.976562500000004 28.96538628472222  29.79296875 31.08832465277778  27.03515625 32.65299479166667  C 24.277343750000004 34.21766493055556  21.265625 35  18 35  C 14.734375000000002 35  11.72265625 34.21766493055556  8.96484375 32.65299479166667  C 6.207031250000001 31.08832465277778  4.0234375 28.96538628472222  2.4140625 26.2841796875  C 0.8046874999999999 23.602973090277775  0 20.674913194444446  0 17.5  C 0 14.32508680555555  0.8046874999999999 11.397026909722218  2.4140625 8.7158203125  C 4.0234375 6.034613715277778  6.207031250000001 3.9116753472222188  8.96484375 2.347005208333332  C 11.72265625 0.7823350694444414  14.734375000000002 0  18 0  C 21.265625 0  24.277343750000004 0.7823350694444414  27.03515625 2.347005208333332  C 29.79296875 3.9116753472222188  31.976562500000004 6.034613715277778  33.5859375 8.7158203125  Z " fill-rule="evenodd" />
    </mask>
  </defs>
  <g transform="matrix(1 0 0 1 -1213 -63 )">
    <path d="M 28.0546875 19.983723958333336  C 28.3515625 19.69509548611111  28.5 19.35329861111111  28.5 18.958333333333336  L 28.5 16.041666666666668  C 28.5 15.646701388888888  28.3515625 15.304904513888888  28.0546875 15.016276041666668  C 27.757812500000004 14.727647569444445  27.406250000000004 14.583333333333332  27 14.583333333333332  L 21 14.583333333333332  L 21 8.75  C 21 8.355034722222218  20.851562500000004 8.013237847222218  20.5546875 7.724609375  C 20.257812500000004 7.435980902777778  19.906250000000004 7.291666666666668  19.5 7.291666666666668  L 16.5 7.291666666666668  C 16.09375 7.291666666666668  15.742187500000002 7.435980902777778  15.4453125 7.724609375  C 15.1484375 8.013237847222218  15 8.355034722222218  15 8.75  L 15 14.583333333333332  L 9 14.583333333333332  C 8.59375 14.583333333333332  8.2421875 14.727647569444445  7.9453125 15.016276041666668  C 7.648437500000001 15.304904513888888  7.5 15.646701388888888  7.5 16.041666666666668  L 7.5 18.958333333333336  C 7.5 19.35329861111111  7.648437500000001 19.69509548611111  7.9453125 19.983723958333336  C 8.2421875 20.272352430555554  8.59375 20.416666666666664  9 20.416666666666664  L 15 20.416666666666664  L 15 26.25  C 15 26.64496527777778  15.1484375 26.98676215277778  15.4453125 27.275390625  C 15.742187500000002 27.56401909722222  16.09375 27.708333333333332  16.5 27.708333333333332  L 19.5 27.708333333333332  C 19.906250000000004 27.708333333333332  20.257812500000004 27.56401909722222  20.5546875 27.275390625  C 20.851562500000004 26.98676215277778  21 26.64496527777778  21 26.25  L 21 20.416666666666664  L 27 20.416666666666664  C 27.406250000000004 20.416666666666664  27.757812500000004 20.272352430555554  28.0546875 19.983723958333336  Z M 33.5859375 8.7158203125  C 35.19531249999999 11.397026909722218  36 14.32508680555555  36 17.5  C 36 20.674913194444446  35.19531249999999 23.602973090277775  33.5859375 26.2841796875  C 31.976562500000004 28.96538628472222  29.79296875 31.08832465277778  27.03515625 32.65299479166667  C 24.277343750000004 34.21766493055556  21.265625 35  18 35  C 14.734375000000002 35  11.72265625 34.21766493055556  8.96484375 32.65299479166667  C 6.207031250000001 31.08832465277778  4.0234375 28.96538628472222  2.4140625 26.2841796875  C 0.8046874999999999 23.602973090277775  0 20.674913194444446  0 17.5  C 0 14.32508680555555  0.8046874999999999 11.397026909722218  2.4140625 8.7158203125  C 4.0234375 6.034613715277778  6.207031250000001 3.9116753472222188  8.96484375 2.347005208333332  C 11.72265625 0.7823350694444414  14.734375000000002 0  18 0  C 21.265625 0  24.277343750000004 0.7823350694444414  27.03515625 2.347005208333332  C 29.79296875 3.9116753472222188  31.976562500000004 6.034613715277778  33.5859375 8.7158203125  Z " fill-rule="nonzero" fill="rgba(0, 0, 0, 1)" stroke="none" transform="matrix(1 0 0 1 1213 63 )" class="fill" />
    <path d="M 28.0546875 19.983723958333336  C 28.3515625 19.69509548611111  28.5 19.35329861111111  28.5 18.958333333333336  L 28.5 16.041666666666668  C 28.5 15.646701388888888  28.3515625 15.304904513888888  28.0546875 15.016276041666668  C 27.757812500000004 14.727647569444445  27.406250000000004 14.583333333333332  27 14.583333333333332  L 21 14.583333333333332  L 21 8.75  C 21 8.355034722222218  20.851562500000004 8.013237847222218  20.5546875 7.724609375  C 20.257812500000004 7.435980902777778  19.906250000000004 7.291666666666668  19.5 7.291666666666668  L 16.5 7.291666666666668  C 16.09375 7.291666666666668  15.742187500000002 7.435980902777778  15.4453125 7.724609375  C 15.1484375 8.013237847222218  15 8.355034722222218  15 8.75  L 15 14.583333333333332  L 9 14.583333333333332  C 8.59375 14.583333333333332  8.2421875 14.727647569444445  7.9453125 15.016276041666668  C 7.648437500000001 15.304904513888888  7.5 15.646701388888888  7.5 16.041666666666668  L 7.5 18.958333333333336  C 7.5 19.35329861111111  7.648437500000001 19.69509548611111  7.9453125 19.983723958333336  C 8.2421875 20.272352430555554  8.59375 20.416666666666664  9 20.416666666666664  L 15 20.416666666666664  L 15 26.25  C 15 26.64496527777778  15.1484375 26.98676215277778  15.4453125 27.275390625  C 15.742187500000002 27.56401909722222  16.09375 27.708333333333332  16.5 27.708333333333332  L 19.5 27.708333333333332  C 19.906250000000004 27.708333333333332  20.257812500000004 27.56401909722222  20.5546875 27.275390625  C 20.851562500000004 26.98676215277778  21 26.64496527777778  21 26.25  L 21 20.416666666666664  L 27 20.416666666666664  C 27.406250000000004 20.416666666666664  27.757812500000004 20.272352430555554  28.0546875 19.983723958333336  Z " stroke-width="0" stroke-dasharray="0" stroke="rgba(255, 255, 255, 0)" fill="none" transform="matrix(1 0 0 1 1213 63 )" class="stroke" mask="url(#Clip338)" />
    <path d="M 33.5859375 8.7158203125  C 35.19531249999999 11.397026909722218  36 14.32508680555555  36 17.5  C 36 20.674913194444446  35.19531249999999 23.602973090277775  33.5859375 26.2841796875  C 31.976562500000004 28.96538628472222  29.79296875 31.08832465277778  27.03515625 32.65299479166667  C 24.277343750000004 34.21766493055556  21.265625 35  18 35  C 14.734375000000002 35  11.72265625 34.21766493055556  8.96484375 32.65299479166667  C 6.207031250000001 31.08832465277778  4.0234375 28.96538628472222  2.4140625 26.2841796875  C 0.8046874999999999 23.602973090277775  0 20.674913194444446  0 17.5  C 0 14.32508680555555  0.8046874999999999 11.397026909722218  2.4140625 8.7158203125  C 4.0234375 6.034613715277778  6.207031250000001 3.9116753472222188  8.96484375 2.347005208333332  C 11.72265625 0.7823350694444414  14.734375000000002 0  18 0  C 21.265625 0  24.277343750000004 0.7823350694444414  27.03515625 2.347005208333332  C 29.79296875 3.9116753472222188  31.976562500000004 6.034613715277778  33.5859375 8.7158203125  Z " stroke-width="0" stroke-dasharray="0" stroke="rgba(255, 255, 255, 0)" fill="none" transform="matrix(1 0 0 1 1213 63 )" class="stroke" mask="url(#Clip338)" />
  </g>
</svg>