<?xml version="1.0" encoding="utf-8"?>
<svg version="1.1" xmlns:xlink="http://www.w3.org/1999/xlink" width="30px" height="30px" xmlns="http://www.w3.org/2000/svg">
  <defs>
    <pattern id="BGPattern" patternUnits="userSpaceOnUse" alignment="0 0" imageRepeat="None" />
    <mask fill="white" id="Clip340">
      <path d="M 18.549107142857142 22.51674107142857  C 19.263392857142858 22.918526785714285  19.715401785714285 22.706473214285715  19.90513392857143 21.880580357142858  L 22.36607142857143 10.279017857142858  C 22.466517857142858 9.787946428571425  22.407924107142858 9.436383928571425  22.19029017857143 9.224330357142858  C 21.97265625 9.012276785714285  21.685267857142858 8.973214285714286  21.328125 9.107142857142858  L 6.863839285714286 14.681919642857142  C 6.540178571428571 14.804687499999998  6.319754464285714 14.944196428571427  6.202566964285714 15.100446428571429  C 6.085379464285714 15.256696428571427  6.071428571428571 15.404575892857144  6.160714285714286 15.544084821428571  C 6.25 15.683593749999998  6.428571428571428 15.792410714285714  6.696428571428572 15.870535714285715  L 10.396205357142856 17.025669642857142  L 18.984375 11.618303571428571  C 19.21875 11.46205357142857  19.39732142857143 11.428571428571425  19.52008928571429 11.517857142857142  C 19.598214285714285 11.573660714285714  19.575892857142858 11.65736607142857  19.453125 11.768973214285714  L 12.505580357142856 18.046875  L 12.237723214285715 21.863839285714285  C 12.494419642857142 21.863839285714285  12.745535714285715 21.741071428571427  12.991071428571429 21.495535714285715  L 14.799107142857144 19.754464285714285  L 18.549107142857142 22.51674107142857  Z M 28.81138392857143 9.174107142857142  C 29.603794642857146 11.026785714285712  30 12.968749999999998  30 15  C 30 17.031249999999996  29.603794642857146 18.973214285714285  28.81138392857143 20.825892857142858  C 28.01897321428572 22.678571428571427  26.953125000000004 24.27455357142857  25.61383928571429 25.613839285714285  C 24.27455357142857 26.953125  22.67857142857143 28.018973214285715  20.825892857142858 28.81138392857143  C 18.97321428571429 29.603794642857142  17.03125 30  15 30  C 12.96875 30  11.026785714285715 29.603794642857142  9.174107142857144 28.81138392857143  C 7.321428571428572 28.018973214285715  5.725446428571428 26.953125  4.386160714285714 25.613839285714285  C 3.046875 24.27455357142857  1.9810267857142858 22.678571428571427  1.1886160714285714 20.825892857142858  C 0.3962053571428571 18.973214285714285  0 17.031249999999996  0 15  C 0 12.968749999999998  0.3962053571428571 11.026785714285712  1.1886160714285714 9.174107142857142  C 1.9810267857142858 7.3214285714285685  3.046875 5.725446428571429  4.386160714285714 4.386160714285713  C 5.725446428571428 3.046875  7.321428571428572 1.981026785714285  9.174107142857144 1.188616071428571  C 11.026785714285715 0.396205357142857  12.96875 0  15 0  C 17.03125 0  18.97321428571429 0.396205357142857  20.825892857142858 1.188616071428571  C 22.67857142857143 1.981026785714285  24.27455357142857 3.046875  25.61383928571429 4.386160714285713  C 26.953125000000004 5.725446428571429  28.01897321428572 7.3214285714285685  28.81138392857143 9.174107142857142  Z " fill-rule="evenodd" />
    </mask>
  </defs>
  <g transform="matrix(1 0 0 1 -1261 -1215 )">
    <path d="M 18.549107142857142 22.51674107142857  C 19.263392857142858 22.918526785714285  19.715401785714285 22.706473214285715  19.90513392857143 21.880580357142858  L 22.36607142857143 10.279017857142858  C 22.466517857142858 9.787946428571425  22.407924107142858 9.436383928571425  22.19029017857143 9.224330357142858  C 21.97265625 9.012276785714285  21.685267857142858 8.973214285714286  21.328125 9.107142857142858  L 6.863839285714286 14.681919642857142  C 6.540178571428571 14.804687499999998  6.319754464285714 14.944196428571427  6.202566964285714 15.100446428571429  C 6.085379464285714 15.256696428571427  6.071428571428571 15.404575892857144  6.160714285714286 15.544084821428571  C 6.25 15.683593749999998  6.428571428571428 15.792410714285714  6.696428571428572 15.870535714285715  L 10.396205357142856 17.025669642857142  L 18.984375 11.618303571428571  C 19.21875 11.46205357142857  19.39732142857143 11.428571428571425  19.52008928571429 11.517857142857142  C 19.598214285714285 11.573660714285714  19.575892857142858 11.65736607142857  19.453125 11.768973214285714  L 12.505580357142856 18.046875  L 12.237723214285715 21.863839285714285  C 12.494419642857142 21.863839285714285  12.745535714285715 21.741071428571427  12.991071428571429 21.495535714285715  L 14.799107142857144 19.754464285714285  L 18.549107142857142 22.51674107142857  Z M 28.81138392857143 9.174107142857142  C 29.603794642857146 11.026785714285712  30 12.968749999999998  30 15  C 30 17.031249999999996  29.603794642857146 18.973214285714285  28.81138392857143 20.825892857142858  C 28.01897321428572 22.678571428571427  26.953125000000004 24.27455357142857  25.61383928571429 25.613839285714285  C 24.27455357142857 26.953125  22.67857142857143 28.018973214285715  20.825892857142858 28.81138392857143  C 18.97321428571429 29.603794642857142  17.03125 30  15 30  C 12.96875 30  11.026785714285715 29.603794642857142  9.174107142857144 28.81138392857143  C 7.321428571428572 28.018973214285715  5.725446428571428 26.953125  4.386160714285714 25.613839285714285  C 3.046875 24.27455357142857  1.9810267857142858 22.678571428571427  1.1886160714285714 20.825892857142858  C 0.3962053571428571 18.973214285714285  0 17.031249999999996  0 15  C 0 12.968749999999998  0.3962053571428571 11.026785714285712  1.1886160714285714 9.174107142857142  C 1.9810267857142858 7.3214285714285685  3.046875 5.725446428571429  4.386160714285714 4.386160714285713  C 5.725446428571428 3.046875  7.321428571428572 1.981026785714285  9.174107142857144 1.188616071428571  C 11.026785714285715 0.396205357142857  12.96875 0  15 0  C 17.03125 0  18.97321428571429 0.396205357142857  20.825892857142858 1.188616071428571  C 22.67857142857143 1.981026785714285  24.27455357142857 3.046875  25.61383928571429 4.386160714285713  C 26.953125000000004 5.725446428571429  28.01897321428572 7.3214285714285685  28.81138392857143 9.174107142857142  Z " fill-rule="nonzero" fill="rgba(0, 0, 0, 1)" stroke="none" transform="matrix(1 0 0 1 1261 1215 )" class="fill" />
    <path d="M 18.549107142857142 22.51674107142857  C 19.263392857142858 22.918526785714285  19.715401785714285 22.706473214285715  19.90513392857143 21.880580357142858  L 22.36607142857143 10.279017857142858  C 22.466517857142858 9.787946428571425  22.407924107142858 9.436383928571425  22.19029017857143 9.224330357142858  C 21.97265625 9.012276785714285  21.685267857142858 8.973214285714286  21.328125 9.107142857142858  L 6.863839285714286 14.681919642857142  C 6.540178571428571 14.804687499999998  6.319754464285714 14.944196428571427  6.202566964285714 15.100446428571429  C 6.085379464285714 15.256696428571427  6.071428571428571 15.404575892857144  6.160714285714286 15.544084821428571  C 6.25 15.683593749999998  6.428571428571428 15.792410714285714  6.696428571428572 15.870535714285715  L 10.396205357142856 17.025669642857142  L 18.984375 11.618303571428571  C 19.21875 11.46205357142857  19.39732142857143 11.428571428571425  19.52008928571429 11.517857142857142  C 19.598214285714285 11.573660714285714  19.575892857142858 11.65736607142857  19.453125 11.768973214285714  L 12.505580357142856 18.046875  L 12.237723214285715 21.863839285714285  C 12.494419642857142 21.863839285714285  12.745535714285715 21.741071428571427  12.991071428571429 21.495535714285715  L 14.799107142857144 19.754464285714285  L 18.549107142857142 22.51674107142857  Z " stroke-width="2" stroke-dasharray="0" stroke="rgba(255, 255, 255, 0)" fill="none" transform="matrix(1 0 0 1 1261 1215 )" class="stroke" mask="url(#Clip340)" />
    <path d="M 28.81138392857143 9.174107142857142  C 29.603794642857146 11.026785714285712  30 12.968749999999998  30 15  C 30 17.031249999999996  29.603794642857146 18.973214285714285  28.81138392857143 20.825892857142858  C 28.01897321428572 22.678571428571427  26.953125000000004 24.27455357142857  25.61383928571429 25.613839285714285  C 24.27455357142857 26.953125  22.67857142857143 28.018973214285715  20.825892857142858 28.81138392857143  C 18.97321428571429 29.603794642857142  17.03125 30  15 30  C 12.96875 30  11.026785714285715 29.603794642857142  9.174107142857144 28.81138392857143  C 7.321428571428572 28.018973214285715  5.725446428571428 26.953125  4.386160714285714 25.613839285714285  C 3.046875 24.27455357142857  1.9810267857142858 22.678571428571427  1.1886160714285714 20.825892857142858  C 0.3962053571428571 18.973214285714285  0 17.031249999999996  0 15  C 0 12.968749999999998  0.3962053571428571 11.026785714285712  1.1886160714285714 9.174107142857142  C 1.9810267857142858 7.3214285714285685  3.046875 5.725446428571429  4.386160714285714 4.386160714285713  C 5.725446428571428 3.046875  7.321428571428572 1.981026785714285  9.174107142857144 1.188616071428571  C 11.026785714285715 0.396205357142857  12.96875 0  15 0  C 17.03125 0  18.97321428571429 0.396205357142857  20.825892857142858 1.188616071428571  C 22.67857142857143 1.981026785714285  24.27455357142857 3.046875  25.61383928571429 4.386160714285713  C 26.953125000000004 5.725446428571429  28.01897321428572 7.3214285714285685  28.81138392857143 9.174107142857142  Z " stroke-width="2" stroke-dasharray="0" stroke="rgba(255, 255, 255, 0)" fill="none" transform="matrix(1 0 0 1 1261 1215 )" class="stroke" mask="url(#Clip340)" />
  </g>
</svg>