<?xml version="1.0" encoding="utf-8"?>
<svg version="1.1" xmlns:xlink="http://www.w3.org/1999/xlink" width="30px" height="30px" xmlns="http://www.w3.org/2000/svg">
  <defs>
    <pattern id="BGPattern" patternUnits="userSpaceOnUse" alignment="0 0" imageRepeat="None" />
    <mask fill="white" id="Clip344">
      <path d="M 12 8.547619047619047  L 12 20.523809523809526  L 20 14.571428571428573  L 12 8.547619047619047  Z M 4.51505016722408 0.42857142857142705  C 7.313266443701227 0.14285714285714235  10.808249721293198 0  15 0  C 16.872909698996654 0  18.681716833890746 0.03571428571428559  20.426421404682273 0.10714285714285676  C 22.171125975473807 0.17857142857142794  23.450390189520625 0.25396825396825196  24.26421404682274 0.33333333333333215  L 25.484949832775918 0.42857142857142705  C 25.49609810479376 0.42857142857142705  25.590858416945377 0.4404761904761889  25.769230769230766 0.46428571428571264  C 25.947603121516167 0.4880952380952397  26.075808249721298 0.5119047619047634  26.153846153846153 0.5357142857142871  C 26.231884057971016 0.5595238095238109  26.362876254180602 0.5952380952380965  26.546822742474916 0.6428571428571439  C 26.730769230769234 0.6904761904761914  26.88963210702341 0.7539682539682502  27.023411371237458 0.8333333333333337  C 27.157190635451506 0.9126984126984106  27.313266443701227 1.0158730158730112  27.49163879598662 1.1428571428571421  C 27.67001114827202 1.2698412698412664  27.8428093645485 1.424603174603174  28.010033444816052 1.607142857142858  C 28.177257525083615 1.7896825396825355  28.338907469342256 1.9999999999999996  28.494983277591974 2.238095238095237  C 28.561872909698995 2.3333333333333317  28.648272017837236 2.4801587301587267  28.75418060200669 2.678571428571429  C 28.860089186176147 2.8769841269841248  29.021739130434785 3.3412698412698405  29.23913043478261 4.07142857142857  C 29.456521739130437 4.801587301587297  29.604236343366782 5.603174603174601  29.682274247491637 6.476190476190476  C 29.77146042363434 7.492063492063491  29.841137123745824 8.575396825396824  29.891304347826086 9.726190476190474  C 29.94147157190636 10.876984126984127  29.97212931995541 11.777777777777775  29.98327759197324 12.428571428571427  L 29.98327759197324 13.38095238095238  L 29.98327759197324 16.61904761904762  C 29.994425863991083 18.920634920634917  29.894091415830548 21.22222222222222  29.682274247491637 23.523809523809522  C 29.604236343366782 24.3968253968254  29.464882943143817 25.186507936507933  29.264214046822744 25.892857142857146  C 29.063545150501678 26.59920634920635  28.885172798216278 27.08730158730159  28.729096989966553 27.357142857142858  L 28.494983277591974 27.761904761904763  C 28.338907469342256 28  28.177257525083615 28.21031746031746  28.010033444816052 28.392857142857142  C 27.8428093645485 28.575396825396826  27.67001114827202 28.726190476190478  27.49163879598662 28.845238095238095  C 27.313266443701227 28.964285714285715  27.157190635451506 29.063492063492067  27.023411371237458 29.142857142857142  C 26.88963210702341 29.222222222222218  26.730769230769234 29.285714285714285  26.546822742474916 29.333333333333332  C 26.362876254180602 29.38095238095238  26.229096989966553 29.416666666666664  26.145484949832777 29.44047619047619  C 26.061872909698998 29.46428571428571  25.93366778149387 29.488095238095237  25.76086956521739 29.51190476190476  C 25.588071348940915 29.53571428571429  25.49609810479376 29.54761904761905  25.484949832775918 29.54761904761905  C 22.686733556298773 29.84920634920635  19.1917502787068 30  15 30  C 12.692307692307692 29.968253968253972  10.68840579710145 29.916666666666668  8.988294314381271 29.845238095238095  C 7.288182831661093 29.773809523809526  6.170568561872909 29.714285714285715  5.635451505016722 29.666666666666668  L 4.816053511705686 29.571428571428573  L 4.214046822742475 29.476190476190474  C 3.8127090301003346 29.3968253968254  3.50891861761427 29.317460317460313  3.3026755852842813 29.238095238095237  C 3.096432552954292 29.15873015873016  2.8121516164994427 28.992063492063494  2.4498327759197323 28.73809523809524  C 2.0875139353400223 28.48412698412698  1.7725752508361203 28.15873015873016  1.5050167224080269 27.761904761904763  C 1.4381270903010033 27.666666666666668  1.3517279821627648 27.51984126984127  1.2458193979933112 27.32142857142857  C 1.1399108138238574 27.123015873015877  0.9782608695652174 26.658730158730158  0.7608695652173914 25.92857142857143  C 0.5434782608695652 25.198412698412696  0.3957636566332219 24.3968253968254  0.3177257525083612 23.523809523809522  C 0.22853957636566335 22.507936507936506  0.15886287625418063 21.424603174603174  0.10869565217391304 20.273809523809526  C 0.05852842809364549 19.123015873015866  0.027870680044593088 18.22222222222222  0.016722408026755852 17.57142857142857  L 0.016722408026755852 16.61904761904762  L 0.016722408026755852 13.38095238095238  C 0.005574136008918616 11.079365079365077  0.10590858416945373 8.777777777777775  0.3177257525083612 6.476190476190476  C 0.3957636566332219 5.603174603174601  0.5351170568561873 4.813492063492059  0.7357859531772575 4.107142857142856  C 0.9364548494983278 3.40079365079365  1.1148272017837235 2.9126984126984103  1.2709030100334449 2.6428571428571432  L 1.5050167224080269 2.238095238095237  C 1.6610925306577482 1.9999999999999996  1.8227424749163879 1.7896825396825355  1.9899665551839465 1.607142857142858  C 2.1571906354515047 1.424603174603174  2.329988851727982 1.2698412698412664  2.508361204013378 1.1428571428571421  C 2.686733556298774 1.0158730158730112  2.842809364548495 0.9126984126984106  2.9765886287625416 0.8333333333333337  C 3.1103678929765888 0.7539682539682502  3.269230769230769 0.6904761904761914  3.4531772575250836 0.6428571428571439  C 3.6371237458193986 0.5952380952380965  3.7681159420289863 0.5595238095238109  3.846153846153846 0.5357142857142871  C 3.9241917502787067 0.5119047619047634  4.052396878483836 0.4880952380952397  4.230769230769231 0.46428571428571264  C 4.409141583054627 0.4404761904761889  4.503901895206244 0.42857142857142705  4.51505016722408 0.42857142857142705  Z " fill-rule="evenodd" />
    </mask>
  </defs>
  <g transform="matrix(1 0 0 1 -1223 -1217 )">
    <path d="M 12 8.547619047619047  L 12 20.523809523809526  L 20 14.571428571428573  L 12 8.547619047619047  Z M 4.51505016722408 0.42857142857142705  C 7.313266443701227 0.14285714285714235  10.808249721293198 0  15 0  C 16.872909698996654 0  18.681716833890746 0.03571428571428559  20.426421404682273 0.10714285714285676  C 22.171125975473807 0.17857142857142794  23.450390189520625 0.25396825396825196  24.26421404682274 0.33333333333333215  L 25.484949832775918 0.42857142857142705  C 25.49609810479376 0.42857142857142705  25.590858416945377 0.4404761904761889  25.769230769230766 0.46428571428571264  C 25.947603121516167 0.4880952380952397  26.075808249721298 0.5119047619047634  26.153846153846153 0.5357142857142871  C 26.231884057971016 0.5595238095238109  26.362876254180602 0.5952380952380965  26.546822742474916 0.6428571428571439  C 26.730769230769234 0.6904761904761914  26.88963210702341 0.7539682539682502  27.023411371237458 0.8333333333333337  C 27.157190635451506 0.9126984126984106  27.313266443701227 1.0158730158730112  27.49163879598662 1.1428571428571421  C 27.67001114827202 1.2698412698412664  27.8428093645485 1.424603174603174  28.010033444816052 1.607142857142858  C 28.177257525083615 1.7896825396825355  28.338907469342256 1.9999999999999996  28.494983277591974 2.238095238095237  C 28.561872909698995 2.3333333333333317  28.648272017837236 2.4801587301587267  28.75418060200669 2.678571428571429  C 28.860089186176147 2.8769841269841248  29.021739130434785 3.3412698412698405  29.23913043478261 4.07142857142857  C 29.456521739130437 4.801587301587297  29.604236343366782 5.603174603174601  29.682274247491637 6.476190476190476  C 29.77146042363434 7.492063492063491  29.841137123745824 8.575396825396824  29.891304347826086 9.726190476190474  C 29.94147157190636 10.876984126984127  29.97212931995541 11.777777777777775  29.98327759197324 12.428571428571427  L 29.98327759197324 13.38095238095238  L 29.98327759197324 16.61904761904762  C 29.994425863991083 18.920634920634917  29.894091415830548 21.22222222222222  29.682274247491637 23.523809523809522  C 29.604236343366782 24.3968253968254  29.464882943143817 25.186507936507933  29.264214046822744 25.892857142857146  C 29.063545150501678 26.59920634920635  28.885172798216278 27.08730158730159  28.729096989966553 27.357142857142858  L 28.494983277591974 27.761904761904763  C 28.338907469342256 28  28.177257525083615 28.21031746031746  28.010033444816052 28.392857142857142  C 27.8428093645485 28.575396825396826  27.67001114827202 28.726190476190478  27.49163879598662 28.845238095238095  C 27.313266443701227 28.964285714285715  27.157190635451506 29.063492063492067  27.023411371237458 29.142857142857142  C 26.88963210702341 29.222222222222218  26.730769230769234 29.285714285714285  26.546822742474916 29.333333333333332  C 26.362876254180602 29.38095238095238  26.229096989966553 29.416666666666664  26.145484949832777 29.44047619047619  C 26.061872909698998 29.46428571428571  25.93366778149387 29.488095238095237  25.76086956521739 29.51190476190476  C 25.588071348940915 29.53571428571429  25.49609810479376 29.54761904761905  25.484949832775918 29.54761904761905  C 22.686733556298773 29.84920634920635  19.1917502787068 30  15 30  C 12.692307692307692 29.968253968253972  10.68840579710145 29.916666666666668  8.988294314381271 29.845238095238095  C 7.288182831661093 29.773809523809526  6.170568561872909 29.714285714285715  5.635451505016722 29.666666666666668  L 4.816053511705686 29.571428571428573  L 4.214046822742475 29.476190476190474  C 3.8127090301003346 29.3968253968254  3.50891861761427 29.317460317460313  3.3026755852842813 29.238095238095237  C 3.096432552954292 29.15873015873016  2.8121516164994427 28.992063492063494  2.4498327759197323 28.73809523809524  C 2.0875139353400223 28.48412698412698  1.7725752508361203 28.15873015873016  1.5050167224080269 27.761904761904763  C 1.4381270903010033 27.666666666666668  1.3517279821627648 27.51984126984127  1.2458193979933112 27.32142857142857  C 1.1399108138238574 27.123015873015877  0.9782608695652174 26.658730158730158  0.7608695652173914 25.92857142857143  C 0.5434782608695652 25.198412698412696  0.3957636566332219 24.3968253968254  0.3177257525083612 23.523809523809522  C 0.22853957636566335 22.507936507936506  0.15886287625418063 21.424603174603174  0.10869565217391304 20.273809523809526  C 0.05852842809364549 19.123015873015866  0.027870680044593088 18.22222222222222  0.016722408026755852 17.57142857142857  L 0.016722408026755852 16.61904761904762  L 0.016722408026755852 13.38095238095238  C 0.005574136008918616 11.079365079365077  0.10590858416945373 8.777777777777775  0.3177257525083612 6.476190476190476  C 0.3957636566332219 5.603174603174601  0.5351170568561873 4.813492063492059  0.7357859531772575 4.107142857142856  C 0.9364548494983278 3.40079365079365  1.1148272017837235 2.9126984126984103  1.2709030100334449 2.6428571428571432  L 1.5050167224080269 2.238095238095237  C 1.6610925306577482 1.9999999999999996  1.8227424749163879 1.7896825396825355  1.9899665551839465 1.607142857142858  C 2.1571906354515047 1.424603174603174  2.329988851727982 1.2698412698412664  2.508361204013378 1.1428571428571421  C 2.686733556298774 1.0158730158730112  2.842809364548495 0.9126984126984106  2.9765886287625416 0.8333333333333337  C 3.1103678929765888 0.7539682539682502  3.269230769230769 0.6904761904761914  3.4531772575250836 0.6428571428571439  C 3.6371237458193986 0.5952380952380965  3.7681159420289863 0.5595238095238109  3.846153846153846 0.5357142857142871  C 3.9241917502787067 0.5119047619047634  4.052396878483836 0.4880952380952397  4.230769230769231 0.46428571428571264  C 4.409141583054627 0.4404761904761889  4.503901895206244 0.42857142857142705  4.51505016722408 0.42857142857142705  Z " fill-rule="nonzero" fill="rgba(0, 0, 0, 1)" stroke="none" transform="matrix(1 0 0 1 1223 1217 )" class="fill" />
    <path d="M 12 8.547619047619047  L 12 20.523809523809526  L 20 14.571428571428573  L 12 8.547619047619047  Z " stroke-width="2" stroke-dasharray="0" stroke="rgba(255, 255, 255, 0)" fill="none" transform="matrix(1 0 0 1 1223 1217 )" class="stroke" mask="url(#Clip344)" />
    <path d="M 4.51505016722408 0.42857142857142705  C 7.313266443701227 0.14285714285714235  10.808249721293198 0  15 0  C 16.872909698996654 0  18.681716833890746 0.03571428571428559  20.426421404682273 0.10714285714285676  C 22.171125975473807 0.17857142857142794  23.450390189520625 0.25396825396825196  24.26421404682274 0.33333333333333215  L 25.484949832775918 0.42857142857142705  C 25.49609810479376 0.42857142857142705  25.590858416945377 0.4404761904761889  25.769230769230766 0.46428571428571264  C 25.947603121516167 0.4880952380952397  26.075808249721298 0.5119047619047634  26.153846153846153 0.5357142857142871  C 26.231884057971016 0.5595238095238109  26.362876254180602 0.5952380952380965  26.546822742474916 0.6428571428571439  C 26.730769230769234 0.6904761904761914  26.88963210702341 0.7539682539682502  27.023411371237458 0.8333333333333337  C 27.157190635451506 0.9126984126984106  27.313266443701227 1.0158730158730112  27.49163879598662 1.1428571428571421  C 27.67001114827202 1.2698412698412664  27.8428093645485 1.424603174603174  28.010033444816052 1.607142857142858  C 28.177257525083615 1.7896825396825355  28.338907469342256 1.9999999999999996  28.494983277591974 2.238095238095237  C 28.561872909698995 2.3333333333333317  28.648272017837236 2.4801587301587267  28.75418060200669 2.678571428571429  C 28.860089186176147 2.8769841269841248  29.021739130434785 3.3412698412698405  29.23913043478261 4.07142857142857  C 29.456521739130437 4.801587301587297  29.604236343366782 5.603174603174601  29.682274247491637 6.476190476190476  C 29.77146042363434 7.492063492063491  29.841137123745824 8.575396825396824  29.891304347826086 9.726190476190474  C 29.94147157190636 10.876984126984127  29.97212931995541 11.777777777777775  29.98327759197324 12.428571428571427  L 29.98327759197324 13.38095238095238  L 29.98327759197324 16.61904761904762  C 29.994425863991083 18.920634920634917  29.894091415830548 21.22222222222222  29.682274247491637 23.523809523809522  C 29.604236343366782 24.3968253968254  29.464882943143817 25.186507936507933  29.264214046822744 25.892857142857146  C 29.063545150501678 26.59920634920635  28.885172798216278 27.08730158730159  28.729096989966553 27.357142857142858  L 28.494983277591974 27.761904761904763  C 28.338907469342256 28  28.177257525083615 28.21031746031746  28.010033444816052 28.392857142857142  C 27.8428093645485 28.575396825396826  27.67001114827202 28.726190476190478  27.49163879598662 28.845238095238095  C 27.313266443701227 28.964285714285715  27.157190635451506 29.063492063492067  27.023411371237458 29.142857142857142  C 26.88963210702341 29.222222222222218  26.730769230769234 29.285714285714285  26.546822742474916 29.333333333333332  C 26.362876254180602 29.38095238095238  26.229096989966553 29.416666666666664  26.145484949832777 29.44047619047619  C 26.061872909698998 29.46428571428571  25.93366778149387 29.488095238095237  25.76086956521739 29.51190476190476  C 25.588071348940915 29.53571428571429  25.49609810479376 29.54761904761905  25.484949832775918 29.54761904761905  C 22.686733556298773 29.84920634920635  19.1917502787068 30  15 30  C 12.692307692307692 29.968253968253972  10.68840579710145 29.916666666666668  8.988294314381271 29.845238095238095  C 7.288182831661093 29.773809523809526  6.170568561872909 29.714285714285715  5.635451505016722 29.666666666666668  L 4.816053511705686 29.571428571428573  L 4.214046822742475 29.476190476190474  C 3.8127090301003346 29.3968253968254  3.50891861761427 29.317460317460313  3.3026755852842813 29.238095238095237  C 3.096432552954292 29.15873015873016  2.8121516164994427 28.992063492063494  2.4498327759197323 28.73809523809524  C 2.0875139353400223 28.48412698412698  1.7725752508361203 28.15873015873016  1.5050167224080269 27.761904761904763  C 1.4381270903010033 27.666666666666668  1.3517279821627648 27.51984126984127  1.2458193979933112 27.32142857142857  C 1.1399108138238574 27.123015873015877  0.9782608695652174 26.658730158730158  0.7608695652173914 25.92857142857143  C 0.5434782608695652 25.198412698412696  0.3957636566332219 24.3968253968254  0.3177257525083612 23.523809523809522  C 0.22853957636566335 22.507936507936506  0.15886287625418063 21.424603174603174  0.10869565217391304 20.273809523809526  C 0.05852842809364549 19.123015873015866  0.027870680044593088 18.22222222222222  0.016722408026755852 17.57142857142857  L 0.016722408026755852 16.61904761904762  L 0.016722408026755852 13.38095238095238  C 0.005574136008918616 11.079365079365077  0.10590858416945373 8.777777777777775  0.3177257525083612 6.476190476190476  C 0.3957636566332219 5.603174603174601  0.5351170568561873 4.813492063492059  0.7357859531772575 4.107142857142856  C 0.9364548494983278 3.40079365079365  1.1148272017837235 2.9126984126984103  1.2709030100334449 2.6428571428571432  L 1.5050167224080269 2.238095238095237  C 1.6610925306577482 1.9999999999999996  1.8227424749163879 1.7896825396825355  1.9899665551839465 1.607142857142858  C 2.1571906354515047 1.424603174603174  2.329988851727982 1.2698412698412664  2.508361204013378 1.1428571428571421  C 2.686733556298774 1.0158730158730112  2.842809364548495 0.9126984126984106  2.9765886287625416 0.8333333333333337  C 3.1103678929765888 0.7539682539682502  3.269230769230769 0.6904761904761914  3.4531772575250836 0.6428571428571439  C 3.6371237458193986 0.5952380952380965  3.7681159420289863 0.5595238095238109  3.846153846153846 0.5357142857142871  C 3.9241917502787067 0.5119047619047634  4.052396878483836 0.4880952380952397  4.230769230769231 0.46428571428571264  C 4.409141583054627 0.4404761904761889  4.503901895206244 0.42857142857142705  4.51505016722408 0.42857142857142705  Z " stroke-width="2" stroke-dasharray="0" stroke="rgba(255, 255, 255, 0)" fill="none" transform="matrix(1 0 0 1 1223 1217 )" class="stroke" mask="url(#Clip344)" />
  </g>
</svg>