<?xml version="1.0" encoding="utf-8"?>
<svg version="1.1" xmlns:xlink="http://www.w3.org/1999/xlink" width="27px" height="20px" xmlns="http://www.w3.org/2000/svg">
  <defs>
    <pattern id="BGPattern" patternUnits="userSpaceOnUse" alignment="0 0" imageRepeat="None" />
    <mask fill="white" id="Clip345">
      <path d="M 26.666015625 16.296875  C 26.888671875 16.494791666666668  27 16.729166666666668  27 17  L 27 19  C 27 19.270833333333332  26.888671875 19.505208333333332  26.666015625 19.703125  C 26.443359375000004 19.901041666666668  26.179687500000004 20  25.875 20  L 1.125 20  C 0.8203125000000001 20  0.556640625 19.901041666666668  0.333984375 19.703125  C 0.111328125 19.505208333333332  0 19.270833333333332  0 19  L 0 17  C 0 16.729166666666668  0.111328125 16.494791666666668  0.333984375 16.296875  C 0.556640625 16.098958333333332  0.8203125000000001 16  1.125 16  L 25.875 16  C 26.179687500000004 16  26.443359375000004 16.098958333333332  26.666015625 16.296875  Z M 26.666015625 8.296875  C 26.888671875 8.494791666666666  27 8.729166666666666  27 9  L 27 11  C 27 11.270833333333332  26.888671875 11.505208333333332  26.666015625 11.703125  C 26.443359375000004 11.901041666666664  26.179687500000004 12  25.875 12  L 1.125 12  C 0.8203125000000001 12  0.556640625 11.901041666666664  0.333984375 11.703125  C 0.111328125 11.505208333333332  0 11.270833333333332  0 11  L 0 9  C 0 8.729166666666666  0.111328125 8.494791666666666  0.333984375 8.296875  C 0.556640625 8.098958333333336  0.8203125000000001 8  1.125 8  L 25.875 8  C 26.179687500000004 8  26.443359375000004 8.098958333333336  26.666015625 8.296875  Z M 26.666015625 0.2968750000000009  C 26.888671875 0.4947916666666652  27 0.7291666666666652  27 1.0000000000000009  L 27 3.0000000000000004  C 27 3.2708333333333317  26.888671875 3.5052083333333317  26.666015625 3.7031250000000004  C 26.443359375000004 3.9010416666666647  26.179687500000004 3.999999999999999  25.875 4  L 1.125 4  C 0.8203125000000001 3.999999999999999  0.556640625 3.9010416666666647  0.333984375 3.7031250000000004  C 0.111328125 3.5052083333333317  0 3.2708333333333317  0 3.0000000000000004  L 0 1.0000000000000009  C 0 0.7291666666666652  0.111328125 0.4947916666666652  0.333984375 0.2968750000000009  C 0.556640625 0.09895833333333215  0.8203125000000001 0  1.125 0  L 25.875 0  C 26.179687500000004 0  26.443359375000004 0.09895833333333215  26.666015625 0.2968750000000009  Z " fill-rule="evenodd" />
    </mask>
  </defs>
  <g transform="matrix(1 0 0 1 -1071 -338 )">
    <path d="M 26.666015625 16.296875  C 26.888671875 16.494791666666668  27 16.729166666666668  27 17  L 27 19  C 27 19.270833333333332  26.888671875 19.505208333333332  26.666015625 19.703125  C 26.443359375000004 19.901041666666668  26.179687500000004 20  25.875 20  L 1.125 20  C 0.8203125000000001 20  0.556640625 19.901041666666668  0.333984375 19.703125  C 0.111328125 19.505208333333332  0 19.270833333333332  0 19  L 0 17  C 0 16.729166666666668  0.111328125 16.494791666666668  0.333984375 16.296875  C 0.556640625 16.098958333333332  0.8203125000000001 16  1.125 16  L 25.875 16  C 26.179687500000004 16  26.443359375000004 16.098958333333332  26.666015625 16.296875  Z M 26.666015625 8.296875  C 26.888671875 8.494791666666666  27 8.729166666666666  27 9  L 27 11  C 27 11.270833333333332  26.888671875 11.505208333333332  26.666015625 11.703125  C 26.443359375000004 11.901041666666664  26.179687500000004 12  25.875 12  L 1.125 12  C 0.8203125000000001 12  0.556640625 11.901041666666664  0.333984375 11.703125  C 0.111328125 11.505208333333332  0 11.270833333333332  0 11  L 0 9  C 0 8.729166666666666  0.111328125 8.494791666666666  0.333984375 8.296875  C 0.556640625 8.098958333333336  0.8203125000000001 8  1.125 8  L 25.875 8  C 26.179687500000004 8  26.443359375000004 8.098958333333336  26.666015625 8.296875  Z M 26.666015625 0.2968750000000009  C 26.888671875 0.4947916666666652  27 0.7291666666666652  27 1.0000000000000009  L 27 3.0000000000000004  C 27 3.2708333333333317  26.888671875 3.5052083333333317  26.666015625 3.7031250000000004  C 26.443359375000004 3.9010416666666647  26.179687500000004 3.999999999999999  25.875 4  L 1.125 4  C 0.8203125000000001 3.999999999999999  0.556640625 3.9010416666666647  0.333984375 3.7031250000000004  C 0.111328125 3.5052083333333317  0 3.2708333333333317  0 3.0000000000000004  L 0 1.0000000000000009  C 0 0.7291666666666652  0.111328125 0.4947916666666652  0.333984375 0.2968750000000009  C 0.556640625 0.09895833333333215  0.8203125000000001 0  1.125 0  L 25.875 0  C 26.179687500000004 0  26.443359375000004 0.09895833333333215  26.666015625 0.2968750000000009  Z " fill-rule="nonzero" fill="rgba(0, 0, 0, 1)" stroke="none" transform="matrix(1 0 0 1 1071 338 )" class="fill" />
    <path d="M 26.666015625 16.296875  C 26.888671875 16.494791666666668  27 16.729166666666668  27 17  L 27 19  C 27 19.270833333333332  26.888671875 19.505208333333332  26.666015625 19.703125  C 26.443359375000004 19.901041666666668  26.179687500000004 20  25.875 20  L 1.125 20  C 0.8203125000000001 20  0.556640625 19.901041666666668  0.333984375 19.703125  C 0.111328125 19.505208333333332  0 19.270833333333332  0 19  L 0 17  C 0 16.729166666666668  0.111328125 16.494791666666668  0.333984375 16.296875  C 0.556640625 16.098958333333332  0.8203125000000001 16  1.125 16  L 25.875 16  C 26.179687500000004 16  26.443359375000004 16.098958333333332  26.666015625 16.296875  Z " stroke-width="0" stroke-dasharray="0" stroke="rgba(255, 255, 255, 0)" fill="none" transform="matrix(1 0 0 1 1071 338 )" class="stroke" mask="url(#Clip345)" />
    <path d="M 26.666015625 8.296875  C 26.888671875 8.494791666666666  27 8.729166666666666  27 9  L 27 11  C 27 11.270833333333332  26.888671875 11.505208333333332  26.666015625 11.703125  C 26.443359375000004 11.901041666666664  26.179687500000004 12  25.875 12  L 1.125 12  C 0.8203125000000001 12  0.556640625 11.901041666666664  0.333984375 11.703125  C 0.111328125 11.505208333333332  0 11.270833333333332  0 11  L 0 9  C 0 8.729166666666666  0.111328125 8.494791666666666  0.333984375 8.296875  C 0.556640625 8.098958333333336  0.8203125000000001 8  1.125 8  L 25.875 8  C 26.179687500000004 8  26.443359375000004 8.098958333333336  26.666015625 8.296875  Z " stroke-width="0" stroke-dasharray="0" stroke="rgba(255, 255, 255, 0)" fill="none" transform="matrix(1 0 0 1 1071 338 )" class="stroke" mask="url(#Clip345)" />
    <path d="M 26.666015625 0.2968750000000009  C 26.888671875 0.4947916666666652  27 0.7291666666666652  27 1.0000000000000009  L 27 3.0000000000000004  C 27 3.2708333333333317  26.888671875 3.5052083333333317  26.666015625 3.7031250000000004  C 26.443359375000004 3.9010416666666647  26.179687500000004 3.999999999999999  25.875 4  L 1.125 4  C 0.8203125000000001 3.999999999999999  0.556640625 3.9010416666666647  0.333984375 3.7031250000000004  C 0.111328125 3.5052083333333317  0 3.2708333333333317  0 3.0000000000000004  L 0 1.0000000000000009  C 0 0.7291666666666652  0.111328125 0.4947916666666652  0.333984375 0.2968750000000009  C 0.556640625 0.09895833333333215  0.8203125000000001 0  1.125 0  L 25.875 0  C 26.179687500000004 0  26.443359375000004 0.09895833333333215  26.666015625 0.2968750000000009  Z " stroke-width="0" stroke-dasharray="0" stroke="rgba(255, 255, 255, 0)" fill="none" transform="matrix(1 0 0 1 1071 338 )" class="stroke" mask="url(#Clip345)" />
  </g>
</svg>