<?xml version="1.0" encoding="utf-8"?>
<svg version="1.1" xmlns:xlink="http://www.w3.org/1999/xlink" width="18px" height="20px" xmlns="http://www.w3.org/2000/svg">
  <defs>
    <pattern id="BGPattern" patternUnits="userSpaceOnUse" alignment="0 0" imageRepeat="None" />
    <mask fill="white" id="Clip346">
      <path d="M 9 19.107142857142858  C 9.115384615384617 19.107142857142858  9.173076923076925 19.047619047619047  9.173076923076923 18.928571428571427  C 9.173076923076925 18.80952380952381  9.115384615384617 18.75  9 18.75  C 8.574519230769232 18.75  8.208533653846155 18.59188988095238  7.902043269230769 18.275669642857142  C 7.595552884615385 17.959449404761905  7.442307692307692 17.581845238095237  7.442307692307692 17.142857142857146  C 7.442307692307692 17.023809523809522  7.384615384615385 16.964285714285715  7.269230769230769 16.964285714285715  C 7.153846153846154 16.964285714285715  7.096153846153846 17.023809523809522  7.096153846153846 17.142857142857146  C 7.096153846153846 17.686011904761905  7.281850961538462 18.149181547619047  7.653245192307692 18.532366071428573  C 8.024639423076923 18.915550595238095  8.473557692307693 19.107142857142858  9 19.107142857142858  Z M 17.015625 14.732142857142856  C 17.31129807692308 15.074404761904763  17.639423076923077 15.401785714285714  18 15.714285714285714  C 18.000000000000004 16.101190476190478  17.86298076923077 16.436011904761905  17.588942307692307 16.71875  C 17.314903846153847 17.001488095238095  16.990384615384617 17.142857142857146  16.615384615384617 17.142857142857146  L 11.76923076923077 17.142857142857146  C 11.76923076923077 17.93154761904762  11.498798076923077 18.604910714285715  10.957932692307692 19.162946428571427  C 10.417067307692308 19.720982142857142  9.764423076923078 20  9 20  C 8.235576923076923 20  7.582932692307692 19.720982142857142  7.042067307692308 19.162946428571427  C 6.501201923076923 18.604910714285715  6.230769230769231 17.93154761904762  6.230769230769231 17.142857142857146  L 1.3846153846153846 17.142857142857146  C 1.0096153846153848 17.142857142857146  0.685096153846154 17.001488095238095  0.4110576923076923 16.71875  C 0.1370192307692308 16.436011904761905  0 16.101190476190478  0 15.714285714285714  C 0.3605769230769232 15.401785714285714  0.6887019230769232 15.074404761904763  0.984375 14.732142857142856  C 1.280048076923077 14.38988095238095  1.5865384615384617 13.9453125  1.9038461538461537 13.3984375  C 2.2211538461538467 12.8515625  2.489783653846154 12.261904761904761  2.709735576923077 11.629464285714286  C 2.9296875000000004 10.99702380952381  3.1099759615384617 10.230654761904763  3.2506009615384617 9.330357142857142  C 3.3912259615384617 8.430059523809524  3.4615384615384617 7.462797619047617  3.4615384615384617 6.428571428571428  C 3.4615384615384617 5.297619047619047  3.8834134615384617 4.2466517857142865  4.727163461538462 3.275669642857142  C 5.570913461538462 2.3046875  6.677884615384616 1.7150297619047605  8.048076923076923 1.506696428571428  C 7.990384615384616 1.3653273809523792  7.961538461538462 1.2202380952380953  7.961538461538462 1.071428571428572  C 7.961538461538462 0.7738095238095233  8.0625 0.5208333333333326  8.264423076923077 0.3125  C 8.466346153846155 0.1041666666666674  8.711538461538462 0  9 0  C 9.28846153846154 0  9.533653846153848 0.1041666666666674  9.735576923076923 0.3125  C 9.9375 0.5208333333333326  10.038461538461538 0.7738095238095233  10.038461538461538 1.071428571428572  C 10.038461538461538 1.2202380952380953  10.009615384615385 1.3653273809523792  9.951923076923077 1.506696428571428  C 11.322115384615387 1.7150297619047605  12.429086538461538 2.3046875  13.272836538461538 3.275669642857142  C 14.116586538461538 4.2466517857142865  14.538461538461538 5.297619047619047  14.538461538461538 6.428571428571428  C 14.538461538461538 7.462797619047617  14.608774038461538 8.430059523809524  14.749399038461538 9.330357142857142  C 14.890024038461538 10.230654761904763  15.0703125 10.99702380952381  15.290264423076923 11.629464285714286  C 15.510216346153848 12.261904761904761  15.778846153846153 12.8515625  16.096153846153847 13.3984375  C 16.41346153846154 13.9453125  16.719951923076927 14.38988095238095  17.015625 14.732142857142856  Z " fill-rule="evenodd" />
    </mask>
  </defs>
  <g transform="matrix(1 0 0 1 -1071 -289 )">
    <path d="M 9 19.107142857142858  C 9.115384615384617 19.107142857142858  9.173076923076925 19.047619047619047  9.173076923076923 18.928571428571427  C 9.173076923076925 18.80952380952381  9.115384615384617 18.75  9 18.75  C 8.574519230769232 18.75  8.208533653846155 18.59188988095238  7.902043269230769 18.275669642857142  C 7.595552884615385 17.959449404761905  7.442307692307692 17.581845238095237  7.442307692307692 17.142857142857146  C 7.442307692307692 17.023809523809522  7.384615384615385 16.964285714285715  7.269230769230769 16.964285714285715  C 7.153846153846154 16.964285714285715  7.096153846153846 17.023809523809522  7.096153846153846 17.142857142857146  C 7.096153846153846 17.686011904761905  7.281850961538462 18.149181547619047  7.653245192307692 18.532366071428573  C 8.024639423076923 18.915550595238095  8.473557692307693 19.107142857142858  9 19.107142857142858  Z M 17.015625 14.732142857142856  C 17.31129807692308 15.074404761904763  17.639423076923077 15.401785714285714  18 15.714285714285714  C 18.000000000000004 16.101190476190478  17.86298076923077 16.436011904761905  17.588942307692307 16.71875  C 17.314903846153847 17.001488095238095  16.990384615384617 17.142857142857146  16.615384615384617 17.142857142857146  L 11.76923076923077 17.142857142857146  C 11.76923076923077 17.93154761904762  11.498798076923077 18.604910714285715  10.957932692307692 19.162946428571427  C 10.417067307692308 19.720982142857142  9.764423076923078 20  9 20  C 8.235576923076923 20  7.582932692307692 19.720982142857142  7.042067307692308 19.162946428571427  C 6.501201923076923 18.604910714285715  6.230769230769231 17.93154761904762  6.230769230769231 17.142857142857146  L 1.3846153846153846 17.142857142857146  C 1.0096153846153848 17.142857142857146  0.685096153846154 17.001488095238095  0.4110576923076923 16.71875  C 0.1370192307692308 16.436011904761905  0 16.101190476190478  0 15.714285714285714  C 0.3605769230769232 15.401785714285714  0.6887019230769232 15.074404761904763  0.984375 14.732142857142856  C 1.280048076923077 14.38988095238095  1.5865384615384617 13.9453125  1.9038461538461537 13.3984375  C 2.2211538461538467 12.8515625  2.489783653846154 12.261904761904761  2.709735576923077 11.629464285714286  C 2.9296875000000004 10.99702380952381  3.1099759615384617 10.230654761904763  3.2506009615384617 9.330357142857142  C 3.3912259615384617 8.430059523809524  3.4615384615384617 7.462797619047617  3.4615384615384617 6.428571428571428  C 3.4615384615384617 5.297619047619047  3.8834134615384617 4.2466517857142865  4.727163461538462 3.275669642857142  C 5.570913461538462 2.3046875  6.677884615384616 1.7150297619047605  8.048076923076923 1.506696428571428  C 7.990384615384616 1.3653273809523792  7.961538461538462 1.2202380952380953  7.961538461538462 1.071428571428572  C 7.961538461538462 0.7738095238095233  8.0625 0.5208333333333326  8.264423076923077 0.3125  C 8.466346153846155 0.1041666666666674  8.711538461538462 0  9 0  C 9.28846153846154 0  9.533653846153848 0.1041666666666674  9.735576923076923 0.3125  C 9.9375 0.5208333333333326  10.038461538461538 0.7738095238095233  10.038461538461538 1.071428571428572  C 10.038461538461538 1.2202380952380953  10.009615384615385 1.3653273809523792  9.951923076923077 1.506696428571428  C 11.322115384615387 1.7150297619047605  12.429086538461538 2.3046875  13.272836538461538 3.275669642857142  C 14.116586538461538 4.2466517857142865  14.538461538461538 5.297619047619047  14.538461538461538 6.428571428571428  C 14.538461538461538 7.462797619047617  14.608774038461538 8.430059523809524  14.749399038461538 9.330357142857142  C 14.890024038461538 10.230654761904763  15.0703125 10.99702380952381  15.290264423076923 11.629464285714286  C 15.510216346153848 12.261904761904761  15.778846153846153 12.8515625  16.096153846153847 13.3984375  C 16.41346153846154 13.9453125  16.719951923076927 14.38988095238095  17.015625 14.732142857142856  Z " fill-rule="nonzero" fill="rgba(0, 0, 0, 1)" stroke="none" transform="matrix(1 0 0 1 1071 289 )" class="fill" />
    <path d="M 9 19.107142857142858  C 9.115384615384617 19.107142857142858  9.173076923076925 19.047619047619047  9.173076923076923 18.928571428571427  C 9.173076923076925 18.80952380952381  9.115384615384617 18.75  9 18.75  C 8.574519230769232 18.75  8.208533653846155 18.59188988095238  7.902043269230769 18.275669642857142  C 7.595552884615385 17.959449404761905  7.442307692307692 17.581845238095237  7.442307692307692 17.142857142857146  C 7.442307692307692 17.023809523809522  7.384615384615385 16.964285714285715  7.269230769230769 16.964285714285715  C 7.153846153846154 16.964285714285715  7.096153846153846 17.023809523809522  7.096153846153846 17.142857142857146  C 7.096153846153846 17.686011904761905  7.281850961538462 18.149181547619047  7.653245192307692 18.532366071428573  C 8.024639423076923 18.915550595238095  8.473557692307693 19.107142857142858  9 19.107142857142858  Z " stroke-width="0" stroke-dasharray="0" stroke="rgba(255, 255, 255, 0)" fill="none" transform="matrix(1 0 0 1 1071 289 )" class="stroke" mask="url(#Clip346)" />
    <path d="M 17.015625 14.732142857142856  C 17.31129807692308 15.074404761904763  17.639423076923077 15.401785714285714  18 15.714285714285714  C 18.000000000000004 16.101190476190478  17.86298076923077 16.436011904761905  17.588942307692307 16.71875  C 17.314903846153847 17.001488095238095  16.990384615384617 17.142857142857146  16.615384615384617 17.142857142857146  L 11.76923076923077 17.142857142857146  C 11.76923076923077 17.93154761904762  11.498798076923077 18.604910714285715  10.957932692307692 19.162946428571427  C 10.417067307692308 19.720982142857142  9.764423076923078 20  9 20  C 8.235576923076923 20  7.582932692307692 19.720982142857142  7.042067307692308 19.162946428571427  C 6.501201923076923 18.604910714285715  6.230769230769231 17.93154761904762  6.230769230769231 17.142857142857146  L 1.3846153846153846 17.142857142857146  C 1.0096153846153848 17.142857142857146  0.685096153846154 17.001488095238095  0.4110576923076923 16.71875  C 0.1370192307692308 16.436011904761905  0 16.101190476190478  0 15.714285714285714  C 0.3605769230769232 15.401785714285714  0.6887019230769232 15.074404761904763  0.984375 14.732142857142856  C 1.280048076923077 14.38988095238095  1.5865384615384617 13.9453125  1.9038461538461537 13.3984375  C 2.2211538461538467 12.8515625  2.489783653846154 12.261904761904761  2.709735576923077 11.629464285714286  C 2.9296875000000004 10.99702380952381  3.1099759615384617 10.230654761904763  3.2506009615384617 9.330357142857142  C 3.3912259615384617 8.430059523809524  3.4615384615384617 7.462797619047617  3.4615384615384617 6.428571428571428  C 3.4615384615384617 5.297619047619047  3.8834134615384617 4.2466517857142865  4.727163461538462 3.275669642857142  C 5.570913461538462 2.3046875  6.677884615384616 1.7150297619047605  8.048076923076923 1.506696428571428  C 7.990384615384616 1.3653273809523792  7.961538461538462 1.2202380952380953  7.961538461538462 1.071428571428572  C 7.961538461538462 0.7738095238095233  8.0625 0.5208333333333326  8.264423076923077 0.3125  C 8.466346153846155 0.1041666666666674  8.711538461538462 0  9 0  C 9.28846153846154 0  9.533653846153848 0.1041666666666674  9.735576923076923 0.3125  C 9.9375 0.5208333333333326  10.038461538461538 0.7738095238095233  10.038461538461538 1.071428571428572  C 10.038461538461538 1.2202380952380953  10.009615384615385 1.3653273809523792  9.951923076923077 1.506696428571428  C 11.322115384615387 1.7150297619047605  12.429086538461538 2.3046875  13.272836538461538 3.275669642857142  C 14.116586538461538 4.2466517857142865  14.538461538461538 5.297619047619047  14.538461538461538 6.428571428571428  C 14.538461538461538 7.462797619047617  14.608774038461538 8.430059523809524  14.749399038461538 9.330357142857142  C 14.890024038461538 10.230654761904763  15.0703125 10.99702380952381  15.290264423076923 11.629464285714286  C 15.510216346153848 12.261904761904761  15.778846153846153 12.8515625  16.096153846153847 13.3984375  C 16.41346153846154 13.9453125  16.719951923076927 14.38988095238095  17.015625 14.732142857142856  Z " stroke-width="0" stroke-dasharray="0" stroke="rgba(255, 255, 255, 0)" fill="none" transform="matrix(1 0 0 1 1071 289 )" class="stroke" mask="url(#Clip346)" />
  </g>
</svg>