<?xml version="1.0" encoding="utf-8"?>
<svg version="1.1" xmlns:xlink="http://www.w3.org/1999/xlink" width="15px" height="17px" xmlns="http://www.w3.org/2000/svg">
  <defs>
    <pattern id="BGPattern" patternUnits="userSpaceOnUse" alignment="0 0" imageRepeat="None" />
    <mask fill="white" id="Clip349">
      <path d="M 1.359375 0  L 13.640625 0  C 13.820312500000002 0  13.9921875 0.03370786516853963  14.15625 0.10112359550561889  C 14.4140625 0.19850187265917363  14.619140625 0.35205992509363215  14.771484375 0.5617977528089888  C 14.923828125 0.7715355805243436  15 1.0037453183520588  15 1.2584269662921344  L 15 15.741573033707866  C 15 15.996254681647942  14.923828125 16.228464419475653  14.771484375 16.43820224719101  C 14.619140625 16.64794007490637  14.4140625 16.80149812734082  14.15625 16.89887640449438  C 14.007812500000002 16.95880149812734  13.835937500000002 16.98876404494382  13.640625 16.98876404494382  C 13.265625 16.98876404494382  12.941406250000002 16.868913857677903  12.66796875 16.629213483146067  L 7.5 11.865168539325841  L 2.33203125 16.629213483146067  C 2.05078125 16.876404494382022  1.7265625 17  1.359375 17  C 1.1796875 17  1.0078125 16.96629213483146  0.84375 16.89887640449438  C 0.5859375 16.80149812734082  0.380859375 16.64794007490637  0.228515625 16.43820224719101  C 0.076171875 16.228464419475653  0 15.996254681647942  0 15.741573033707866  L 0 1.2584269662921344  C 0 1.0037453183520588  0.076171875 0.7715355805243436  0.228515625 0.5617977528089888  C 0.380859375 0.35205992509363215  0.5859375 0.19850187265917363  0.84375 0.10112359550561889  C 1.0078125 0.03370786516853963  1.1796875 0  1.359375 0  Z " fill-rule="evenodd" />
    </mask>
  </defs>
  <g transform="matrix(1 0 0 1 -1071 -244 )">
    <path d="M 1.359375 0  L 13.640625 0  C 13.820312500000002 0  13.9921875 0.03370786516853963  14.15625 0.10112359550561889  C 14.4140625 0.19850187265917363  14.619140625 0.35205992509363215  14.771484375 0.5617977528089888  C 14.923828125 0.7715355805243436  15 1.0037453183520588  15 1.2584269662921344  L 15 15.741573033707866  C 15 15.996254681647942  14.923828125 16.228464419475653  14.771484375 16.43820224719101  C 14.619140625 16.64794007490637  14.4140625 16.80149812734082  14.15625 16.89887640449438  C 14.007812500000002 16.95880149812734  13.835937500000002 16.98876404494382  13.640625 16.98876404494382  C 13.265625 16.98876404494382  12.941406250000002 16.868913857677903  12.66796875 16.629213483146067  L 7.5 11.865168539325841  L 2.33203125 16.629213483146067  C 2.05078125 16.876404494382022  1.7265625 17  1.359375 17  C 1.1796875 17  1.0078125 16.96629213483146  0.84375 16.89887640449438  C 0.5859375 16.80149812734082  0.380859375 16.64794007490637  0.228515625 16.43820224719101  C 0.076171875 16.228464419475653  0 15.996254681647942  0 15.741573033707866  L 0 1.2584269662921344  C 0 1.0037453183520588  0.076171875 0.7715355805243436  0.228515625 0.5617977528089888  C 0.380859375 0.35205992509363215  0.5859375 0.19850187265917363  0.84375 0.10112359550561889  C 1.0078125 0.03370786516853963  1.1796875 0  1.359375 0  Z " fill-rule="nonzero" fill="rgba(0, 0, 0, 1)" stroke="none" transform="matrix(1 0 0 1 1071 244 )" class="fill" />
    <path d="M 1.359375 0  L 13.640625 0  C 13.820312500000002 0  13.9921875 0.03370786516853963  14.15625 0.10112359550561889  C 14.4140625 0.19850187265917363  14.619140625 0.35205992509363215  14.771484375 0.5617977528089888  C 14.923828125 0.7715355805243436  15 1.0037453183520588  15 1.2584269662921344  L 15 15.741573033707866  C 15 15.996254681647942  14.923828125 16.228464419475653  14.771484375 16.43820224719101  C 14.619140625 16.64794007490637  14.4140625 16.80149812734082  14.15625 16.89887640449438  C 14.007812500000002 16.95880149812734  13.835937500000002 16.98876404494382  13.640625 16.98876404494382  C 13.265625 16.98876404494382  12.941406250000002 16.868913857677903  12.66796875 16.629213483146067  L 7.5 11.865168539325841  L 2.33203125 16.629213483146067  C 2.05078125 16.876404494382022  1.7265625 17  1.359375 17  C 1.1796875 17  1.0078125 16.96629213483146  0.84375 16.89887640449438  C 0.5859375 16.80149812734082  0.380859375 16.64794007490637  0.228515625 16.43820224719101  C 0.076171875 16.228464419475653  0 15.996254681647942  0 15.741573033707866  L 0 1.2584269662921344  C 0 1.0037453183520588  0.076171875 0.7715355805243436  0.228515625 0.5617977528089888  C 0.380859375 0.35205992509363215  0.5859375 0.19850187265917363  0.84375 0.10112359550561889  C 1.0078125 0.03370786516853963  1.1796875 0  1.359375 0  Z " stroke-width="0" stroke-dasharray="0" stroke="rgba(255, 255, 255, 0)" fill="none" transform="matrix(1 0 0 1 1071 244 )" class="stroke" mask="url(#Clip349)" />
  </g>
</svg>