<?xml version="1.0" encoding="utf-8"?>
<svg version="1.1" xmlns:xlink="http://www.w3.org/1999/xlink" width="42px" height="27px" xmlns="http://www.w3.org/2000/svg">
  <defs>
    <pattern id="BGPattern" patternUnits="userSpaceOnUse" alignment="0 0" imageRepeat="None" />
    <mask fill="white" id="Clip351">
      <path d="M 41.80322748568454 1.7228805834092968  L 41.93440916189485 1.9690063810391978  C 42.26965122332119 3.019143117593436  41.1764705882353 5.431175934366452  38.65486725663717 9.205104831358248  C 38.30504945340969 9.730173199635367  37.831337844872465 10.427529626253417  37.23373243102551 11.2971741112124  C 36.650702758979705 12.134001823154055  36.24986985944821 12.724703737465815  36.031233732431026 13.069279854147675  C 35.81259760541385 13.413855970829534  35.59031754294639 13.81996353691887  35.36439354502863 14.28760255241568  C 35.13846954711088 14.75524156791249  35.051015096304006 15.099817684594347  35.10203019260801 15.321330902461257  C 35.15304528891203 15.542844120328166  35.247787610619476 15.825888787602553  35.38625715773035 16.17046490428441  C 35.52472670484123 16.51504102096627  35.761582509109836 16.867821330902462  36.09682457053618 17.22880583409298  C 36.43206663196252 17.589790337283496  36.84747527329516 18.024612579762987  37.3430504945341 18.533272561531447  C 37.40135346173868 18.56608933454877  37.43779281624154 18.598906107566087  37.452368558042686 18.631722880583407  C 39.50754815200416 20.781221513217865  40.89953149401354 22.594348222424795  41.6283185840708 24.071103008204194  C 41.672045809474234 24.153144940747488  41.719416970327956 24.255697356426616  41.77043206663196 24.37876025524157  C 41.821447162935975 24.501823154056517  41.87246225923998 24.71923427529626  41.92347735554399 25.030993618960803  C 41.974492451848 25.342752962625344  41.970848516397716 25.62169553327256  41.912545549193126 25.867821330902462  C 41.85424258198855 26.11394712853236  41.672045809474234 26.339562443026438  41.36595523165018 26.544667274384683  C 41.05986465382613 26.74977210574293  40.62988027069235 26.85232452142206  40.07600208224883 26.85232452142206  L 34.478917230609056 26.95077484047402  C 34.129099427381576 27.032816773017316  33.72097865694951 26.99179580674567  33.25455491931286 26.82771194165907  C 32.78813118167621 26.66362807657247  32.409161894846434 26.48313582497721  32.11764705882353 26.28623518687329  L 31.68037480478917 25.990884229717413  C 31.243102550754813 25.64630811303555  30.732951587714734 25.121239744758434  30.149921915668923 24.41567912488605  C 29.566892243623116 23.71011850501367  29.06767308693389 23.0742935278031  28.652264445601247 22.508204193254333  C 28.23685580426861 21.942114858705562  27.792295679333684 21.466271649954418  27.31858407079646 21.080674567000912  C 26.844872462259243 20.695077484047403  26.433107756376888 20.567912488605284  26.0832899531494 20.699179580674567  C 26.039562727745963 20.71558796718323  25.981259760541388 20.74430264357338  25.90838105153566 20.785323609845033  C 25.835502342529935 20.82634457611668  25.711608537220197 20.945305378304468  25.536699635606453 21.142206016408387  C 25.361790733992713 21.339106654512307  25.205101509630403 21.58113035551504  25.066631962519523 21.868277119416593  C 24.928162415408643 22.155423883318143  24.804268610098905 22.5820419325433  24.694950546590317 23.148131267092072  C 24.58563248308173 23.71422060164084  24.53826132222801 24.35004557885141  24.552837064029152 25.05560619872379  C 24.552837064029152 25.30173199635369  24.52732951587715 25.527347310847766  24.47631441957314 25.732452142206014  C 24.425299323269133 25.937556973564263  24.370640291514835 26.089334548769372  24.312337324310256 26.187784867821332  L 24.224882873503386 26.310847766636282  C 23.96251952108277 26.622607110300823  23.576262363352427 26.80309936189608  23.066111400312337 26.85232452142206  L 20.551795939614784 26.85232452142206  C 19.516918271733473 26.917958067456702  18.45288912024987 26.782588878760258  17.359708485163978 26.446216955332726  C 16.266527850078084 26.109845031905195  15.308172826652786 25.675022789425707  14.484643414888078 25.141750227894256  C 13.661114003123375 24.608477666362806  12.910463300364393 24.067000911577026  12.23269130661114 23.517319963536917  C 11.554919312857887 22.96763901549681  11.041124414367518 22.495897903372835  10.691306611140032 22.102096627164997  L 10.144716293597085 21.511394712853235  C 9.998958875585634 21.347310847766636  9.798542425819887 21.101185050136735  9.543466944299844 20.773017319963536  C 9.288391462779803 20.444849589790334  8.76730869338886 19.698268003646305  7.9802186361270175 18.533272561531447  C 7.193128578865175 17.368277119416586  6.420614263404477 16.129443938012763  5.662675689744925 14.816773017319964  C 4.904737116085372 13.504102096627165  4.011972930765227 11.773017319963536  2.9843831337844877 9.62351868732908  C 1.956793336803748 7.474020054694622  1.0057261842790213 5.242479489516866  0.13118167621030713 2.9288969917958063  C 0.04372722540343571 2.6663628076572445  0 2.4448495897903353  0 2.2643573381950786  C 0 2.083865086599816  0.021863612701717855 1.9525979945305365  0.06559083810515356 1.8705560619872372  L 0.15304528891202498 1.7228805834092968  C 0.37168141592920356 1.411121239744758  0.7870900572618428 1.2552415679124898  1.3992712129099427 1.2552415679124898  L 7.389901093180635 1.2060164083865095  C 7.564809994794378 1.2388331814038258  7.732431025507549 1.2921604375569726  7.8927641853201465 1.3659981768459444  C 8.053097345132743 1.4398359161349132  8.169703279541906 1.5095715587967151  8.242581988547633 1.5752051048313593  L 8.351900052056221 1.649042844120328  C 8.585111920874544 1.8295350957155847  8.760020822488288 2.0920692798541465  8.87662675689745 2.436645396536008  C 9.168141592920355 3.2570647219690034  9.503383654346694 4.106198723792158  9.882352941176471 4.98404740200547  C 10.261322228006248 5.861896080218774  10.560124934929725 6.530537830446671  10.778761061946904 6.989972652689154  L 11.128578865174388 7.703737465815862  C 11.551275377407602 8.68824065633546  11.959396147839666 9.54147675478578  12.352941176470589 10.263445761166818  C 12.746486205101508 10.985414767547857  13.099947943779284 11.547402005469461  13.413326392503905 11.949407474931633  C 13.726704841228528 12.351412944393799  14.029151483602291 12.667274384685504  14.320666319625195 12.896991795806747  C 14.612181155648102 13.126709206927984  14.859968766267572 13.241567912488605  15.064029151483602 13.241567912488605  C 15.268089536699636 13.241567912488605  15.464862051015098 13.200546946216953  15.654346694429984 13.118505013673657  C 15.683498178032275 13.102096627164995  15.719937532535138 13.061075660893346  15.763664757938574 12.995442114858706  C 15.807391983342008 12.929808568824063  15.89484643414888 12.749316317228807  16.02602811035919 12.453965360072925  C 16.157209786569496 12.158614402917047  16.255596043727223 11.773017319963536  16.32118688183238 11.2971741112124  C 16.386777719937534 10.821330902461257  16.456012493492974 10.156791248860527  16.5288912024987 9.30355515041021  C 16.601769911504427 8.45031905195989  16.601769911504427 7.424794895168642  16.5288912024987 6.226982680036462  C 16.49973971889641 5.570647219690063  16.434148880791255 4.971741112123976  16.332118688183236 4.430264357338194  C 16.23008849557522 3.8887876025524153  16.128058302967204 3.511394712853235  16.02602811035919 3.298085688240656  L 15.89484643414888 3.002734731084775  C 15.53045288912025 2.4448495897903353  14.910983862571578 2.092069279854144  14.036439354502864 1.9443938012762092  C 13.846954711087974 1.911577028258887  13.883394065590837 1.7146763901549633  14.145757418011451 1.3536918869644472  C 14.378969286829777 1.041932543299908  14.655908381051535 0.7958067456700072  14.976574700676732 0.6153144940747506  C 15.74908901613743 0.18869644484958714  17.490890161374285 -0.008204193254333525  20.201978136387297 0.024612579762988585  C 21.397188964081206 0.04102096627164664  22.381051535658514 0.1476754785779405  23.15356585111921 0.34457611668185817  C 23.445080687142116 0.42661804922515745  23.689224362311297 0.5373746581586121  23.88599687662676 0.676845943482225  C 24.082769390942214 0.816317228805829  24.23217074440396 1.0132178669097498  24.334200937011975 1.267547857793984  C 24.43623112961999 1.5218778486782125  24.512753774076007 1.7844120328167743  24.563768870380013 2.055150410209664  C 24.614783966684023 2.3258887876025502  24.640291514836022 2.6991795806745635  24.640291514836022 3.1750227894257073  C 24.640291514836022 3.6508659981768448  24.633003643935453 4.102096627164994  24.618427902134304 4.5287146763901545  C 24.603852160333165 4.955332725615312  24.58563248308173 5.5337283500455765  24.563768870380013 6.2639015496809485  C 24.541905257678295 6.994074749316318  24.530973451327434 7.670920692798539  24.530973451327434 8.29443938012762  C 24.530973451327434 8.474931631722876  24.523685580426864 8.819507748404739  24.509109838625715 9.3281677301732  C 24.494534096824573 9.836827711941657  24.49089016137429 10.2306289881495  24.498178032274858 10.509571558796718  C 24.50546590317543 10.788514129443936  24.530973451327434 11.1207839562443  24.57470067673087 11.50638103919781  C 24.618427902134304 11.891978122151322  24.702238417490893 12.211941659070192  24.826132222800624 12.466271649954422  C 24.95002602811036 12.720601640838648  25.114003123373244 12.921604375569736  25.318063508589276 13.069279854147675  C 25.43466944299844 13.102096627164995  25.55856324830817 13.134913400182313  25.68974492451848 13.167730173199637  C 25.820926600728786 13.200546946216953  26.010411244143675 13.110300820419326  26.258198854763144 12.896991795806747  C 26.505986465382616 12.683682771194166  26.782925559604372 12.400638103919778  27.089016137428423 12.047857793983592  C 27.39510671525247 11.6950774840474  27.774076002082253 11.145396536007292  28.225923997917754 10.398814949863265  C 28.677771993753257 9.652233363719235  29.173347214992198 8.770282588878759  29.712649661634565 7.7529626253418416  C 30.587194169703277 6.0464904284412  31.36699635606455 4.200546946216951  32.05205622071838 2.2151321786690987  C 32.11035918792296 2.051048313582497  32.18323789692868 1.9074749316317232  32.270692347735555 1.7844120328167743  C 32.35814679854243 1.6613491340018225  32.438313378448726 1.5752051048313593  32.51119208745445 1.5259799453053793  L 32.59864653826132 1.4521422060164073  L 32.70796460176991 1.390610756608933  C 32.70796460176991 1.390610756608933  32.80270692347736 1.3659981768459444  32.99219156689224 1.316773017319964  C 33.18167621030713 1.267547857793984  33.32743362831859 1.2634457611668173  33.4294638209266 1.30446672743847  L 39.726184279021346 1.2552415679124898  C 40.29463820926601 1.1731996353691845  40.76106194690266 1.1937101185050123  41.125455491931284 1.316773017319964  C 41.489849036959924 1.4398359161349132  41.71577303487767 1.5752051048313593  41.80322748568454 1.7228805834092968  Z " fill-rule="evenodd" />
    </mask>
  </defs>
  <g transform="matrix(1 0 0 1 -1133 -1218 )">
    <path d="M 41.80322748568454 1.7228805834092968  L 41.93440916189485 1.9690063810391978  C 42.26965122332119 3.019143117593436  41.1764705882353 5.431175934366452  38.65486725663717 9.205104831358248  C 38.30504945340969 9.730173199635367  37.831337844872465 10.427529626253417  37.23373243102551 11.2971741112124  C 36.650702758979705 12.134001823154055  36.24986985944821 12.724703737465815  36.031233732431026 13.069279854147675  C 35.81259760541385 13.413855970829534  35.59031754294639 13.81996353691887  35.36439354502863 14.28760255241568  C 35.13846954711088 14.75524156791249  35.051015096304006 15.099817684594347  35.10203019260801 15.321330902461257  C 35.15304528891203 15.542844120328166  35.247787610619476 15.825888787602553  35.38625715773035 16.17046490428441  C 35.52472670484123 16.51504102096627  35.761582509109836 16.867821330902462  36.09682457053618 17.22880583409298  C 36.43206663196252 17.589790337283496  36.84747527329516 18.024612579762987  37.3430504945341 18.533272561531447  C 37.40135346173868 18.56608933454877  37.43779281624154 18.598906107566087  37.452368558042686 18.631722880583407  C 39.50754815200416 20.781221513217865  40.89953149401354 22.594348222424795  41.6283185840708 24.071103008204194  C 41.672045809474234 24.153144940747488  41.719416970327956 24.255697356426616  41.77043206663196 24.37876025524157  C 41.821447162935975 24.501823154056517  41.87246225923998 24.71923427529626  41.92347735554399 25.030993618960803  C 41.974492451848 25.342752962625344  41.970848516397716 25.62169553327256  41.912545549193126 25.867821330902462  C 41.85424258198855 26.11394712853236  41.672045809474234 26.339562443026438  41.36595523165018 26.544667274384683  C 41.05986465382613 26.74977210574293  40.62988027069235 26.85232452142206  40.07600208224883 26.85232452142206  L 34.478917230609056 26.95077484047402  C 34.129099427381576 27.032816773017316  33.72097865694951 26.99179580674567  33.25455491931286 26.82771194165907  C 32.78813118167621 26.66362807657247  32.409161894846434 26.48313582497721  32.11764705882353 26.28623518687329  L 31.68037480478917 25.990884229717413  C 31.243102550754813 25.64630811303555  30.732951587714734 25.121239744758434  30.149921915668923 24.41567912488605  C 29.566892243623116 23.71011850501367  29.06767308693389 23.0742935278031  28.652264445601247 22.508204193254333  C 28.23685580426861 21.942114858705562  27.792295679333684 21.466271649954418  27.31858407079646 21.080674567000912  C 26.844872462259243 20.695077484047403  26.433107756376888 20.567912488605284  26.0832899531494 20.699179580674567  C 26.039562727745963 20.71558796718323  25.981259760541388 20.74430264357338  25.90838105153566 20.785323609845033  C 25.835502342529935 20.82634457611668  25.711608537220197 20.945305378304468  25.536699635606453 21.142206016408387  C 25.361790733992713 21.339106654512307  25.205101509630403 21.58113035551504  25.066631962519523 21.868277119416593  C 24.928162415408643 22.155423883318143  24.804268610098905 22.5820419325433  24.694950546590317 23.148131267092072  C 24.58563248308173 23.71422060164084  24.53826132222801 24.35004557885141  24.552837064029152 25.05560619872379  C 24.552837064029152 25.30173199635369  24.52732951587715 25.527347310847766  24.47631441957314 25.732452142206014  C 24.425299323269133 25.937556973564263  24.370640291514835 26.089334548769372  24.312337324310256 26.187784867821332  L 24.224882873503386 26.310847766636282  C 23.96251952108277 26.622607110300823  23.576262363352427 26.80309936189608  23.066111400312337 26.85232452142206  L 20.551795939614784 26.85232452142206  C 19.516918271733473 26.917958067456702  18.45288912024987 26.782588878760258  17.359708485163978 26.446216955332726  C 16.266527850078084 26.109845031905195  15.308172826652786 25.675022789425707  14.484643414888078 25.141750227894256  C 13.661114003123375 24.608477666362806  12.910463300364393 24.067000911577026  12.23269130661114 23.517319963536917  C 11.554919312857887 22.96763901549681  11.041124414367518 22.495897903372835  10.691306611140032 22.102096627164997  L 10.144716293597085 21.511394712853235  C 9.998958875585634 21.347310847766636  9.798542425819887 21.101185050136735  9.543466944299844 20.773017319963536  C 9.288391462779803 20.444849589790334  8.76730869338886 19.698268003646305  7.9802186361270175 18.533272561531447  C 7.193128578865175 17.368277119416586  6.420614263404477 16.129443938012763  5.662675689744925 14.816773017319964  C 4.904737116085372 13.504102096627165  4.011972930765227 11.773017319963536  2.9843831337844877 9.62351868732908  C 1.956793336803748 7.474020054694622  1.0057261842790213 5.242479489516866  0.13118167621030713 2.9288969917958063  C 0.04372722540343571 2.6663628076572445  0 2.4448495897903353  0 2.2643573381950786  C 0 2.083865086599816  0.021863612701717855 1.9525979945305365  0.06559083810515356 1.8705560619872372  L 0.15304528891202498 1.7228805834092968  C 0.37168141592920356 1.411121239744758  0.7870900572618428 1.2552415679124898  1.3992712129099427 1.2552415679124898  L 7.389901093180635 1.2060164083865095  C 7.564809994794378 1.2388331814038258  7.732431025507549 1.2921604375569726  7.8927641853201465 1.3659981768459444  C 8.053097345132743 1.4398359161349132  8.169703279541906 1.5095715587967151  8.242581988547633 1.5752051048313593  L 8.351900052056221 1.649042844120328  C 8.585111920874544 1.8295350957155847  8.760020822488288 2.0920692798541465  8.87662675689745 2.436645396536008  C 9.168141592920355 3.2570647219690034  9.503383654346694 4.106198723792158  9.882352941176471 4.98404740200547  C 10.261322228006248 5.861896080218774  10.560124934929725 6.530537830446671  10.778761061946904 6.989972652689154  L 11.128578865174388 7.703737465815862  C 11.551275377407602 8.68824065633546  11.959396147839666 9.54147675478578  12.352941176470589 10.263445761166818  C 12.746486205101508 10.985414767547857  13.099947943779284 11.547402005469461  13.413326392503905 11.949407474931633  C 13.726704841228528 12.351412944393799  14.029151483602291 12.667274384685504  14.320666319625195 12.896991795806747  C 14.612181155648102 13.126709206927984  14.859968766267572 13.241567912488605  15.064029151483602 13.241567912488605  C 15.268089536699636 13.241567912488605  15.464862051015098 13.200546946216953  15.654346694429984 13.118505013673657  C 15.683498178032275 13.102096627164995  15.719937532535138 13.061075660893346  15.763664757938574 12.995442114858706  C 15.807391983342008 12.929808568824063  15.89484643414888 12.749316317228807  16.02602811035919 12.453965360072925  C 16.157209786569496 12.158614402917047  16.255596043727223 11.773017319963536  16.32118688183238 11.2971741112124  C 16.386777719937534 10.821330902461257  16.456012493492974 10.156791248860527  16.5288912024987 9.30355515041021  C 16.601769911504427 8.45031905195989  16.601769911504427 7.424794895168642  16.5288912024987 6.226982680036462  C 16.49973971889641 5.570647219690063  16.434148880791255 4.971741112123976  16.332118688183236 4.430264357338194  C 16.23008849557522 3.8887876025524153  16.128058302967204 3.511394712853235  16.02602811035919 3.298085688240656  L 15.89484643414888 3.002734731084775  C 15.53045288912025 2.4448495897903353  14.910983862571578 2.092069279854144  14.036439354502864 1.9443938012762092  C 13.846954711087974 1.911577028258887  13.883394065590837 1.7146763901549633  14.145757418011451 1.3536918869644472  C 14.378969286829777 1.041932543299908  14.655908381051535 0.7958067456700072  14.976574700676732 0.6153144940747506  C 15.74908901613743 0.18869644484958714  17.490890161374285 -0.008204193254333525  20.201978136387297 0.024612579762988585  C 21.397188964081206 0.04102096627164664  22.381051535658514 0.1476754785779405  23.15356585111921 0.34457611668185817  C 23.445080687142116 0.42661804922515745  23.689224362311297 0.5373746581586121  23.88599687662676 0.676845943482225  C 24.082769390942214 0.816317228805829  24.23217074440396 1.0132178669097498  24.334200937011975 1.267547857793984  C 24.43623112961999 1.5218778486782125  24.512753774076007 1.7844120328167743  24.563768870380013 2.055150410209664  C 24.614783966684023 2.3258887876025502  24.640291514836022 2.6991795806745635  24.640291514836022 3.1750227894257073  C 24.640291514836022 3.6508659981768448  24.633003643935453 4.102096627164994  24.618427902134304 4.5287146763901545  C 24.603852160333165 4.955332725615312  24.58563248308173 5.5337283500455765  24.563768870380013 6.2639015496809485  C 24.541905257678295 6.994074749316318  24.530973451327434 7.670920692798539  24.530973451327434 8.29443938012762  C 24.530973451327434 8.474931631722876  24.523685580426864 8.819507748404739  24.509109838625715 9.3281677301732  C 24.494534096824573 9.836827711941657  24.49089016137429 10.2306289881495  24.498178032274858 10.509571558796718  C 24.50546590317543 10.788514129443936  24.530973451327434 11.1207839562443  24.57470067673087 11.50638103919781  C 24.618427902134304 11.891978122151322  24.702238417490893 12.211941659070192  24.826132222800624 12.466271649954422  C 24.95002602811036 12.720601640838648  25.114003123373244 12.921604375569736  25.318063508589276 13.069279854147675  C 25.43466944299844 13.102096627164995  25.55856324830817 13.134913400182313  25.68974492451848 13.167730173199637  C 25.820926600728786 13.200546946216953  26.010411244143675 13.110300820419326  26.258198854763144 12.896991795806747  C 26.505986465382616 12.683682771194166  26.782925559604372 12.400638103919778  27.089016137428423 12.047857793983592  C 27.39510671525247 11.6950774840474  27.774076002082253 11.145396536007292  28.225923997917754 10.398814949863265  C 28.677771993753257 9.652233363719235  29.173347214992198 8.770282588878759  29.712649661634565 7.7529626253418416  C 30.587194169703277 6.0464904284412  31.36699635606455 4.200546946216951  32.05205622071838 2.2151321786690987  C 32.11035918792296 2.051048313582497  32.18323789692868 1.9074749316317232  32.270692347735555 1.7844120328167743  C 32.35814679854243 1.6613491340018225  32.438313378448726 1.5752051048313593  32.51119208745445 1.5259799453053793  L 32.59864653826132 1.4521422060164073  L 32.70796460176991 1.390610756608933  C 32.70796460176991 1.390610756608933  32.80270692347736 1.3659981768459444  32.99219156689224 1.316773017319964  C 33.18167621030713 1.267547857793984  33.32743362831859 1.2634457611668173  33.4294638209266 1.30446672743847  L 39.726184279021346 1.2552415679124898  C 40.29463820926601 1.1731996353691845  40.76106194690266 1.1937101185050123  41.125455491931284 1.316773017319964  C 41.489849036959924 1.4398359161349132  41.71577303487767 1.5752051048313593  41.80322748568454 1.7228805834092968  Z " fill-rule="nonzero" fill="rgba(0, 0, 0, 1)" stroke="none" transform="matrix(1 0 0 1 1133 1218 )" class="fill" />
    <path d="M 41.80322748568454 1.7228805834092968  L 41.93440916189485 1.9690063810391978  C 42.26965122332119 3.019143117593436  41.1764705882353 5.431175934366452  38.65486725663717 9.205104831358248  C 38.30504945340969 9.730173199635367  37.831337844872465 10.427529626253417  37.23373243102551 11.2971741112124  C 36.650702758979705 12.134001823154055  36.24986985944821 12.724703737465815  36.031233732431026 13.069279854147675  C 35.81259760541385 13.413855970829534  35.59031754294639 13.81996353691887  35.36439354502863 14.28760255241568  C 35.13846954711088 14.75524156791249  35.051015096304006 15.099817684594347  35.10203019260801 15.321330902461257  C 35.15304528891203 15.542844120328166  35.247787610619476 15.825888787602553  35.38625715773035 16.17046490428441  C 35.52472670484123 16.51504102096627  35.761582509109836 16.867821330902462  36.09682457053618 17.22880583409298  C 36.43206663196252 17.589790337283496  36.84747527329516 18.024612579762987  37.3430504945341 18.533272561531447  C 37.40135346173868 18.56608933454877  37.43779281624154 18.598906107566087  37.452368558042686 18.631722880583407  C 39.50754815200416 20.781221513217865  40.89953149401354 22.594348222424795  41.6283185840708 24.071103008204194  C 41.672045809474234 24.153144940747488  41.719416970327956 24.255697356426616  41.77043206663196 24.37876025524157  C 41.821447162935975 24.501823154056517  41.87246225923998 24.71923427529626  41.92347735554399 25.030993618960803  C 41.974492451848 25.342752962625344  41.970848516397716 25.62169553327256  41.912545549193126 25.867821330902462  C 41.85424258198855 26.11394712853236  41.672045809474234 26.339562443026438  41.36595523165018 26.544667274384683  C 41.05986465382613 26.74977210574293  40.62988027069235 26.85232452142206  40.07600208224883 26.85232452142206  L 34.478917230609056 26.95077484047402  C 34.129099427381576 27.032816773017316  33.72097865694951 26.99179580674567  33.25455491931286 26.82771194165907  C 32.78813118167621 26.66362807657247  32.409161894846434 26.48313582497721  32.11764705882353 26.28623518687329  L 31.68037480478917 25.990884229717413  C 31.243102550754813 25.64630811303555  30.732951587714734 25.121239744758434  30.149921915668923 24.41567912488605  C 29.566892243623116 23.71011850501367  29.06767308693389 23.0742935278031  28.652264445601247 22.508204193254333  C 28.23685580426861 21.942114858705562  27.792295679333684 21.466271649954418  27.31858407079646 21.080674567000912  C 26.844872462259243 20.695077484047403  26.433107756376888 20.567912488605284  26.0832899531494 20.699179580674567  C 26.039562727745963 20.71558796718323  25.981259760541388 20.74430264357338  25.90838105153566 20.785323609845033  C 25.835502342529935 20.82634457611668  25.711608537220197 20.945305378304468  25.536699635606453 21.142206016408387  C 25.361790733992713 21.339106654512307  25.205101509630403 21.58113035551504  25.066631962519523 21.868277119416593  C 24.928162415408643 22.155423883318143  24.804268610098905 22.5820419325433  24.694950546590317 23.148131267092072  C 24.58563248308173 23.71422060164084  24.53826132222801 24.35004557885141  24.552837064029152 25.05560619872379  C 24.552837064029152 25.30173199635369  24.52732951587715 25.527347310847766  24.47631441957314 25.732452142206014  C 24.425299323269133 25.937556973564263  24.370640291514835 26.089334548769372  24.312337324310256 26.187784867821332  L 24.224882873503386 26.310847766636282  C 23.96251952108277 26.622607110300823  23.576262363352427 26.80309936189608  23.066111400312337 26.85232452142206  L 20.551795939614784 26.85232452142206  C 19.516918271733473 26.917958067456702  18.45288912024987 26.782588878760258  17.359708485163978 26.446216955332726  C 16.266527850078084 26.109845031905195  15.308172826652786 25.675022789425707  14.484643414888078 25.141750227894256  C 13.661114003123375 24.608477666362806  12.910463300364393 24.067000911577026  12.23269130661114 23.517319963536917  C 11.554919312857887 22.96763901549681  11.041124414367518 22.495897903372835  10.691306611140032 22.102096627164997  L 10.144716293597085 21.511394712853235  C 9.998958875585634 21.347310847766636  9.798542425819887 21.101185050136735  9.543466944299844 20.773017319963536  C 9.288391462779803 20.444849589790334  8.76730869338886 19.698268003646305  7.9802186361270175 18.533272561531447  C 7.193128578865175 17.368277119416586  6.420614263404477 16.129443938012763  5.662675689744925 14.816773017319964  C 4.904737116085372 13.504102096627165  4.011972930765227 11.773017319963536  2.9843831337844877 9.62351868732908  C 1.956793336803748 7.474020054694622  1.0057261842790213 5.242479489516866  0.13118167621030713 2.9288969917958063  C 0.04372722540343571 2.6663628076572445  0 2.4448495897903353  0 2.2643573381950786  C 0 2.083865086599816  0.021863612701717855 1.9525979945305365  0.06559083810515356 1.8705560619872372  L 0.15304528891202498 1.7228805834092968  C 0.37168141592920356 1.411121239744758  0.7870900572618428 1.2552415679124898  1.3992712129099427 1.2552415679124898  L 7.389901093180635 1.2060164083865095  C 7.564809994794378 1.2388331814038258  7.732431025507549 1.2921604375569726  7.8927641853201465 1.3659981768459444  C 8.053097345132743 1.4398359161349132  8.169703279541906 1.5095715587967151  8.242581988547633 1.5752051048313593  L 8.351900052056221 1.649042844120328  C 8.585111920874544 1.8295350957155847  8.760020822488288 2.0920692798541465  8.87662675689745 2.436645396536008  C 9.168141592920355 3.2570647219690034  9.503383654346694 4.106198723792158  9.882352941176471 4.98404740200547  C 10.261322228006248 5.861896080218774  10.560124934929725 6.530537830446671  10.778761061946904 6.989972652689154  L 11.128578865174388 7.703737465815862  C 11.551275377407602 8.68824065633546  11.959396147839666 9.54147675478578  12.352941176470589 10.263445761166818  C 12.746486205101508 10.985414767547857  13.099947943779284 11.547402005469461  13.413326392503905 11.949407474931633  C 13.726704841228528 12.351412944393799  14.029151483602291 12.667274384685504  14.320666319625195 12.896991795806747  C 14.612181155648102 13.126709206927984  14.859968766267572 13.241567912488605  15.064029151483602 13.241567912488605  C 15.268089536699636 13.241567912488605  15.464862051015098 13.200546946216953  15.654346694429984 13.118505013673657  C 15.683498178032275 13.102096627164995  15.719937532535138 13.061075660893346  15.763664757938574 12.995442114858706  C 15.807391983342008 12.929808568824063  15.89484643414888 12.749316317228807  16.02602811035919 12.453965360072925  C 16.157209786569496 12.158614402917047  16.255596043727223 11.773017319963536  16.32118688183238 11.2971741112124  C 16.386777719937534 10.821330902461257  16.456012493492974 10.156791248860527  16.5288912024987 9.30355515041021  C 16.601769911504427 8.45031905195989  16.601769911504427 7.424794895168642  16.5288912024987 6.226982680036462  C 16.49973971889641 5.570647219690063  16.434148880791255 4.971741112123976  16.332118688183236 4.430264357338194  C 16.23008849557522 3.8887876025524153  16.128058302967204 3.511394712853235  16.02602811035919 3.298085688240656  L 15.89484643414888 3.002734731084775  C 15.53045288912025 2.4448495897903353  14.910983862571578 2.092069279854144  14.036439354502864 1.9443938012762092  C 13.846954711087974 1.911577028258887  13.883394065590837 1.7146763901549633  14.145757418011451 1.3536918869644472  C 14.378969286829777 1.041932543299908  14.655908381051535 0.7958067456700072  14.976574700676732 0.6153144940747506  C 15.74908901613743 0.18869644484958714  17.490890161374285 -0.008204193254333525  20.201978136387297 0.024612579762988585  C 21.397188964081206 0.04102096627164664  22.381051535658514 0.1476754785779405  23.15356585111921 0.34457611668185817  C 23.445080687142116 0.42661804922515745  23.689224362311297 0.5373746581586121  23.88599687662676 0.676845943482225  C 24.082769390942214 0.816317228805829  24.23217074440396 1.0132178669097498  24.334200937011975 1.267547857793984  C 24.43623112961999 1.5218778486782125  24.512753774076007 1.7844120328167743  24.563768870380013 2.055150410209664  C 24.614783966684023 2.3258887876025502  24.640291514836022 2.6991795806745635  24.640291514836022 3.1750227894257073  C 24.640291514836022 3.6508659981768448  24.633003643935453 4.102096627164994  24.618427902134304 4.5287146763901545  C 24.603852160333165 4.955332725615312  24.58563248308173 5.5337283500455765  24.563768870380013 6.2639015496809485  C 24.541905257678295 6.994074749316318  24.530973451327434 7.670920692798539  24.530973451327434 8.29443938012762  C 24.530973451327434 8.474931631722876  24.523685580426864 8.819507748404739  24.509109838625715 9.3281677301732  C 24.494534096824573 9.836827711941657  24.49089016137429 10.2306289881495  24.498178032274858 10.509571558796718  C 24.50546590317543 10.788514129443936  24.530973451327434 11.1207839562443  24.57470067673087 11.50638103919781  C 24.618427902134304 11.891978122151322  24.702238417490893 12.211941659070192  24.826132222800624 12.466271649954422  C 24.95002602811036 12.720601640838648  25.114003123373244 12.921604375569736  25.318063508589276 13.069279854147675  C 25.43466944299844 13.102096627164995  25.55856324830817 13.134913400182313  25.68974492451848 13.167730173199637  C 25.820926600728786 13.200546946216953  26.010411244143675 13.110300820419326  26.258198854763144 12.896991795806747  C 26.505986465382616 12.683682771194166  26.782925559604372 12.400638103919778  27.089016137428423 12.047857793983592  C 27.39510671525247 11.6950774840474  27.774076002082253 11.145396536007292  28.225923997917754 10.398814949863265  C 28.677771993753257 9.652233363719235  29.173347214992198 8.770282588878759  29.712649661634565 7.7529626253418416  C 30.587194169703277 6.0464904284412  31.36699635606455 4.200546946216951  32.05205622071838 2.2151321786690987  C 32.11035918792296 2.051048313582497  32.18323789692868 1.9074749316317232  32.270692347735555 1.7844120328167743  C 32.35814679854243 1.6613491340018225  32.438313378448726 1.5752051048313593  32.51119208745445 1.5259799453053793  L 32.59864653826132 1.4521422060164073  L 32.70796460176991 1.390610756608933  C 32.70796460176991 1.390610756608933  32.80270692347736 1.3659981768459444  32.99219156689224 1.316773017319964  C 33.18167621030713 1.267547857793984  33.32743362831859 1.2634457611668173  33.4294638209266 1.30446672743847  L 39.726184279021346 1.2552415679124898  C 40.29463820926601 1.1731996353691845  40.76106194690266 1.1937101185050123  41.125455491931284 1.316773017319964  C 41.489849036959924 1.4398359161349132  41.71577303487767 1.5752051048313593  41.80322748568454 1.7228805834092968  Z " stroke-width="0" stroke-dasharray="0" stroke="rgba(255, 255, 255, 0)" fill="none" transform="matrix(1 0 0 1 1133 1218 )" class="stroke" mask="url(#Clip351)" />
  </g>
</svg>