<?xml version="1.0" encoding="utf-8"?>
<svg version="1.1" xmlns:xlink="http://www.w3.org/1999/xlink" width="29px" height="25px" xmlns="http://www.w3.org/2000/svg">
  <defs>
    <pattern id="BGPattern" patternUnits="userSpaceOnUse" alignment="0 0" imageRepeat="None" />
    <mask fill="white" id="Clip352">
      <path d="M 21.531529017857146 19.58550347222222  C 23.694661458333336 17.82769097222222  25.4936755952381 15.465856481481477  26.92857142857143 12.5  C 25.288690476190478 9.085648148148149  23.23344494047619 6.532118055555555  20.76283482142857 4.839409722222221  C 21.42094494047619 6.344039351851849  21.75 7.971643518518517  21.75 9.722222222222221  C 21.75 12.39872685185185  21.040643601190478 14.688223379629628  19.62193080357143 16.590711805555554  C 18.203218005952383 18.493200231481477  16.495907738095237 19.444444444444446  14.5 19.444444444444446  C 12.504092261904763 19.444444444444446  10.79678199404762 18.493200231481477  9.378069196428573 16.590711805555554  C 7.9593563988095255 14.688223379629628  7.25 12.39872685185185  7.25 9.722222222222221  C 7.25 7.971643518518517  7.57905505952381 6.344039351851849  8.237165178571427 4.839409722222221  C 5.76655505952381 6.532118055555555  3.711309523809524 9.085648148148149  2.071428571428571 12.5  C 3.506324404761905 15.465856481481477  5.305338541666667 17.82769097222222  7.468470982142858 19.58550347222222  C 9.63160342261905 21.34331597222222  11.975446428571427 22.22222222222222  14.5 22.22222222222222  C 17.02455357142857 22.22222222222222  19.368396577380956 21.34331597222222  21.531529017857146 19.58550347222222  Z M 15.050223214285715 4.904513888888889  C 15.201264880952383 4.7019675925925934  15.276785714285715 4.456018518518517  15.276785714285715 4.166666666666666  C 15.276785714285715 3.877314814814814  15.201264880952383 3.6313657407407387  15.050223214285715 3.4288194444444446  C 14.899181547619051 3.2262731481481453  14.715773809523808 3.1249999999999973  14.5 3.125  C 13.151413690476192 3.1249999999999973  11.994326636904763 3.7724247685185173  11.028738839285715 5.067274305555555  C 10.063151041666668 6.3621238425925934  9.580357142857142 7.913773148148148  9.580357142857142 9.722222222222221  C 9.580357142857142 10.011574074074073  9.655877976190478 10.257523148148149  9.806919642857142 10.460069444444445  C 9.95796130952381 10.662615740740739  10.14136904761905 10.76388888888889  10.357142857142858 10.76388888888889  C 10.572916666666668 10.76388888888889  10.756324404761905 10.662615740740739  10.907366071428573 10.460069444444445  C 11.058407738095239 10.257523148148149  11.133928571428573 10.011574074074073  11.133928571428573 9.722222222222221  C 11.133928571428573 8.47800925925926  11.462983630952381 7.414641203703703  12.12109375 6.532118055555555  C 12.77920386904762 5.6495949074074066  13.57217261904762 5.208333333333331  14.5 5.208333333333334  C 14.715773809523808 5.208333333333331  14.899181547619051 5.107060185185183  15.050223214285715 4.904513888888889  Z M 28.676339285714285 11.002604166666666  C 28.8921130952381 11.508969907407407  29 12.00810185185185  29 12.5  C 29 12.991898148148145  28.8921130952381 13.491030092592593  28.676339285714285 13.997395833333332  C 27.165922619047624 17.324942129629626  25.13495163690477 19.990596064814817  22.583426339285715 21.99435763888889  C 20.031901041666668 23.998119212962962  17.3374255952381 25  14.5 25  C 11.662574404761905 25  8.968098958333334 23.994502314814817  6.4165736607142865 21.983506944444446  C 3.865048363095238 19.972511574074073  1.8340773809523814 17.310474537037035  0.3236607142857143 13.997395833333332  C 0.10788690476190475 13.491030092592593  0 12.991898148148145  0 12.5  C 0 12.00810185185185  0.10788690476190475 11.508969907407407  0.3236607142857143 11.002604166666666  C 1.8340773809523814 7.689525462962962  3.865048363095238 5.027488425925925  6.4165736607142865 3.0164930555555554  C 8.968098958333334 1.0054976851851833  11.662574404761905 0  14.5 0  C 17.3374255952381 0  20.031901041666668 1.0054976851851833  22.583426339285715 3.0164930555555554  C 25.13495163690477 5.027488425925925  27.165922619047624 7.689525462962962  28.676339285714285 11.002604166666666  Z " fill-rule="evenodd" />
    </mask>
  </defs>
  <g transform="matrix(1 0 0 1 -219 -388 )">
    <path d="M 21.531529017857146 19.58550347222222  C 23.694661458333336 17.82769097222222  25.4936755952381 15.465856481481477  26.92857142857143 12.5  C 25.288690476190478 9.085648148148149  23.23344494047619 6.532118055555555  20.76283482142857 4.839409722222221  C 21.42094494047619 6.344039351851849  21.75 7.971643518518517  21.75 9.722222222222221  C 21.75 12.39872685185185  21.040643601190478 14.688223379629628  19.62193080357143 16.590711805555554  C 18.203218005952383 18.493200231481477  16.495907738095237 19.444444444444446  14.5 19.444444444444446  C 12.504092261904763 19.444444444444446  10.79678199404762 18.493200231481477  9.378069196428573 16.590711805555554  C 7.9593563988095255 14.688223379629628  7.25 12.39872685185185  7.25 9.722222222222221  C 7.25 7.971643518518517  7.57905505952381 6.344039351851849  8.237165178571427 4.839409722222221  C 5.76655505952381 6.532118055555555  3.711309523809524 9.085648148148149  2.071428571428571 12.5  C 3.506324404761905 15.465856481481477  5.305338541666667 17.82769097222222  7.468470982142858 19.58550347222222  C 9.63160342261905 21.34331597222222  11.975446428571427 22.22222222222222  14.5 22.22222222222222  C 17.02455357142857 22.22222222222222  19.368396577380956 21.34331597222222  21.531529017857146 19.58550347222222  Z M 15.050223214285715 4.904513888888889  C 15.201264880952383 4.7019675925925934  15.276785714285715 4.456018518518517  15.276785714285715 4.166666666666666  C 15.276785714285715 3.877314814814814  15.201264880952383 3.6313657407407387  15.050223214285715 3.4288194444444446  C 14.899181547619051 3.2262731481481453  14.715773809523808 3.1249999999999973  14.5 3.125  C 13.151413690476192 3.1249999999999973  11.994326636904763 3.7724247685185173  11.028738839285715 5.067274305555555  C 10.063151041666668 6.3621238425925934  9.580357142857142 7.913773148148148  9.580357142857142 9.722222222222221  C 9.580357142857142 10.011574074074073  9.655877976190478 10.257523148148149  9.806919642857142 10.460069444444445  C 9.95796130952381 10.662615740740739  10.14136904761905 10.76388888888889  10.357142857142858 10.76388888888889  C 10.572916666666668 10.76388888888889  10.756324404761905 10.662615740740739  10.907366071428573 10.460069444444445  C 11.058407738095239 10.257523148148149  11.133928571428573 10.011574074074073  11.133928571428573 9.722222222222221  C 11.133928571428573 8.47800925925926  11.462983630952381 7.414641203703703  12.12109375 6.532118055555555  C 12.77920386904762 5.6495949074074066  13.57217261904762 5.208333333333331  14.5 5.208333333333334  C 14.715773809523808 5.208333333333331  14.899181547619051 5.107060185185183  15.050223214285715 4.904513888888889  Z M 28.676339285714285 11.002604166666666  C 28.8921130952381 11.508969907407407  29 12.00810185185185  29 12.5  C 29 12.991898148148145  28.8921130952381 13.491030092592593  28.676339285714285 13.997395833333332  C 27.165922619047624 17.324942129629626  25.13495163690477 19.990596064814817  22.583426339285715 21.99435763888889  C 20.031901041666668 23.998119212962962  17.3374255952381 25  14.5 25  C 11.662574404761905 25  8.968098958333334 23.994502314814817  6.4165736607142865 21.983506944444446  C 3.865048363095238 19.972511574074073  1.8340773809523814 17.310474537037035  0.3236607142857143 13.997395833333332  C 0.10788690476190475 13.491030092592593  0 12.991898148148145  0 12.5  C 0 12.00810185185185  0.10788690476190475 11.508969907407407  0.3236607142857143 11.002604166666666  C 1.8340773809523814 7.689525462962962  3.865048363095238 5.027488425925925  6.4165736607142865 3.0164930555555554  C 8.968098958333334 1.0054976851851833  11.662574404761905 0  14.5 0  C 17.3374255952381 0  20.031901041666668 1.0054976851851833  22.583426339285715 3.0164930555555554  C 25.13495163690477 5.027488425925925  27.165922619047624 7.689525462962962  28.676339285714285 11.002604166666666  Z " fill-rule="nonzero" fill="rgba(0, 0, 0, 1)" stroke="none" transform="matrix(1 0 0 1 219 388 )" class="fill" />
    <path d="M 21.531529017857146 19.58550347222222  C 23.694661458333336 17.82769097222222  25.4936755952381 15.465856481481477  26.92857142857143 12.5  C 25.288690476190478 9.085648148148149  23.23344494047619 6.532118055555555  20.76283482142857 4.839409722222221  C 21.42094494047619 6.344039351851849  21.75 7.971643518518517  21.75 9.722222222222221  C 21.75 12.39872685185185  21.040643601190478 14.688223379629628  19.62193080357143 16.590711805555554  C 18.203218005952383 18.493200231481477  16.495907738095237 19.444444444444446  14.5 19.444444444444446  C 12.504092261904763 19.444444444444446  10.79678199404762 18.493200231481477  9.378069196428573 16.590711805555554  C 7.9593563988095255 14.688223379629628  7.25 12.39872685185185  7.25 9.722222222222221  C 7.25 7.971643518518517  7.57905505952381 6.344039351851849  8.237165178571427 4.839409722222221  C 5.76655505952381 6.532118055555555  3.711309523809524 9.085648148148149  2.071428571428571 12.5  C 3.506324404761905 15.465856481481477  5.305338541666667 17.82769097222222  7.468470982142858 19.58550347222222  C 9.63160342261905 21.34331597222222  11.975446428571427 22.22222222222222  14.5 22.22222222222222  C 17.02455357142857 22.22222222222222  19.368396577380956 21.34331597222222  21.531529017857146 19.58550347222222  Z " stroke-width="0" stroke-dasharray="0" stroke="rgba(255, 255, 255, 0)" fill="none" transform="matrix(1 0 0 1 219 388 )" class="stroke" mask="url(#Clip352)" />
    <path d="M 15.050223214285715 4.904513888888889  C 15.201264880952383 4.7019675925925934  15.276785714285715 4.456018518518517  15.276785714285715 4.166666666666666  C 15.276785714285715 3.877314814814814  15.201264880952383 3.6313657407407387  15.050223214285715 3.4288194444444446  C 14.899181547619051 3.2262731481481453  14.715773809523808 3.1249999999999973  14.5 3.125  C 13.151413690476192 3.1249999999999973  11.994326636904763 3.7724247685185173  11.028738839285715 5.067274305555555  C 10.063151041666668 6.3621238425925934  9.580357142857142 7.913773148148148  9.580357142857142 9.722222222222221  C 9.580357142857142 10.011574074074073  9.655877976190478 10.257523148148149  9.806919642857142 10.460069444444445  C 9.95796130952381 10.662615740740739  10.14136904761905 10.76388888888889  10.357142857142858 10.76388888888889  C 10.572916666666668 10.76388888888889  10.756324404761905 10.662615740740739  10.907366071428573 10.460069444444445  C 11.058407738095239 10.257523148148149  11.133928571428573 10.011574074074073  11.133928571428573 9.722222222222221  C 11.133928571428573 8.47800925925926  11.462983630952381 7.414641203703703  12.12109375 6.532118055555555  C 12.77920386904762 5.6495949074074066  13.57217261904762 5.208333333333331  14.5 5.208333333333334  C 14.715773809523808 5.208333333333331  14.899181547619051 5.107060185185183  15.050223214285715 4.904513888888889  Z " stroke-width="0" stroke-dasharray="0" stroke="rgba(255, 255, 255, 0)" fill="none" transform="matrix(1 0 0 1 219 388 )" class="stroke" mask="url(#Clip352)" />
    <path d="M 28.676339285714285 11.002604166666666  C 28.8921130952381 11.508969907407407  29 12.00810185185185  29 12.5  C 29 12.991898148148145  28.8921130952381 13.491030092592593  28.676339285714285 13.997395833333332  C 27.165922619047624 17.324942129629626  25.13495163690477 19.990596064814817  22.583426339285715 21.99435763888889  C 20.031901041666668 23.998119212962962  17.3374255952381 25  14.5 25  C 11.662574404761905 25  8.968098958333334 23.994502314814817  6.4165736607142865 21.983506944444446  C 3.865048363095238 19.972511574074073  1.8340773809523814 17.310474537037035  0.3236607142857143 13.997395833333332  C 0.10788690476190475 13.491030092592593  0 12.991898148148145  0 12.5  C 0 12.00810185185185  0.10788690476190475 11.508969907407407  0.3236607142857143 11.002604166666666  C 1.8340773809523814 7.689525462962962  3.865048363095238 5.027488425925925  6.4165736607142865 3.0164930555555554  C 8.968098958333334 1.0054976851851833  11.662574404761905 0  14.5 0  C 17.3374255952381 0  20.031901041666668 1.0054976851851833  22.583426339285715 3.0164930555555554  C 25.13495163690477 5.027488425925925  27.165922619047624 7.689525462962962  28.676339285714285 11.002604166666666  Z " stroke-width="0" stroke-dasharray="0" stroke="rgba(255, 255, 255, 0)" fill="none" transform="matrix(1 0 0 1 219 388 )" class="stroke" mask="url(#Clip352)" />
  </g>
</svg>