<?xml version="1.0" encoding="utf-8"?>
<svg version="1.1" xmlns:xlink="http://www.w3.org/1999/xlink" width="27px" height="27px" xmlns="http://www.w3.org/2000/svg">
  <defs>
    <pattern id="BGPattern" patternUnits="userSpaceOnUse" alignment="0 0" imageRepeat="None" />
    <mask fill="white" id="Clip353">
      <path d="M 21.078683035714285 15.908203124999998  C 21.169084821428573 16.013671874999996  21.214285714285715 16.148437499999996  21.214285714285715 16.312500000000004  L 21.214285714285715 21.9375  C 21.214285714285715 23.332031249999996  20.78989955357143 24.524414062500004  19.941127232142858 25.5146484375  C 19.09235491071429 26.5048828125  18.0703125 27  16.875 27  L 4.339285714285714 27  C 3.143973214285715 27  2.121930803571429 26.5048828125  1.2731584821428572 25.5146484375  C 0.4243861607142857 24.524414062500004  0 23.332031249999996  0 21.9375  L 0 7.312500000000001  C 0 5.917968749999997  0.4243861607142857 4.725585937499998  1.2731584821428572 3.735351562499999  C 2.121930803571429 2.7451171874999964  3.143973214285715 2.250000000000001  4.339285714285714 2.250000000000001  L 14.946428571428573 2.250000000000001  C 15.087053571428573 2.250000000000001  15.202566964285714 2.302734375000001  15.29296875 2.408203125000001  C 15.383370535714286 2.513671875000001  15.428571428571427 2.6484374999999973  15.428571428571427 2.812499999999999  L 15.428571428571427 3.937500000000001  C 15.428571428571427 4.1015625  15.383370535714286 4.236328124999999  15.29296875 4.341796874999999  C 15.202566964285714 4.447265624999999  15.087053571428573 4.499999999999999  14.946428571428573 5  L 4.339285714285714 5  C 3.676339285714286 4.499999999999999  3.108816964285715 4.7753906249999964  2.63671875 5.326171875  C 2.164620535714286 5.876953124999997  1.9285714285714284 6.5390625  2 7.312500000000001  L 2 21.9375  C 1.9285714285714284 22.7109375  2.164620535714286 23.373046874999996  2.63671875 23.923828125  C 3.108816964285715 24.474609375  3.676339285714286 24.75  4.339285714285714 24.75  L 16.875 24.75  C 17.537946428571427 24.75  18.105468750000004 24.474609375  18.577566964285715 23.923828125  C 19.04966517857143 23.373046874999996  19.285714285714285 22.7109375  19.285714285714285 21.9375  L 19.285714285714285 16.312500000000004  C 19.285714285714285 16.148437499999996  19.330915178571427 16.013671874999996  19.421316964285715 15.908203124999998  C 19.51171875 15.802734374999998  19.627232142857142 15.749999999999998  19.767857142857142 15.749999999999998  L 20.732142857142858 15.749999999999998  C 20.87276785714286 15.749999999999998  20.98828125 15.802734374999998  21.078683035714285 15.908203124999998  Z M 26.713727678571427 0.333984374999999  C 26.904575892857142 0.5566406249999963  27 0.8203124999999963  27 1.1249999999999991  L 27 10.125  C 27 10.4296875  26.904575892857142 10.693359375  26.713727678571427 10.916015625  C 26.52287946428572 11.138671875  26.296875 11.249999999999998  26.035714285714285 11.249999999999998  C 25.774553571428573 11.249999999999998  25.548549107142858 11.138671875  25.357700892857142 10.916015625  L 22.705915178571427 7.822265624999999  L 12.882254464285714 19.283203124999996  C 12.781808035714286 19.400390624999996  12.666294642857144 19.458984375  12.535714285714286 19.458984375  C 12.40513392857143 19.458984375  12.289620535714286 19.400390624999996  12.189174107142858 19.283203124999996  L 10.471540178571429 17.279296874999996  C 10.371093750000002 17.162109375  10.320870535714286 17.02734375  10.320870535714286 16.875  C 10.320870535714286 16.72265625  10.371093750000002 16.587890625  10.471540178571429 16.470703125000004  L 20.295200892857142 5.009765625  L 17.643415178571427 1.9160156249999991  C 17.45256696428572 1.6933593749999987  17.357142857142858 1.4296874999999987  17.357142857142858 1.1249999999999991  C 17.357142857142858 0.8203124999999963  17.45256696428572 0.5566406249999963  17.643415178571427 0.333984374999999  C 17.834263392857142 0.11132812500000167  18.060267857142858 0  18.321428571428573 0  L 26.035714285714285 0  C 26.296875 0  26.52287946428572 0.11132812500000167  26.713727678571427 0.333984374999999  Z " fill-rule="evenodd" />
    </mask>
  </defs>
  <g transform="matrix(1 0 0 1 -331 -386 )">
    <path d="M 21.078683035714285 15.908203124999998  C 21.169084821428573 16.013671874999996  21.214285714285715 16.148437499999996  21.214285714285715 16.312500000000004  L 21.214285714285715 21.9375  C 21.214285714285715 23.332031249999996  20.78989955357143 24.524414062500004  19.941127232142858 25.5146484375  C 19.09235491071429 26.5048828125  18.0703125 27  16.875 27  L 4.339285714285714 27  C 3.143973214285715 27  2.121930803571429 26.5048828125  1.2731584821428572 25.5146484375  C 0.4243861607142857 24.524414062500004  0 23.332031249999996  0 21.9375  L 0 7.312500000000001  C 0 5.917968749999997  0.4243861607142857 4.725585937499998  1.2731584821428572 3.735351562499999  C 2.121930803571429 2.7451171874999964  3.143973214285715 2.250000000000001  4.339285714285714 2.250000000000001  L 14.946428571428573 2.250000000000001  C 15.087053571428573 2.250000000000001  15.202566964285714 2.302734375000001  15.29296875 2.408203125000001  C 15.383370535714286 2.513671875000001  15.428571428571427 2.6484374999999973  15.428571428571427 2.812499999999999  L 15.428571428571427 3.937500000000001  C 15.428571428571427 4.1015625  15.383370535714286 4.236328124999999  15.29296875 4.341796874999999  C 15.202566964285714 4.447265624999999  15.087053571428573 4.499999999999999  14.946428571428573 5  L 4.339285714285714 5  C 3.676339285714286 4.499999999999999  3.108816964285715 4.7753906249999964  2.63671875 5.326171875  C 2.164620535714286 5.876953124999997  1.9285714285714284 6.5390625  2 7.312500000000001  L 2 21.9375  C 1.9285714285714284 22.7109375  2.164620535714286 23.373046874999996  2.63671875 23.923828125  C 3.108816964285715 24.474609375  3.676339285714286 24.75  4.339285714285714 24.75  L 16.875 24.75  C 17.537946428571427 24.75  18.105468750000004 24.474609375  18.577566964285715 23.923828125  C 19.04966517857143 23.373046874999996  19.285714285714285 22.7109375  19.285714285714285 21.9375  L 19.285714285714285 16.312500000000004  C 19.285714285714285 16.148437499999996  19.330915178571427 16.013671874999996  19.421316964285715 15.908203124999998  C 19.51171875 15.802734374999998  19.627232142857142 15.749999999999998  19.767857142857142 15.749999999999998  L 20.732142857142858 15.749999999999998  C 20.87276785714286 15.749999999999998  20.98828125 15.802734374999998  21.078683035714285 15.908203124999998  Z M 26.713727678571427 0.333984374999999  C 26.904575892857142 0.5566406249999963  27 0.8203124999999963  27 1.1249999999999991  L 27 10.125  C 27 10.4296875  26.904575892857142 10.693359375  26.713727678571427 10.916015625  C 26.52287946428572 11.138671875  26.296875 11.249999999999998  26.035714285714285 11.249999999999998  C 25.774553571428573 11.249999999999998  25.548549107142858 11.138671875  25.357700892857142 10.916015625  L 22.705915178571427 7.822265624999999  L 12.882254464285714 19.283203124999996  C 12.781808035714286 19.400390624999996  12.666294642857144 19.458984375  12.535714285714286 19.458984375  C 12.40513392857143 19.458984375  12.289620535714286 19.400390624999996  12.189174107142858 19.283203124999996  L 10.471540178571429 17.279296874999996  C 10.371093750000002 17.162109375  10.320870535714286 17.02734375  10.320870535714286 16.875  C 10.320870535714286 16.72265625  10.371093750000002 16.587890625  10.471540178571429 16.470703125000004  L 20.295200892857142 5.009765625  L 17.643415178571427 1.9160156249999991  C 17.45256696428572 1.6933593749999987  17.357142857142858 1.4296874999999987  17.357142857142858 1.1249999999999991  C 17.357142857142858 0.8203124999999963  17.45256696428572 0.5566406249999963  17.643415178571427 0.333984374999999  C 17.834263392857142 0.11132812500000167  18.060267857142858 0  18.321428571428573 0  L 26.035714285714285 0  C 26.296875 0  26.52287946428572 0.11132812500000167  26.713727678571427 0.333984374999999  Z " fill-rule="nonzero" fill="rgba(0, 0, 0, 1)" stroke="none" transform="matrix(1 0 0 1 331 386 )" class="fill" />
    <path d="M 21.078683035714285 15.908203124999998  C 21.169084821428573 16.013671874999996  21.214285714285715 16.148437499999996  21.214285714285715 16.312500000000004  L 21.214285714285715 21.9375  C 21.214285714285715 23.332031249999996  20.78989955357143 24.524414062500004  19.941127232142858 25.5146484375  C 19.09235491071429 26.5048828125  18.0703125 27  16.875 27  L 4.339285714285714 27  C 3.143973214285715 27  2.121930803571429 26.5048828125  1.2731584821428572 25.5146484375  C 0.4243861607142857 24.524414062500004  0 23.332031249999996  0 21.9375  L 0 7.312500000000001  C 0 5.917968749999997  0.4243861607142857 4.725585937499998  1.2731584821428572 3.735351562499999  C 2.121930803571429 2.7451171874999964  3.143973214285715 2.250000000000001  4.339285714285714 2.250000000000001  L 14.946428571428573 2.250000000000001  C 15.087053571428573 2.250000000000001  15.202566964285714 2.302734375000001  15.29296875 2.408203125000001  C 15.383370535714286 2.513671875000001  15.428571428571427 2.6484374999999973  15.428571428571427 2.812499999999999  L 15.428571428571427 3.937500000000001  C 15.428571428571427 4.1015625  15.383370535714286 4.236328124999999  15.29296875 4.341796874999999  C 15.202566964285714 4.447265624999999  15.087053571428573 4.499999999999999  14.946428571428573 5  L 4.339285714285714 5  C 3.676339285714286 4.499999999999999  3.108816964285715 4.7753906249999964  2.63671875 5.326171875  C 2.164620535714286 5.876953124999997  1.9285714285714284 6.5390625  2 7.312500000000001  L 2 21.9375  C 1.9285714285714284 22.7109375  2.164620535714286 23.373046874999996  2.63671875 23.923828125  C 3.108816964285715 24.474609375  3.676339285714286 24.75  4.339285714285714 24.75  L 16.875 24.75  C 17.537946428571427 24.75  18.105468750000004 24.474609375  18.577566964285715 23.923828125  C 19.04966517857143 23.373046874999996  19.285714285714285 22.7109375  19.285714285714285 21.9375  L 19.285714285714285 16.312500000000004  C 19.285714285714285 16.148437499999996  19.330915178571427 16.013671874999996  19.421316964285715 15.908203124999998  C 19.51171875 15.802734374999998  19.627232142857142 15.749999999999998  19.767857142857142 15.749999999999998  L 20.732142857142858 15.749999999999998  C 20.87276785714286 15.749999999999998  20.98828125 15.802734374999998  21.078683035714285 15.908203124999998  Z " stroke-width="0" stroke-dasharray="0" stroke="rgba(255, 255, 255, 0)" fill="none" transform="matrix(1 0 0 1 331 386 )" class="stroke" mask="url(#Clip353)" />
    <path d="M 26.713727678571427 0.333984374999999  C 26.904575892857142 0.5566406249999963  27 0.8203124999999963  27 1.1249999999999991  L 27 10.125  C 27 10.4296875  26.904575892857142 10.693359375  26.713727678571427 10.916015625  C 26.52287946428572 11.138671875  26.296875 11.249999999999998  26.035714285714285 11.249999999999998  C 25.774553571428573 11.249999999999998  25.548549107142858 11.138671875  25.357700892857142 10.916015625  L 22.705915178571427 7.822265624999999  L 12.882254464285714 19.283203124999996  C 12.781808035714286 19.400390624999996  12.666294642857144 19.458984375  12.535714285714286 19.458984375  C 12.40513392857143 19.458984375  12.289620535714286 19.400390624999996  12.189174107142858 19.283203124999996  L 10.471540178571429 17.279296874999996  C 10.371093750000002 17.162109375  10.320870535714286 17.02734375  10.320870535714286 16.875  C 10.320870535714286 16.72265625  10.371093750000002 16.587890625  10.471540178571429 16.470703125000004  L 20.295200892857142 5.009765625  L 17.643415178571427 1.9160156249999991  C 17.45256696428572 1.6933593749999987  17.357142857142858 1.4296874999999987  17.357142857142858 1.1249999999999991  C 17.357142857142858 0.8203124999999963  17.45256696428572 0.5566406249999963  17.643415178571427 0.333984374999999  C 17.834263392857142 0.11132812500000167  18.060267857142858 0  18.321428571428573 0  L 26.035714285714285 0  C 26.296875 0  26.52287946428572 0.11132812500000167  26.713727678571427 0.333984374999999  Z " stroke-width="0" stroke-dasharray="0" stroke="rgba(255, 255, 255, 0)" fill="none" transform="matrix(1 0 0 1 331 386 )" class="stroke" mask="url(#Clip353)" />
  </g>
</svg>